<svg width="1920" height="2172" viewBox="0 0 1920 2172" fill="none" xmlns="http://www.w3.org/2000/svg">
<g filter="url(#filter0_d_128_837)">
<path d="M449.609 114.727C448.248 114.971 445.305 115.346 441.813 115.838C436.368 116.628 430.373 117.718 427.066 118.463C429.531 117.314 435.588 115.896 441.646 114.982C449.493 113.838 456.424 113.546 449.609 114.727ZM235.27 518.912C234.83 515.967 234.417 513.106 234.033 510.44C233.966 509.827 233.9 509.217 233.834 508.612C233.803 509.201 233.774 509.805 233.747 510.424C233.365 519.226 233.947 532.57 233.814 541.915C233.787 543.541 232.179 539.318 232.24 543.169C232.307 547.035 234.287 546.278 234.729 551.921C235.102 556.885 235.186 577.08 235.682 589.451C235.696 589.65 235.699 590.25 235.71 590.45C235.706 590.167 235.722 590.713 235.731 590.873C235.736 590.999 235.742 591.145 235.749 591.31C235.756 591.451 235.762 591.568 235.768 591.71C235.797 592.316 235.827 592.845 235.863 593.434C235.93 594.535 236.011 595.615 236.09 596.446C238.704 626.795 247.48 663.3 254.272 675.257C254.91 676.492 255.695 677.968 256.539 679.51C255.385 677.789 254.492 676.447 253.821 675.477C252.112 673.449 251.061 671.946 250.913 672.539C250.723 672.994 251.309 674.978 251.94 676.395C253.476 679.794 256.872 685.517 258.95 688.275C260.518 690.056 262.206 687.027 282.97 717.298C287.7 724.041 288.742 726.794 288.585 728.065L285.899 724.626C286.569 727.857 285.18 729.22 304.69 748.001C286.291 721.287 307.353 745.588 324.141 763.122C325.415 764.442 330.998 770.561 336.913 776.549C345.569 785.381 355.046 794.778 360.537 799.615C364.041 802.749 370.797 805.741 375.735 809.841C378.345 812.014 380.015 814.357 383.111 817.313C384.065 818.221 385.117 819.158 386.346 820.148C411.877 840.887 432.382 854.809 460.654 871.678C446.089 868.301 459.822 875.475 468.424 879.745C471.416 881.259 473.673 882.385 473.987 882.647C476.568 884.905 472.673 883.199 467.774 880.823C461.199 877.698 453.407 873.583 460.183 878.238C462.422 879.514 464.688 880.797 467.004 882.102C483.626 891.546 496.032 898.57 508.018 903.663C500.818 899.802 509.922 901.988 519.513 904.979C518.849 904.405 520.116 904.714 521.309 905.054C522.551 905.423 523.887 905.941 524.578 906.482C522.935 903.016 546.701 910.955 572.455 916.73C573.341 916.862 575.967 917.404 576.845 917.582C596.634 923.01 617.438 928.094 623.437 928.304C626.334 928.317 608.114 922.854 651.6 930.911C656.266 931.736 654.228 933.118 656.705 933.318C658.199 933.44 667.854 929.468 676.5 933.427C679.17 934.625 661.667 936.25 695.7 938.687C698.53 938.85 701.511 939.004 704.899 939.168C685.575 932.402 775.408 941.435 786.313 940.668C783.515 940.037 780.712 939.375 777.896 938.682C791.781 940.375 794.066 938.148 797.147 938.078C809.389 937.695 826.885 937.263 839.213 934.834C842.869 934.132 845.527 933.361 847.845 932.568C854.38 930.242 856.987 928.106 868.488 926.26C864.689 926.444 860.992 926.542 857.181 926.605C867.756 924.471 877.694 921.854 890.966 918.168C863.631 930.825 896.84 916.712 900.098 915.634C903.546 914.483 900.021 916.959 903.41 916.206C903.974 916.078 904.711 915.873 905.654 915.571C906.336 915.345 905.05 913.83 915.716 910.662C926.565 907.464 929.639 907.03 932.057 906.831C934.338 906.666 935.484 906.899 938.344 905.938C938.834 905.708 936.658 904.99 945.915 901.055C947.763 900.244 949.448 899.478 950.969 898.776C974.311 888.391 961.934 894.54 951.361 899.719C948.133 901.423 945.43 902.733 945.111 902.924C944.394 903.359 947.244 904.128 946.923 905.769C946.759 906.588 945.778 907.656 943.164 908.914C940.412 910.203 936.73 911.484 927.574 913.447C939.394 910.851 940.031 913.533 941.359 913.213C942.084 913.043 949.389 910.267 954.712 907.78C958.049 906.295 960.615 905.15 960.987 904.958C972.104 899.198 961.217 901.568 963.319 900.292C966.048 898.877 991.141 891.085 994.762 882.497C1009.3 881.886 990.248 890.606 970.332 899.764C968.184 901.963 990.385 893.716 991.425 893.115C998.278 890.005 1002.79 887.588 1005.38 885.879C1010.41 881.875 1003.62 881.606 1005.86 877.997C1007.21 875.63 1018.19 873.325 1007.71 874.186C1017.7 868.631 1022.06 866.63 1021.55 867.628C1021.29 868.449 1018.13 870.999 1019.05 870.691C1021.54 869.904 1031.29 863.14 1032.96 862.442C1035.15 861.534 1028.61 866.687 1037.06 862.73C1038.44 862.071 1051.23 852.562 1032.88 860.883C1056.94 848.625 1055.57 847.588 1066.23 847.469C1069.55 844.228 1072.24 842.322 1074.44 841.275C1082.31 837.546 1083.18 845.955 1089.03 844.222C1108.92 838.71 1101.52 834.732 1102.43 834.038C1105.7 831.946 1122.12 827.234 1137.81 824.259C1153.63 821.191 1166.82 819.382 1171.59 818.004C1169.61 823.028 1135.95 824.342 1126.48 827.771C1112.51 832.754 1122.94 830.601 1133.82 829.155C1144.73 827.718 1155.23 827.148 1146.64 831.693C1154.15 828.623 1161.09 825.807 1167.4 823.072C1179.5 824.574 1164.78 829.24 1193.18 822.138C1197.29 818.088 1173.03 826.7 1177.49 823.221C1180.55 821.218 1196.61 817.55 1196.65 816.67C1196.83 815.726 1182.5 819.867 1184.48 817.96C1186.02 816.603 1192.86 814.854 1199.69 813.264C1200.71 813.022 1203.78 812.389 1204.82 812.205C1226.89 808.685 1246.57 807.839 1208.83 814.477C1223.29 812.115 1231.09 815.883 1241.75 814.574C1243.37 814.38 1244.97 814.087 1246.67 813.65C1249.84 812.841 1245 811.852 1241.3 810.67C1238.2 809.651 1236.08 808.441 1240.87 806.917C1245.49 805.508 1256.39 803.602 1279.33 802.574C1281.04 805.25 1249.66 805.758 1248.97 806.212C1247.92 806.644 1254.07 812.65 1255.1 812.882C1258.11 812.791 1334.24 805.452 1352.95 811.634C1347.37 808.074 1392.26 812.42 1419.58 821.693C1423.68 822.967 1426.9 823.916 1428.21 824.101C1430.04 824.343 1424.26 820.074 1426.18 820.422C1436.66 821.76 1474.48 839.749 1491.74 850.82C1510.31 861.961 1508.4 858.988 1509.54 859.593C1516.87 864.649 1510.26 861.829 1514.66 864.835C1515.59 865.476 1517.23 866.619 1519.37 868.156C1526.96 873.724 1555.45 893.23 1558.08 895.163C1558.76 895.559 1553.2 888.639 1562.67 895.068C1564.35 896.665 1561.57 895.97 1590.27 919.779C1591.62 920.996 1595.39 924.866 1596.6 926.215C1596.67 926.279 1596.73 926.343 1596.79 926.408C1609.49 939.734 1604.11 932.141 1598.8 924.269C1597.54 922.874 1593.64 918.874 1592.25 917.617C1585.23 909.83 1577.89 902.468 1585.1 906.878C1588.4 910.597 1591.16 913.69 1593.51 916.244C1594.93 917.527 1598.91 921.61 1600.19 923.033C1607.18 933.154 1609.42 931.589 1612.37 935.358C1613.6 936.938 1620.8 950.324 1631.53 962.287C1623.54 953.964 1615.53 945.64 1607.53 937.325C1614.55 946.252 1629.59 962.35 1635.23 969.835C1637.99 973.484 1633.44 972.492 1640.01 979.899C1641.42 981.468 1651.95 983.256 1632.63 965.735C1633.07 962.568 1640.01 972.908 1644.28 976.77C1644.63 977.086 1646.26 977.186 1648.18 978.316C1649.06 979.288 1651.53 982.322 1652.34 983.354C1654.5 985.185 1656.29 987.166 1657.66 991.046C1658.17 993.164 1636.85 982.196 1674.95 1022.58C1676.18 1023.92 1673.91 1017.89 1675.14 1019.18C1675.98 1020 1683.42 1032.47 1684.48 1033.83C1685.57 1035.12 1683.06 1028.22 1684.4 1029.73C1691.28 1037.49 1693.11 1052.65 1682.22 1034.18C1685.33 1040.55 1688.42 1047.09 1691.58 1054.19C1691.61 1046.78 1695.99 1056.58 1700.82 1067.58C1702.1 1070.5 1703.23 1073.17 1704.24 1075.26C1718.35 1105.62 1719.48 1108.25 1720.39 1107.04C1720.97 1105.5 1719.29 1098.05 1721.93 1102.59C1730.24 1117.16 1718.27 1108 1728.92 1130.33C1729.63 1131.81 1726.01 1115.97 1731.4 1130.49L1726.7 1119.66C1728.87 1123.82 1732.39 1131.17 1738 1143.52C1734.49 1136.8 1730.98 1130.07 1727.46 1123.35C1725.36 1129.36 1740 1147.71 1740.85 1149.26C1749.96 1166.18 1743.56 1156.61 1756.26 1177.85C1757.36 1179.92 1760.08 1186.33 1760.9 1188.52C1761.4 1189.67 1761.93 1190.91 1762.51 1192.23C1763.58 1194.7 1764.43 1200.59 1766.81 1205.81C1773.38 1220.22 1767.28 1202.15 1762.83 1187.83C1761.98 1185.58 1759.2 1179.04 1758.07 1176.92C1754.91 1170.07 1752.28 1164.11 1752.6 1163.38C1752.76 1163.03 1755.7 1168.53 1759.58 1176.14C1760.74 1178.3 1763.56 1184.97 1764.42 1187.26C1770.27 1203.71 1778.88 1229.45 1779.06 1230.83C1780.09 1239.63 1769.57 1205.73 1769.57 1212.92C1769.58 1214.58 1781.29 1247.12 1790.98 1274.85C1791.07 1275.1 1791.33 1275.86 1791.42 1276.11C1796.75 1292.13 1801.44 1306.55 1803.04 1312.53C1808.08 1331.45 1805.14 1341.75 1811.53 1339.69C1807.69 1345.94 1811.23 1349.18 1812.84 1351.47C1813.7 1353.85 1815.5 1361.08 1816 1363.55C1816.22 1364.01 1816.39 1364.42 1816.45 1364.8C1820.78 1394.71 1820.73 1394.78 1825.54 1420.22C1826.6 1425.84 1825.45 1430.96 1826.11 1432.9C1826.49 1434.02 1828.21 1431.47 1829.78 1437.05C1830.91 1441.11 1833 1456.23 1834.65 1470.23C1835.55 1474.58 1836.01 1487.26 1835.75 1491.7C1833.84 1505.31 1831.69 1517.15 1830.94 1518.92C1829.41 1522.47 1832.77 1497.84 1830.39 1502.12C1828.3 1520 1826.76 1537.1 1824.13 1555.26C1823.01 1562.83 1822.24 1558.78 1821.77 1562.05C1821.65 1563.34 1818.74 1590.12 1819.3 1589.18C1821.59 1585.88 1830.97 1505.75 1830.56 1527.09C1830.54 1531.19 1825.73 1545.25 1829.67 1543.35C1827.52 1558.73 1825.2 1574.15 1822.34 1590.3C1820.89 1598.41 1819.34 1606.61 1817.33 1615.69C1816.3 1620.33 1815.22 1624.9 1813.7 1630.52C1812.01 1636.35 1810.89 1641.42 1805.92 1653.12C1796.09 1673.94 1786.27 1694.72 1776.42 1715.53C1774.77 1719.65 1768.02 1730.28 1765.29 1733.78C1757.97 1741.98 1748.36 1754.39 1741.12 1764.91C1747.06 1754.15 1756.35 1741.31 1763.89 1732.63C1766.55 1729.21 1773.14 1718.84 1774.75 1714.81C1784.37 1694 1794.71 1672.98 1804.16 1652.37C1807.51 1644.61 1808.93 1639.68 1810.16 1635.54C1813.44 1624.91 1817.91 1603.18 1815.57 1605.58C1814.46 1611.05 1813.25 1616.87 1811.63 1623.59C1809.73 1630.74 1808.9 1636.56 1802.64 1651.71C1793.09 1672.7 1783.14 1694.87 1773.76 1714.38C1772.17 1718.35 1765.68 1728.57 1763.06 1731.95C1761.53 1733.51 1758.45 1737.13 1756.15 1739.8C1755.55 1740.5 1756.35 1736.92 1754.04 1739.45C1749.54 1744.19 1739.61 1762.5 1737.43 1764.89C1736.92 1765.32 1741.69 1754.63 1738.6 1756.82C1732.19 1761.4 1734.25 1766.1 1733.32 1770.87C1732.59 1772.93 1731.63 1775.03 1730.08 1777.39C1727.69 1781.07 1715.73 1798.01 1699.39 1812C1683.04 1825.73 1677.66 1828.78 1674.32 1833.09C1673.27 1834.3 1672.4 1835.38 1671.76 1836.29C1668.98 1840.19 1671.46 1838.33 1675.74 1834.43C1678.22 1832.38 1681.51 1829.69 1685.69 1826.57C1689.77 1823.54 1694.76 1819.76 1693.97 1821.27C1685.16 1829.35 1681.68 1832.29 1677.65 1836.25C1659.91 1854.14 1641.64 1870.02 1624.99 1885.74C1624.57 1886.13 1629.21 1883.84 1624.1 1888.86C1615.2 1897.59 1611.36 1898.26 1606.66 1902.13C1601.62 1906.3 1584.81 1921.95 1582.01 1923.45C1581.65 1923.65 1583.68 1919.07 1584.18 1918.54C1591 1911.22 1595.46 1910.73 1596.17 1910.14C1598.78 1907.89 1600.54 1904.9 1602.9 1902.83C1606.75 1899.43 1609.5 1898.19 1614.58 1893.62C1618.07 1890.49 1613.46 1892.25 1616.84 1889.24C1618.09 1888.14 1634.2 1878.89 1632.4 1874.66C1631.92 1873.93 1569.98 1929.56 1534.42 1960.55C1531.59 1963.36 1522.17 1969.39 1518.62 1971.21C1504.91 1977.16 1494.67 1981.72 1491.55 1983.35C1500.8 1979.75 1510.03 1976.16 1519.25 1972.57C1522.9 1970.7 1532.54 1964.53 1535.44 1961.65C1537.36 1960.09 1539.35 1958.46 1541.28 1956.88C1539.36 1958.42 1537.38 1960.08 1535.48 1961.69C1532.58 1964.58 1522.92 1970.76 1519.28 1972.62C1497.84 1981.52 1475.97 1993.4 1472.4 1990.31C1448.19 2000.74 1423.95 2011.15 1399.73 2021.54C1399.44 2021.69 1398.53 2022.08 1398.23 2022.22C1390.16 2025.41 1382.36 2028.52 1372.55 2032C1363.18 2035.43 1348.76 2039.29 1338.32 2040.67C1318.32 2043.37 1304.79 2044.48 1288.37 2046.72C1255.5 2050.97 1219.37 2056.5 1180.27 2055.4C1161.2 2054.18 1171.44 2052.79 1140.78 2050.21C1148.55 2052.01 1156.49 2053.62 1164.56 2054.98C1156.56 2054.25 1135.33 2051.74 1115.64 2047.74C1094.9 2043.84 1074.35 2037.5 1068.95 2035.95C1067.64 2035.54 1064.62 2037.11 1048.84 2031.47C1035.17 2026.48 1033.89 2024.19 1027.18 2021.28C1021.6 2018.84 1015.26 2016.87 1013.66 2016.18C1012.47 2015.66 1012.27 2014.68 1009.72 2013.48C1009.56 2013.41 1009.39 2013.33 1009.22 2013.26C999.418 2009.11 1006.7 2014.61 997.706 2008.07C1000.18 2008.85 1002.63 2009.63 1005.06 2010.39C993.214 2005.59 976.801 1998.16 995.041 2004.08C998.157 2005.08 995.238 2004.99 997.527 2005.82C1002.4 2007.58 1006.76 2009.15 1010.68 2010.56C1060.74 2029.31 1037.63 2019.41 1011 2009.59C1001.78 2006.27 991.945 2002.89 984.216 2000.41C976.682 1996.74 928.732 1977.9 927.563 1976.43C925.572 1975.1 933.86 1977.88 923.877 1972.21C923.274 1971.86 917.579 1969.18 910.526 1965.64C892.489 1956.67 868.647 1942.17 883.719 1949.77C886.664 1951.22 899.6 1958.78 911.034 1964.56C916.629 1967.41 921.57 1969.82 923.998 1970.96C920.679 1968.75 916.277 1966.31 911.398 1963.78C892.416 1954 868.661 1942.08 865.461 1940.06C849.32 1929.85 897.951 1957.06 861.277 1934.63C833.446 1917.12 858.822 1934.83 847.75 1928.74C844.735 1927.07 836.395 1921.42 828.179 1915.9C826.85 1915.17 823.563 1912.33 822.456 1911.3C815.564 1903.51 808.942 1896.34 808.471 1897.55C799.899 1888.43 805.655 1893.04 804.678 1891.84C803.723 1890.68 786.73 1872.88 781.698 1866.64C781.086 1865.89 783.932 1867.38 783.325 1866.57C782.684 1865.75 777.823 1860.43 773.322 1855.55L773.838 1856.07C769.296 1851.4 765.573 1847.34 765.195 1846.99C764.698 1846.55 768.063 1851.64 766.233 1849.97C764.038 1848.17 748.45 1829.7 747.47 1828.63C745.877 1827.64 765.535 1850.13 761.566 1847.02C752.574 1836.7 737.875 1819.59 731.558 1811.06C733.141 1813.28 741.553 1824.75 744.474 1828.41C741.901 1828.36 723.829 1801.82 730.953 1810.32C729.964 1809.05 729.311 1808.23 728.878 1807.75C727.579 1806.37 728.339 1808.2 726.557 1806.11C726.037 1805.61 720.975 1796.98 719.939 1795.35C719.698 1795.15 724.352 1804.5 723.085 1802.82C722.245 1801.8 719.275 1796.84 716.706 1791.68C711.852 1782 708.505 1772.57 707.975 1771.09C706.014 1765.13 714.531 1785.48 716.322 1787.39C716.177 1787.27 709.964 1769.26 710.06 1768.95C710.516 1767.53 717.919 1787.33 718.04 1784.81C715.926 1779.66 714.19 1774.87 712.478 1770C714.886 1775.25 717.426 1781.34 721.425 1789.12C724.273 1794.71 728.28 1801.39 731.314 1806.14C738.826 1817.76 745.693 1825.64 748.994 1828.88C743.01 1821.67 737.1 1814.08 731.916 1805.74C728.452 1800.15 724.664 1793.32 722.533 1788.51C718.395 1779.36 717.27 1774.39 718.165 1773.88C719.047 1773.42 724.874 1784.96 725.072 1784.5C724.761 1782.02 717.075 1766.52 716.951 1765.83C716.805 1765.31 716.765 1765.05 716.806 1765.01C716.806 1765.01 716.806 1765.01 716.806 1765.01C716.806 1765.01 716.806 1765.01 716.806 1765.01C716.806 1765.01 716.806 1765.01 716.806 1765.01C717.293 1765.07 723.139 1778.86 727.177 1785.99C728.088 1787.62 728.767 1788.76 728.94 1788.97C729.631 1789.78 729.11 1787.65 728.519 1785.26C727.706 1782.35 727.002 1779.3 727.197 1779.2C727.298 1779.33 728.447 1781.67 730.033 1784.43C732.388 1788.57 735.665 1793.45 734.111 1789.81C733.445 1788.21 732.422 1786.02 731.351 1783.72C728.2 1776.98 725.206 1769.64 725.068 1769.22C724.664 1767.5 728.304 1775.84 732.353 1783.17C734.703 1787.41 737.066 1791.16 737.31 1791.36C737.516 1791.57 734.977 1786.55 733.314 1782.65C732.134 1779.98 731.345 1777.85 731.349 1777.65C731.384 1777.45 732.501 1779.48 734.175 1782.18C735.936 1785 738.343 1788.59 739.903 1790.37C742.052 1792.88 737.58 1784.45 738.522 1785.85C738.788 1786.31 741.982 1791.77 745.34 1796.85C749.239 1802.85 753.706 1808.43 754.145 1808.92C755.392 1810.28 752.326 1805.19 752.992 1805.75C753.902 1806.6 758.75 1813.06 758.301 1812.07C758.112 1811.64 752.127 1803.14 747.894 1795.16C744.829 1789.44 742.397 1784.12 742.694 1784.08C743.169 1783.99 746.803 1790.52 749.297 1794.23C751.406 1797.38 752.589 1798.74 750.278 1793.58C749.474 1791.68 748.171 1788.91 746.435 1784.92C746.31 1784.75 742.414 1778.5 742.371 1778.3C742.29 1778.06 742.248 1777.89 742.242 1777.79C742.234 1777.64 742.297 1777.62 742.412 1777.7C743.456 1778.41 749.069 1786.9 743.652 1777.02C742.63 1775.1 741.275 1772.43 739.539 1768.81C741.096 1771.92 742.526 1774.62 743.86 1776.91L752.938 1791.82C753.919 1791.17 754.149 1791.01 755.536 1790.1L749.129 1779.94C750.113 1781.02 753.077 1785.35 756.206 1789.65C759.466 1794.18 763.035 1798.43 763.103 1798.44C762.573 1796.38 758.197 1791.69 757.396 1789.67C756.714 1788.68 768.348 1802.21 766.4 1798.64C765.803 1797.62 761.695 1792.49 758.691 1788.01C756.183 1784.31 754.189 1781.2 754.039 1780.9C750.688 1774.36 755.903 1781.7 755.409 1780.11C755.191 1779.49 753.049 1775.87 751.399 1772.81C750.385 1770.95 749.552 1769.27 749.517 1769.16C749.47 1768.98 750.449 1770.59 751.807 1772.59C754.411 1776.57 758.526 1781.91 759.972 1783.56C761.553 1785.4 756.939 1777.62 757.998 1778.97C759.319 1780.71 760.931 1783.02 762.57 1785.44C767.885 1793.03 773.317 1800.71 765.375 1786.99C765.185 1786.63 764.524 1785.68 763.809 1784.62C762.217 1782.27 760.311 1779.47 760.259 1779.34C759.047 1776.57 761.696 1780.29 764.645 1784.06C766.074 1785.87 767.612 1787.63 768.336 1788.19C770.567 1789.92 766.198 1784.22 765.778 1783.31C765.679 1783.14 765.683 1783.11 765.835 1783.28C766.163 1783.61 767.207 1784.98 769.921 1788.14C768.593 1786.21 767.439 1784.48 766.427 1782.88C763.145 1777.77 760.909 1774.34 757.954 1769.24C756.442 1766.67 754.633 1763.25 752.578 1759.16C754.495 1762.98 756.397 1766.53 758.056 1769.19C761.457 1774.78 764.439 1778.6 767.332 1782.29C775.137 1791.35 777.003 1791.92 769.215 1781.04C766.737 1777.29 764.105 1773.54 760.74 1767.73C760.511 1767.34 760.264 1766.91 760.01 1766.46C760.269 1766.93 760.516 1767.35 760.741 1767.73C767.09 1778.11 767.85 1775.88 770.284 1779.45C770.387 1779.59 770.522 1779.79 770.697 1780.06C772.436 1783.15 783.2 1797.42 780.068 1788.5C779.481 1787.28 771.796 1778.5 774.81 1780.81C793.228 1803.13 775.255 1780.78 775.731 1780.83C776.262 1779.92 793.6 1800.42 811.818 1817.17C811.927 1817.29 812.28 1817.62 812.386 1817.74C824.86 1830 836.359 1841.44 840.424 1845.2C852.249 1856.18 864.005 1864.77 866.533 1867.19C866.687 1867.34 866.812 1867.46 866.917 1867.56C867.091 1867.73 867.158 1867.79 867.285 1867.92L860.843 1862.75C868.949 1867.33 861.071 1864.04 862.975 1865.51C864.927 1867.15 894.166 1880.68 895.539 1881.4C900.797 1884.63 894.614 1882.82 895.157 1883.17C900.025 1886.42 924.279 1898.47 939.068 1904.5C943.783 1906.47 947.738 1908.09 950.189 1909.15C950.18 1908.61 942.874 1905.38 939.518 1903.53C937.743 1902.55 937.194 1902.03 939.887 1902.74C940.604 1902.94 941.527 1903.22 942.673 1903.58C959.044 1908.58 958.383 1912.18 958.751 1912.56C982.663 1921.82 1007.92 1928.71 1034.95 1936.68C1070.58 1947.35 1098.49 1957.5 1128.82 1960.47C1147.31 1962.66 1165.02 1963.55 1182.5 1962.71C1181.78 1961.19 1134.56 1961.29 1133.06 1960.02C1129.9 1958.67 1149.1 1960.75 1169.11 1960.55C1189.05 1960.58 1211.24 1957.59 1216.46 1957.23C1208.77 1957.83 1201.29 1958.22 1193.96 1958.34C1205.98 1954.63 1235.06 1953.58 1255.37 1948.12C1261.8 1946.42 1249.11 1947.75 1249.39 1947.61C1256.45 1945.05 1268.45 1943.55 1259.88 1946.86C1264.9 1945.43 1268.34 1944.56 1271.03 1944C1278.05 1942.55 1279.7 1943.11 1290.12 1941.28C1290.88 1941.15 1284.45 1941.06 1295.84 1938.46C1298.45 1937.86 1307.24 1936.28 1314.43 1934.76C1321.88 1933.22 1324.86 1931.86 1325.65 1931.01C1325.9 1930.67 1324.23 1929.87 1322.29 1929.63C1320.38 1929.4 1317.39 1929.87 1317.04 1932.08C1303.78 1933.6 1300.16 1934.62 1300.43 1935.32C1300.44 1936.05 1302.81 1936.58 1296.8 1937.62C1294.97 1937.97 1298.65 1934.85 1270.57 1941.27C1269.89 1941.43 1269.2 1941.6 1268.49 1941.77C1268.92 1941.31 1269.58 1940.87 1270.43 1940.44C1279.48 1935.77 1310.41 1932.82 1314.29 1931.59C1325 1928.69 1285.05 1933.92 1270.22 1939.18C1268.9 1939.66 1267.84 1940.11 1267.1 1940.55C1270.8 1936.53 1263.5 1940.85 1252.71 1942.88C1240.99 1945.06 1245.94 1943.12 1239.71 1944.33C1222.9 1947.47 1230.07 1948.4 1216.43 1948.68C1230.07 1952.74 1193.82 1953.05 1184.51 1951.61C1200.34 1950.29 1216.55 1947.47 1234.14 1943.82C1233.08 1943.69 1232.03 1943.56 1230.99 1943.43C1235.61 1942.61 1240.26 1941.76 1245.02 1940.86C1244.31 1941.32 1243.61 1941.77 1242.9 1942.23C1256.55 1938.36 1264.85 1936.85 1269.73 1936.3C1273.74 1935.83 1275.34 1935.96 1276.37 1935.77C1289.92 1933.15 1306.86 1930.43 1317.98 1928.13C1323.3 1926.93 1324.49 1926.36 1329 1924.53C1333.3 1922.73 1339.32 1919.97 1345.12 1917.24C1347.07 1916.32 1346.89 1915.69 1350.94 1913.43L1349.31 1914.17C1352.58 1912.21 1358.74 1909.05 1371.12 1903.61C1379.9 1899.77 1372.58 1905.42 1382.16 1900.27C1392.29 1889.85 1393.66 1893.36 1397.27 1891.54C1407.62 1886.29 1413.46 1882.01 1414.4 1881.52C1427.11 1874.86 1445.97 1865.52 1459.91 1858.26C1460.23 1858.08 1452.15 1860.49 1461.56 1856.22C1461.98 1856.03 1462.87 1855.72 1464.18 1855.29L1447.26 1866.7C1454.31 1861.61 1477.02 1845.67 1492.73 1827.18C1487.32 1832 1481.93 1836.8 1476.52 1841.59C1483.03 1836.08 1523.58 1792.42 1512.13 1801.51C1505.17 1807.11 1492.86 1825.69 1488.33 1824.44C1500.37 1813.8 1552.37 1759.04 1572.52 1736.34C1579.83 1728.41 1585.17 1723.65 1586.77 1722.38C1588.02 1721.37 1581.87 1729.2 1583.58 1727.81C1584.15 1727.3 1591.17 1720.61 1596.16 1716.13C1601.31 1711.49 1602.92 1709.67 1603.53 1709.37C1603.88 1709.21 1603.61 1710.01 1603.04 1711.07C1602.51 1712.12 1601.52 1713.55 1601.9 1713.54C1602.04 1713.52 1603.15 1712.61 1604.15 1711.64C1605.18 1710.64 1606.05 1709.66 1606.84 1708.54C1608.36 1706.45 1610.32 1702.42 1609.79 1701.5C1608.09 1706.29 1603.75 1710.8 1604.72 1707.03C1604.8 1706.62 1607.18 1705.1 1607.45 1704.18C1608.53 1700.15 1605.92 1704.02 1603.95 1706.52C1602.93 1707.82 1601.79 1709.25 1598.91 1712C1596.14 1714.66 1592.07 1718.32 1590.39 1719.88C1604.74 1705.37 1601.81 1708.24 1607.98 1698.02C1620.68 1675.73 1633.57 1657.12 1647.95 1637.43L1636.99 1655.43C1637.39 1654.33 1637.76 1653.29 1638.15 1652.21C1641.61 1645.69 1640.07 1651.06 1638.62 1656.13L1649.32 1638.56C1646.82 1642.15 1645.63 1644.24 1645.18 1645.28C1644.83 1646.23 1645.55 1645.68 1648.97 1641.74C1649.1 1641.58 1649.22 1641.45 1649.34 1641.31C1649.49 1641.14 1649.62 1640.98 1649.74 1640.84C1650.04 1640.5 1650.23 1640.29 1650.72 1639.71L1640.28 1656.85C1654.35 1628.33 1641.01 1649.07 1641.23 1648.02C1643 1639.5 1661.55 1615.86 1655.74 1613.34C1660.95 1602.87 1660.6 1605.78 1665.34 1592.53C1664.78 1593.67 1664.43 1594.45 1664.24 1594.77C1664.19 1594.4 1664.28 1593.6 1664.67 1592.24C1663.96 1593.35 1663.26 1594.42 1662.55 1595.52C1662.79 1594.3 1663.11 1593.06 1663.5 1591.73C1661.81 1595 1661.94 1594.69 1662.09 1593.88C1662.31 1592.97 1662.82 1591.26 1663.44 1589.21C1664.68 1585.13 1666.34 1580 1667.94 1575.34C1671.15 1565.9 1674.23 1558.39 1674.42 1559.8C1675.51 1567.97 1669.89 1586.06 1669.71 1587C1669.61 1587.83 1670.35 1589.29 1670.75 1591.81C1670.96 1592.99 1671.07 1594.51 1671.06 1595.74C1671.04 1596.4 1671 1596.95 1671 1597.17C1671.02 1597.34 1670.97 1597.3 1671.75 1595.29C1669.71 1599.67 1666.87 1604.8 1662.92 1610.85C1662.58 1617.82 1668.5 1605.08 1672.93 1595.8C1672.09 1598.04 1672.36 1597.78 1672.53 1597.53C1672.72 1597.24 1672.99 1596.71 1673.21 1596.52C1673.43 1596.3 1673.61 1596.45 1673.73 1596.98C1673.8 1597.23 1673.86 1597.57 1673.94 1597.86C1674.03 1598.15 1674.11 1598.46 1674.44 1598.12C1675.33 1599.43 1687.42 1519.58 1685.62 1510.66C1685.46 1509.41 1680.61 1514.7 1684.23 1497.09C1685.95 1488.61 1684.45 1509.16 1685.75 1505.38C1686.6 1502.95 1687.84 1493.14 1688.95 1480.12L1689.8 1496.74C1685.04 1470.1 1676.62 1428.04 1668.99 1390.46L1671.46 1399.9C1659.5 1367.08 1648.73 1337.84 1644.65 1326.56C1644.63 1326.51 1644.61 1326.45 1644.6 1326.4L1644.93 1327.36C1644.35 1325.59 1645.87 1325.75 1645.16 1323.9C1642.94 1318.03 1632.92 1297.35 1629.63 1286.61C1635.21 1309.31 1619.24 1267.06 1615.52 1256.19C1613.06 1249.01 1612.2 1244.98 1611.85 1242.12L1615.48 1250.46C1614.53 1246.84 1614.68 1245.07 1612.97 1241.16C1606.56 1226.54 1595.71 1208.81 1586.32 1192.05C1585.5 1190.42 1583.3 1185.46 1582.7 1183.73C1577.54 1171.11 1572.33 1158.02 1571.29 1149.27C1569.14 1150.88 1566.49 1143.95 1564.43 1137.58C1562.12 1130.08 1556.16 1115.96 1551.12 1108.61C1543.9 1097.9 1529.34 1084.73 1537.87 1100.42C1533.46 1094.12 1528.28 1087.25 1523.9 1081.82L1527.12 1085.72C1515.92 1073.68 1504.57 1061.87 1494.27 1050.75C1491.66 1047.92 1496.49 1050.71 1492 1045.94C1491.57 1045.51 1489.76 1046.04 1485.87 1041.97C1482.3 1038.23 1479.33 1035.08 1476.89 1032.43L1482.19 1037.81C1466.8 1025.26 1477.57 1030.58 1473.84 1026.33C1471.31 1023.63 1469.14 1021.69 1467.45 1020.36C1474.25 1025.07 1480.33 1029.67 1485.54 1034.15L1480.6 1029.14C1491.9 1041.31 1501.63 1051.74 1505.15 1055.62C1504.15 1051.61 1493.39 1040 1481.89 1028L1486.7 1032.89C1478.32 1025.95 1467.41 1019.2 1462.06 1014.93C1461.69 1014.63 1464.24 1013.87 1463.85 1013.58C1463.84 1013.58 1463.84 1013.57 1463.83 1013.57C1460.76 1011.21 1427.78 989.917 1432.93 996.344C1434.26 998.196 1450.59 1008.97 1464.7 1018.46C1460.59 1016.16 1462.12 1020.07 1461.38 1019.68C1455 1016.21 1440.39 1005.43 1428.67 996.314C1426.07 994.201 1423.93 992.546 1422.44 991.497C1421.09 990.547 1420.38 991.876 1420.16 991.737C1415.05 988.199 1419.27 985.71 1411.91 986.682C1408.88 982.357 1412.3 983.578 1417.12 986.344C1421.89 989.048 1428.59 994.047 1430.34 993.957C1430.69 993.987 1430.84 993.834 1430.76 993.462C1430.75 993.443 1430.74 993.421 1430.73 993.398C1430.44 992.154 1422.17 985.63 1413 980.927C1404.24 976.228 1389.91 971.812 1374.96 968.154C1367.28 966.61 1358.73 966.576 1358.74 967.924C1358.54 967.441 1357.64 966.734 1355.56 965.822C1351.34 963.524 1327.14 962.658 1322.59 963.641C1321.85 963.79 1322.12 967.882 1321.22 967.917C1319.24 967.753 1287.52 965.568 1275.44 969.36C1282 969.351 1288.53 969.449 1294.98 969.668C1255.95 972.462 1262.06 973.806 1275.21 973.598C1275.86 973.55 1276.52 973.648 1277.15 973.609C1287.3 973.593 1300.03 973.838 1300.24 974.169C1300.74 974.824 1276.91 976.676 1260.54 978.16C1250.08 979.016 1242.93 979.29 1247.6 977.123C1248.45 976.775 1254.61 976.147 1260.24 975.574C1267.42 974.84 1273.38 974.134 1264.66 973.5C1263.95 973.458 1262.35 973.589 1260.04 973.854C1253.29 974.599 1242.11 976.549 1241.38 976.451C1237.31 975.909 1249.3 972.707 1259.61 970.069C1267.29 968.075 1273.84 966.319 1271.45 965.328C1267.73 966.639 1263.69 967.498 1259.39 968.191C1251.6 969.448 1243.16 970.138 1235.79 971.762C1234.73 972.012 1233.19 972.47 1233.24 972.715L1237.15 971.909C1233.95 973.392 1233.16 974.727 1232.52 974.903C1219.92 978.225 1226.63 974.538 1222.41 975.496C1219.99 976.148 1196.87 985.072 1200.34 977.999C1163.78 986.667 1164.32 988.439 1171.22 987.382C1178.57 986.207 1202.2 982.677 1228.13 976.925C1212.16 982.908 1182.59 986.479 1173.35 988.977C1169.77 989.907 1172.22 991.518 1166.53 993.198C1161.53 994.691 1150.21 997.162 1136.9 1001.89C1121.41 1006.76 1096.57 1020.8 1081.78 1027.53C1094.62 1020.16 1089.83 1020.1 1079.62 1025.4C1068.94 1030.71 1079.32 1029.11 1077.35 1030.42C1077.01 1030.64 1075.4 1031.42 1072.79 1032.59C1063.04 1037.15 1029.34 1050.27 1024.93 1052.28C1039.57 1045.77 1046.46 1041.92 1044.76 1041.83C1043.21 1041.71 1033.87 1044.89 1021.33 1049.85C1024.76 1047.75 1028.17 1045.66 1031.72 1043.51C1027 1045.74 1020.8 1048.11 1014.07 1050.55C995.567 1057.72 972.321 1062.61 966.551 1064.81C965.058 1065.38 971.078 1065.74 970.255 1066.05C965.305 1067.87 954.873 1070.11 947.109 1071.9C940.464 1073.45 934.724 1074.81 934.235 1075.24C933.343 1076.04 945.302 1074.39 941.253 1076.32C940.379 1076.71 928.817 1077.34 916.535 1081.17C911.976 1082.57 915.202 1083.59 914.06 1083.99C904.355 1087.21 909.504 1083.1 891.212 1087.48C886.06 1088.67 881.571 1090.03 876.936 1091.39C869.626 1093.53 861.798 1095.73 850.357 1096.68C866.459 1095.47 874.467 1094.58 877.5 1094.47C879.427 1094.38 879.246 1094.58 877.594 1094.98C872.174 1096.38 849.661 1099.77 834.862 1101.86C830.69 1102.36 834.751 1105.66 809.236 1105.74C862.399 1095.78 793.732 1104.48 779.665 1103.35C778.903 1103.32 778.61 1101.24 771.834 1101.1C771.264 1101.09 772.059 1102.56 765.785 1102.5C707.732 1100.65 744.952 1100.84 734.106 1098.86C729.461 1098 702.906 1097.65 696.126 1096.99C694.521 1096.84 695.395 1095.45 689.268 1094.91C686.73 1094.68 684.307 1094.55 681.888 1094.46C672.728 1094.04 664.943 1093.96 658.965 1093.22C658.085 1093.09 658.203 1090.88 643.74 1089.39C639.677 1088.96 635.08 1089.03 640.663 1090.61C650.501 1093.34 665.291 1095.12 681.722 1096.33C694.249 1097.21 707.056 1098.15 716.938 1100.05C731.995 1102.97 697.227 1100.35 681.501 1098.82C676.508 1098.36 673.02 1097.95 672.301 1097.87C671.027 1097.74 684.134 1098.06 670.974 1096.33C659.822 1094.86 639.913 1095.88 624.757 1092.28C623.581 1092.03 611.988 1086.5 612.609 1086.41C613.098 1086.39 631.919 1089 629.37 1087.54C629.04 1087.39 617.183 1085.31 615.769 1084.3C614.029 1083.08 610.456 1073.65 608.027 1072.97C601.725 1071.23 605.566 1073.96 601.44 1073.03C592.609 1071.1 562.779 1062.26 561.181 1064.88C566.177 1066.15 571.144 1067.39 576.132 1068.62C548.213 1062.98 559.734 1066.68 555.725 1066.39C551.504 1066.03 552.996 1064.04 544.963 1061.73L548.068 1062.33C547.421 1062.19 546.892 1062.07 546.282 1061.94C543.875 1061.73 502.71 1053.34 502.875 1054.18C526.599 1058.11 517.163 1059.02 518.271 1059.38C522.276 1060.49 527.718 1059.83 533.089 1060.96C540.484 1062.51 544.768 1063.46 547.752 1064.22L544.55 1063.6C548.942 1064.99 547.138 1065.15 544.227 1065.06L547.505 1065.69C542.982 1065.69 536.888 1065.3 541.027 1066.45C542.597 1066.87 544.692 1066.97 547.272 1067.09L543.922 1066.44C546.197 1066.61 548.192 1066.66 548.758 1066.84C552.798 1068.01 552.436 1069.99 555.193 1070.44C561.645 1071.48 554.745 1067.03 555.351 1067.01C561.34 1066.55 582.904 1073.38 568.587 1073.52C576.582 1076.38 578.306 1072.86 584.553 1075.69C597.045 1081.3 577.6 1076.57 572.281 1075.92C560.021 1074.47 553.586 1072.87 543.067 1070.3L546.618 1070.99C539.744 1069.65 532.837 1068.21 522.37 1066.14C512.19 1064.14 499.388 1062.86 494.265 1061.57C491.47 1060.9 471.589 1051 457.155 1049.26C455.53 1049.45 454.266 1050.14 453.512 1051.5C442.981 1045.81 427.848 1030.77 417.478 1024.85C408.135 1019.6 409.419 1024.33 408.475 1023.93C406.994 1023.29 396.907 1016.71 393.497 1015.13C390.341 1013.67 390.342 1014.7 387.669 1013.75C386.809 1013.44 385.688 1012.93 384.154 1012.11C367.547 1003.18 369.685 1000.29 368.168 999.064C350.188 984.071 355.959 993.712 351.416 991.138C346.652 989.615 292.18 944.232 282.6 935.903C287.204 939.138 291.878 942.379 296.644 945.619C291.863 939.378 285.102 935.348 282.902 932.421C282.134 931.409 281.924 930.55 282.52 929.794C277.031 933.138 263.867 915.353 259.057 910.676C257.16 908.887 256.586 909.774 254.253 907.492C247.333 900.784 235.725 887.739 228.764 880.127C225.988 877.118 223.851 874.799 222.599 873.596C213.079 864.322 217.272 871.304 226.097 882.681C234.829 894.379 250.564 912.434 252.981 914.857C248.198 910.187 232.684 894.373 223.386 885.278C213.977 875.982 208.884 871.576 217.55 883.369C218.455 884.577 219.866 885.898 221.419 887.162C224.514 889.589 228.384 891.858 229.617 893.083C241.879 905.26 230.879 896.975 231.631 898.12C232.887 900.044 242.624 906.956 244.722 909.474C245.458 910.313 238.888 906.9 251.48 919.616C246.259 916.569 230.302 899.492 220.367 888.169C214.005 881.078 209.508 875.691 207.933 874.144C206.538 872.657 211.511 885.886 189.374 852.593C189.352 853.214 189.331 853.837 189.312 854.461C181.037 844.584 173.17 834.988 164.939 824.733C164.386 824.025 162.692 821.938 162.18 821.201C156.013 812.483 151.108 805.126 145.797 796.956C147.925 798.576 156.506 808.393 147.328 794.888C142.086 787.037 144.088 794.072 143.585 793.393C141.684 790.313 130.351 774.549 115.21 743.144C87.1626 677.554 89.9707 618.137 88.6906 593.476L88.7185 594.492C88.719 594.47 88.7177 594.397 88.7149 594.276C88.7146 594.231 88.7144 594.187 88.7139 594.134C88.7128 594.031 88.7111 593.907 88.7088 593.766C88.7075 593.582 88.7056 593.389 88.7028 593.169C88.5522 583.685 87.3832 558.031 87.4443 555.969C87.5124 546.889 88.7775 520.67 90.5281 502.418C91.0233 497.369 91.4277 493.348 91.5806 491.279C91.9887 485.831 89.9129 490.9 90.4879 486.038C91.0434 481.463 92.0356 486.318 92.2425 484.963C93.2118 479.488 94.8737 454.942 101.626 426.147C108.18 397.214 120.679 369.482 125.975 360.283C118.085 370.509 99.4571 440.714 102.644 439.273C102.746 439.023 107.621 422.641 108.159 419.082C110.746 413.741 113.284 393.278 118.196 383.605C118.775 382.599 118.774 387.375 126.643 370.466C128.715 366.099 132.408 356.133 138.18 346.044C139.714 343.436 141.413 340.749 143.316 338.069C147.448 331.013 158.518 302.149 185.157 270.207C217.971 235.759 234.171 226.685 237.176 221.232C237.661 220.646 238.02 220.19 238.24 219.864C238.266 219.81 237.745 220.271 236.939 221.012C235.125 222.44 229.834 226.471 233.984 221.695C234.668 220.89 235.212 220.283 235.662 219.824C243.552 211.922 237.656 221.37 251.466 209.486C254.119 206.226 293.427 177.448 294.578 176.973C305.398 167.271 270.267 189.899 270.531 189.823C271.412 188.103 300.083 168.32 301.369 167.914C302.555 167.304 280.52 184.69 308.275 165.681C304.841 167.456 301.386 169.278 297.974 171.104C310.982 162.014 313.323 162.887 316.765 160.885C317.736 160.328 318.488 159.888 319.696 159.142C321.097 158.325 325.235 155.908 326.74 155.304C337.635 150.763 347.764 144.787 365.283 141.922C370.336 141.108 362.834 144.748 363.498 144.664C369.551 143.793 375.676 138.35 385.18 137.787C385.944 137.807 365.989 145.331 401.639 134.41C399.08 134.922 396.531 135.449 394.002 135.985C398.471 133.708 436.36 123.66 443.225 123.301C443.238 123.299 443.252 123.298 443.266 123.296C458.514 121.381 445.49 124.712 460.838 122.573C450.37 121.179 498.367 117.202 495.745 119.714C502.545 116.822 543.056 120.958 559.589 123.686C570.522 125.127 591.596 127.247 594.786 127.762C598.683 128.417 597.403 129.634 604.465 130.851C604.578 130.87 604.749 130.893 604.976 130.921C609.17 131.378 630.408 133.43 648.79 137.867C652.585 138.768 660.327 142.33 653.141 141.641C640.923 140.45 618.246 135.399 618.37 136.8C618.626 138.188 649.423 141.877 657.781 143.661C666.647 145.408 672.405 146.776 676.392 147.887C686.337 150.847 678.716 149.799 676.059 149.659C675.445 149.622 675.069 149.624 675.217 149.717C675.392 149.823 675.652 149.943 675.98 150.075C680.694 151.801 699.654 157.043 700.392 157.494C703.974 158.969 688.649 155.294 688.232 155.939C687.879 156.545 707.826 164.051 703.111 162.939C696.569 161.104 677.788 155.026 676.438 154.936C675.961 154.856 675.518 154.784 675.105 154.722C667.775 153.683 670.047 154.872 674.758 156.565C678.918 158.104 684.87 160.229 687.48 161.372C689.194 162.104 681.993 160.761 683.451 161.223C705.51 168.43 688.891 159.754 703.579 164.412C716.523 168.847 699.451 164.59 699.913 164.878C700.579 165.068 716.02 170.224 718.225 171.571C719.525 171.664 678.391 161.817 679.686 163.922C692.949 166.746 705.814 170.449 718.423 174.739C719.006 176.3 701.166 169.225 699.144 168.902C695.237 168.022 705.719 171.95 705.12 172.256C704.798 172.407 692.064 169.603 703.194 173.422C706.989 174.773 715.4 176.348 728.699 182.553C680.353 166.731 713.419 179.202 714.663 180.038C715.876 180.952 692.749 174.294 720.432 183.596C720.73 186.54 719.59 184.115 711.599 181.893C701.73 179.452 724 186.796 688.6 175.844C690.447 177.329 718.729 186.122 720.077 187.015C721.318 187.549 714.927 185.927 717.065 186.905C742.173 198.729 724.748 191.112 731.669 195.36C731.955 195.535 737.513 197.93 741.222 199.721C744.784 201.492 746.679 202.587 741.043 200.14C740.15 199.778 739.048 199.329 737.72 198.793C704.293 185.697 689.729 181.173 683.042 183.402C703.883 189.651 728.357 197.138 740.347 201.769C742.852 202.712 744.769 203.612 746.004 204.257C756.61 210.277 745.316 204.564 746.515 205.537C747.008 205.706 755.833 211.261 755.845 211.502C757.765 214.592 750.732 208.602 739.579 203.566C725.455 197.244 705.951 189.968 696.766 187.744C701.074 189.43 705.34 191.194 709.57 193.025C703.64 191.115 697.665 189.351 691.655 187.762C719.875 196.881 692.572 188.057 684.846 188.861C683.129 188.988 702.02 192.692 680.354 188.966C695.966 193.08 690.822 192.258 705.095 195.774C704.585 196.347 683.389 190.866 668.633 189.074C665.339 188.64 662.171 188.309 659.748 188.068C663.094 188.617 666.09 189.124 668.537 189.583C700.435 196.828 682.478 189.087 716.946 201.66C724.312 202.971 706.268 197.064 707.776 197.439C712.98 198.422 724.009 202.967 738.179 206.84C738.938 207.038 739.722 207.254 740.505 207.475C742.838 208.279 734.152 202.354 747.725 209.603C749.284 210.365 756.834 216.849 756.612 216.894C755.165 216.585 747.294 211.003 746.734 211.193C746.316 211.134 755.354 216.912 755.27 217.129C755.001 217.996 747.708 212.338 748.633 213.373C749.742 214.303 757.719 220.872 760.075 223.786C762.255 227.157 760.971 222.935 740.108 211.094C755.601 218.725 757.932 222.178 755.512 219.727C753.031 217.611 744.807 211.798 737.274 208.958C734.749 207.959 732.319 207.047 730.214 206.292C726.119 204.836 724.859 204.98 718.959 203.11C711.36 200.704 702.555 197.701 698.57 196.691C694.29 195.728 717.973 203.469 683.228 193.888C696.957 198.161 719.54 204.438 736.187 211.5C739.998 213.084 743.48 215.1 746.31 217.089C763.864 231.494 748.817 219.12 735.165 213.891C727.222 210.842 719.606 208.284 717.605 207.664C715.974 207.154 721.101 209.795 720.005 209.468C718.329 208.543 685.068 198.268 681.561 198.696C678.103 198.576 693.82 201.582 694.64 202.663C695.154 202.684 654.911 195.489 676.495 200.086C691.352 202.969 719.518 210.102 723.253 213.828C704.656 207.296 685.493 202.053 666.732 199.164C663.911 198.744 660.734 198.347 657.557 197.975C660.698 198.582 663.839 199.212 666.601 199.858C675.338 201.882 684.118 204.431 692.841 207.335C683.545 204.999 674.76 203.049 666.264 201.645C652.561 199.551 637.221 198 621.776 197.502C681.372 205.671 602.044 197.833 601.226 198.694C600.9 198.83 624.19 202.687 627.929 203.459C621.098 203.188 609.714 202.597 598.92 202.365C575.09 201.674 554.01 201.141 579.577 204.699C572.579 203.613 555.843 204.274 556.091 204.439C557.798 205.835 594.848 207.124 588.762 207.917C581.575 208.903 571.863 206.494 561.37 206.045C508.883 204.96 523.613 210.808 477.875 216.275C478.814 216.366 479.744 216.462 480.69 216.56C474.583 217.625 468.422 218.916 462.193 220.403C435.958 227.139 401.549 241.872 372.431 255.988L379.528 252.12C368.449 259.969 356.061 269.272 345.322 278.11C339.937 283.975 329.101 294.584 324.054 302.047C305.396 324.383 284.379 343.711 282.729 347.975C281.857 349.225 281.082 350.385 280.378 351.463C279.364 352.992 276.5 357.048 273.551 362.227C270.613 367.314 267.32 373.845 266.785 374.728C265.794 376.372 267.364 372.295 268.49 369.22C269.616 366.147 270.391 363.807 268.242 367.355C267.789 367.744 258.966 387.769 252.652 402.442C250.362 407.966 249.198 411.666 250.061 410.978C250.819 409.327 252.034 406.235 253.435 402.827C256.362 395.975 259.253 388.726 260.194 387.153C263.067 382.323 260.628 389.214 254.489 403.347C247.801 418.802 240.116 439.965 237.52 458.98C234.59 478.194 234.337 499.397 234.625 501.931C235.286 498.773 235.96 495.685 236.65 492.681C236.231 498.431 235.884 504.401 235.577 510.527C235.449 513.149 235.348 515.984 235.27 518.912ZM404.099 128.166C410.052 125.068 426.828 121.83 437.764 119.585C439.209 119.275 440.745 118.92 442.34 118.546C455.718 115.193 474.267 110.101 465.43 115.38C457.631 116.281 449.942 117.423 442.38 118.749C428.258 121.298 416.036 124.611 404.099 128.166ZM158.146 300.725C167.129 287.553 163.252 300.147 156.351 309.779C155.693 310.735 147.185 317.749 158.146 300.725ZM263.815 195.008C263.401 195.313 253.674 202.84 253.256 203.189C243.685 209.078 273.123 186.374 263.815 195.008ZM177.599 834.891C168.838 824.264 172.087 834.569 178.702 840.206C179.128 840.571 178.172 835.588 177.599 834.891ZM171.546 827.174C170.886 825.429 169.851 823.667 168.48 821.801C167.959 821.135 166.363 819.169 165.881 818.474C159.053 807.968 148.184 799.997 156.991 812.22C157.586 813.031 160.662 816.246 164.069 819.809C164.566 820.525 166.21 822.55 166.746 823.236C169.465 825.655 171.599 827.367 171.546 827.174ZM196.305 253.64C195.931 255.073 189.634 260.793 182.993 268.482C180.935 270.812 179.058 273.005 177.696 274.634C177.416 274.325 179.499 271.472 182.426 268.03C187.596 261.828 193.559 256.339 196.305 253.64ZM90.2613 595.312C90.3124 595.346 90.3594 595.222 90.4038 594.99C90.4265 594.891 90.4439 594.602 90.4639 594.386C90.4737 594.271 90.4836 594.156 90.4937 594.046C90.4962 594.018 90.4988 593.991 90.5013 593.964C90.5027 593.888 90.5041 593.813 90.5058 593.747C90.5091 593.614 90.5133 593.509 90.5183 593.438L90.5455 594.429C91.0774 586.803 91.4022 550.891 90.4508 547.978C90.6783 554.601 89.4729 587.148 90.0697 594.445L90.0424 593.448C90.0455 593.511 90.0495 593.6 90.0541 593.712C90.0584 593.808 90.0657 594.014 90.068 594.018C90.075 594.114 90.0826 594.215 90.0906 594.316C90.1067 594.519 90.1248 594.722 90.1441 594.903C90.1792 595.147 90.2181 595.28 90.2613 595.312ZM112.777 729.287C111.973 727.433 105.307 707.382 104.847 708.349C106.059 718.044 114.761 736.686 112.777 729.287ZM263.747 931.249C264.502 931.572 259.981 919.689 276.697 939.548C277.208 940.15 277.736 940.78 278.283 941.436C279.44 942.827 277.849 941.998 275.722 940.668C272.944 938.932 269.24 936.294 269.791 936.97C271.606 939.153 273.121 940.805 274.464 942.114C274.644 942.29 274.821 942.459 274.993 942.621C274.807 942.465 274.62 942.308 274.432 942.15C264.418 933.781 253.975 923.972 253.247 922.72C249.669 916.806 263.395 931.153 263.747 931.249ZM367.618 1007.44C369.965 1007.98 379.838 1014.54 385.011 1018.16C386.122 1018.95 386.976 1019.59 387.518 1020.02C388.022 1020.43 384.244 1021.27 390.541 1024.99C395.713 1028.04 389.426 1020.82 399.316 1027.52C409.712 1034.47 394.482 1027.4 395.417 1028.13C396.203 1028.92 414.106 1038.32 413.041 1039.48C411.647 1040.19 393.667 1028.23 389.916 1026.1C384.711 1023.2 389.572 1028.56 381.909 1023.31C381.777 1023.22 381.642 1023.13 381.504 1023.04C375.988 1019.24 380.956 1018.23 379.847 1017.32C378.998 1016.68 357.848 1005.41 367.643 1007.47C367.635 1007.46 367.627 1007.45 367.618 1007.44ZM277.726 944.89C276.922 944.32 276.024 943.591 274.993 942.621C275.913 943.393 276.828 944.148 277.726 944.89ZM368.373 140.328C361.786 141.822 380.256 134.587 387.939 133.241C388.236 133.843 369.372 140.034 368.373 140.328ZM288.747 950.978C303.448 964.819 291.178 956.005 277.726 944.89C282.281 948.12 283.918 946.343 288.747 950.978ZM108.159 419.082C107.7 419.973 107.224 420.496 106.681 420.447C107.917 418.101 108.29 417.96 108.159 419.082ZM97.3927 469.773C96.9389 486.491 101.232 452.797 100.34 452.553C99.7932 452.645 97.3296 469.212 97.3927 469.773ZM188.611 848.723C187.895 847.543 205.969 860.472 182.785 839.018C192.857 852.446 181.197 839.152 180.989 839.677C180.264 841.164 199.238 862.053 203.063 867.392C208.209 869.447 190.978 852.674 188.634 848.751C188.626 848.742 188.618 848.732 188.611 848.723ZM586.452 1092.12C582.365 1093.02 570.629 1090.01 562.6 1088.14C566.67 1087.31 578.433 1090.39 586.452 1092.12ZM1451.59 1861.3C1488.14 1822.95 1496.9 1822.14 1461.1 1854.82C1460.31 1855.53 1449.75 1863.92 1451.59 1861.3ZM1671.17 1531.68C1674.44 1527.18 1673.46 1543.19 1671.19 1553.21C1670.68 1555.5 1666.9 1563.52 1667.4 1553.83C1670.79 1554.62 1673.68 1539.61 1671.17 1531.68ZM298.493 957.027C304.08 959.393 317.617 972.245 325.479 978.479C319.629 976.108 304.436 962.983 298.493 957.027ZM1573.68 1739.62C1574.07 1739.22 1574.41 1738.83 1574.73 1738.44C1579.02 1733.41 1580.7 1729.2 1579.72 1729.94C1577.72 1731.44 1575.08 1734.33 1573.14 1736.93C1571.42 1739.54 1570.7 1741.76 1573.68 1739.62ZM255.696 917.634C255.848 916.382 274.273 932.366 273.616 935.367C270.056 931.945 255.639 918.653 255.696 917.634ZM571.493 1088.08C568.169 1086.76 586.191 1089.45 591.506 1091.11C590.855 1092.3 573.659 1088.96 571.493 1088.08ZM1621.93 1678.95C1625.22 1673.96 1633.41 1661.84 1633.6 1659.96C1633.72 1657.54 1622.06 1675.74 1621.93 1678.95ZM881.134 1867.37C880.703 1866.9 898.46 1874.26 905.717 1878.36C919.53 1886.34 881.627 1868.02 881.134 1867.37ZM1539.28 1778.11C1526.97 1787.87 1540.43 1776.82 1538.38 1775.73C1531.11 1783.25 1512.73 1802.02 1526.82 1790.62C1529.56 1788.4 1535.79 1781.54 1539.28 1778.11ZM1549.72 1768.25C1550.35 1766.53 1556.38 1756.78 1549.87 1763.92C1546.89 1767.21 1543.68 1774.27 1549.72 1768.25ZM985.408 1912.4C995.733 1917.06 954.789 1903.14 942.499 1897.15C940.765 1896.39 939.575 1895.84 939.399 1895.73C938.646 1895.29 938.156 1894.96 937.891 1894.74C935.788 1894.32 925.318 1889.6 924.537 1888.11C927.67 1889.7 936.214 1893.45 937.089 1893.93C937.486 1894.15 937.783 1894.33 937.977 1894.46C938.681 1894.59 940.516 1895.28 942.938 1896.21C955.343 1901.35 983.337 1911.72 985.408 1912.4ZM1087.26 1943.86C1072.38 1941.92 1070.39 1937.39 1071.84 1937.75C1088.51 1941.14 1077.1 1940.54 1077.58 1940.81C1078.72 1941.41 1090.1 1943.27 1087.22 1943.85C1087.23 1943.85 1087.25 1943.85 1087.26 1943.86ZM1005.36 1918.99C1004.67 1918.85 992.179 1915.04 991.739 1914.82C981.858 1910.72 1017.24 1921.48 1005.36 1918.99ZM454.476 1052.71C454.823 1052.88 455.147 1053.05 455.449 1053.21C460.194 1055.49 461.318 1056.21 460.899 1056.41C460.452 1056.59 458.178 1056.07 454.758 1054.81C452.376 1054.04 449.324 1052.75 446.847 1051.28C446.265 1050.91 445.356 1048 454.476 1052.71ZM1554.61 1762.35C1555.49 1761.67 1566.85 1750.28 1576.23 1739.86C1589.87 1725.17 1599.87 1716.66 1597.33 1716.89C1596.56 1717.92 1586.59 1726.02 1574.89 1738.59C1562.68 1751.95 1547.77 1767.58 1554.61 1762.35ZM1667.27 1433.81C1669.26 1443.92 1664.14 1433.44 1664.15 1427.86C1664.16 1425.79 1666.77 1431.27 1667.27 1433.81ZM234.977 892.554C226.293 885.432 231.551 883.554 236.871 891.872C237.081 892.199 235.322 892.837 234.977 892.554ZM1676.54 1494.56C1676.67 1487.65 1677.13 1482.25 1677.66 1479.23L1678.66 1498.78C1677.9 1491.15 1679.8 1490.97 1682.46 1498.08L1681.51 1479.54C1682.21 1485.23 1681.94 1497.14 1679.47 1513.32C1679.18 1511.87 1678.87 1510.5 1678.58 1509.04C1672.83 1559.91 1677.77 1512.55 1678.11 1499.88C1678.27 1495.04 1676.43 1499.01 1676.53 1494.59C1676.53 1494.58 1676.54 1494.57 1676.54 1494.56ZM1658.03 1392.04C1655.08 1372.31 1659.71 1384.6 1665.53 1401.93L1662.83 1391.58C1665.2 1404.96 1667.83 1421.19 1669.76 1428.96C1663.5 1411.65 1659.28 1388.4 1662.77 1420.43C1659.44 1404.72 1658.01 1396.56 1657.56 1392.55L1660.46 1403.67C1658.46 1396.16 1662.34 1403.34 1662.06 1402.13C1661.54 1399.96 1658.25 1393.5 1658.03 1392.04ZM1674.56 1469.13C1675.14 1471.03 1676.74 1485.88 1678.02 1491.09C1674.31 1484.15 1670.68 1456.5 1674.56 1469.13ZM1184.15 1952.53C1183.14 1953.81 1180.6 1955.02 1170.67 1954.72C1173.77 1954.08 1180.06 1953.34 1184.15 1952.53ZM418.071 130.479C426.725 128.176 446.204 125.029 440.044 125.016C439.061 124.887 417.724 129.74 418.071 130.479ZM1645.05 1651.68C1645.88 1650.17 1662.78 1608.99 1655.28 1622.5C1653.02 1626.57 1638.01 1664.21 1645.05 1651.68ZM1513.97 1806.1C1516.57 1803.48 1526.74 1792.63 1526.7 1792.13C1526.51 1790.51 1514.29 1804.08 1513.97 1806.1ZM464.753 123.35C465.903 123.052 494.099 121.14 491.006 120.956C484.941 119.914 460.489 123.294 464.753 123.35ZM502.335 1063.74C504.644 1064.25 507.219 1066.89 507.994 1067.09C510.002 1067.88 550.773 1075.45 534.754 1074.78C531.813 1074.91 475.193 1061.5 458.788 1053.16C456.891 1050.92 466.205 1054.83 474.054 1057.61C482.194 1060.58 490.357 1063.37 493.647 1064.1C494.792 1064.34 496.119 1062.4 502.314 1063.75C502.321 1063.75 502.328 1063.75 502.335 1063.74ZM1131.48 1952.29C1131.33 1952.38 1130.82 1952.43 1130.03 1952.44C1122.58 1953.08 1092.5 1947.58 1093.1 1946.11C1105.46 1949.05 1117.29 1950.92 1130.07 1952.15C1130.54 1952.2 1131.02 1952.24 1131.48 1952.29ZM1151.37 1954.11C1159.53 1955.36 1140.19 1954.59 1134.3 1953.48C1134.41 1952.81 1150.22 1954.02 1151.37 1954.11ZM1574.75 1750.56C1577.38 1747.17 1566.87 1755.31 1568.57 1752.85C1569.66 1751.28 1576.74 1744.8 1578.2 1742.14C1578.64 1741.33 1570.66 1747.03 1568.79 1749.18C1566.14 1752.22 1569.96 1750.49 1567 1753.7C1557.08 1764.43 1547.24 1773.09 1537.61 1783.14C1536.74 1784.05 1544.3 1777.83 1536.84 1785.54C1535.69 1786.73 1527.6 1792.71 1518.76 1802.11C1502.4 1826.13 1484.03 1837.51 1459.59 1864.29C1460.81 1863.76 1480.99 1845.49 1482.15 1844.39C1504.24 1823.58 1542.5 1784.93 1563.74 1762.23C1569.18 1756.44 1565.75 1758.46 1568.06 1755.93C1569.88 1753.92 1569.17 1757.76 1574.75 1750.56ZM413.616 132.455C418.158 132.706 432.684 128.118 443.459 126.485C439.247 125.763 422.668 130.255 413.616 132.455ZM1327.56 1929.83C1329.18 1929.24 1339.56 1925.25 1340.47 1924.2C1340.96 1923.58 1337.04 1925.08 1333.62 1926.51C1330.13 1927.99 1327.58 1929.18 1327.56 1929.83ZM723.699 1102.13C724.128 1102.11 735.285 1103.11 735.718 1103.2C745.591 1105.93 712.152 1102.92 723.699 1102.13ZM999.925 1064.8C1006.48 1062.29 1012.69 1059.38 1017.15 1057.96C1018.87 1057.45 1020.26 1057.27 1021.3 1057.56C1020.33 1057.89 1019.06 1058.38 1017.58 1058.99C1010.44 1061.99 999.38 1066.21 999.925 1064.8ZM1303.38 973.39C1301.95 970.662 1322.25 971.947 1325.77 972.386C1324.48 973.435 1304.59 975.175 1303.38 973.39ZM1185.72 1957.85C1173.34 1958.4 1175.92 1960.8 1168 1959.7C1166.67 1959.45 1162.82 1954.29 1176.28 1956.03C1178.73 1956.27 1169.12 1958.05 1185.72 1957.85ZM1678.79 1520.54C1680.09 1524.25 1678.62 1535.29 1677.75 1542.63C1676.76 1540.85 1678.46 1525.91 1678.79 1520.54ZM515.623 122.781C523.607 124.065 557.176 126.687 548.919 124.981C547.956 124.603 520.781 122.787 515.623 122.781ZM335.743 977.407C348.677 984.684 324.287 966.198 315.966 961.391C319.299 964.068 334.82 976.975 335.743 977.407ZM1235.58 978.7C1235.75 978.638 1236.91 978.37 1238.58 977.986L1234.33 978.864C1234.26 978.877 1234.23 978.882 1234.24 978.88C1234.25 978.88 1234.32 978.868 1234.34 978.866C1234.38 978.859 1234.45 978.848 1234.54 978.834C1234.64 978.82 1234.75 978.802 1234.88 978.781C1234.97 978.768 1235.06 978.754 1235.16 978.739C1235.37 978.708 1235.62 978.671 1235.9 978.628C1236.18 978.586 1236.37 978.56 1236.64 978.521C1237.78 978.355 1238.77 978.222 1239.94 978.067C1240.91 977.942 1241.95 977.811 1242.7 977.726C1243.39 977.648 1243.89 977.599 1243.99 977.603C1250.5 977.967 1238.96 979.854 1234.58 980.262L1238.91 979.368C1233.52 980.393 1230.2 980.613 1235.58 978.7ZM913.386 1085.63C917.414 1083.5 936.702 1078.62 948.359 1076.35C952.478 1075.58 956.001 1075.08 957.944 1075.01C956.507 1075.98 953.108 1077.22 948.964 1078.51C935.675 1082.74 908.725 1088.45 913.386 1085.63ZM1238.77 1949.79C1229.06 1951.67 1220.07 1952.88 1211.61 1953.63C1213.11 1952.65 1237.47 1949.42 1238.77 1949.79ZM1275.21 973.598C1275.86 973.55 1276.52 973.648 1277.15 973.609C1276.49 973.609 1275.84 973.6 1275.21 973.598ZM1441.45 1877.03C1449.4 1873.5 1446.97 1872.59 1446.45 1872.79C1440.38 1875.16 1432.45 1881.04 1441.45 1877.03ZM425.075 131.757C427.571 132.055 435.605 129.977 444.269 128.443C448.078 127.771 451.811 127.187 454.869 126.872C453.604 126.6 449.244 127.002 444.137 127.766C437.012 128.845 429.237 130.687 425.075 131.757ZM1649.79 1356.16C1648.31 1345.12 1665.78 1386.11 1667.54 1395.41C1666.43 1396.52 1650.03 1357.76 1649.79 1356.16ZM302.249 946.788C302.442 944.956 286.215 933.191 288.932 936.562C290.573 938.698 301.995 947.898 302.249 946.788ZM1669.16 1407.53C1670.46 1411.53 1670.75 1421.38 1669.11 1418.19C1667.01 1414.11 1668.81 1406.5 1669.16 1407.53ZM1614.74 1711.67C1615.1 1711.42 1617.16 1707.31 1618.12 1703.92C1619.75 1699.97 1620.21 1697.92 1617.22 1701.91C1616.96 1702.27 1616.71 1702.62 1616.47 1702.96C1614.09 1705.9 1615.48 1707.25 1615.04 1708.01C1614.37 1709.81 1602.68 1720.17 1614.74 1711.67ZM1558.65 1137.92C1559.12 1138.57 1559.56 1139.26 1559.94 1139.88C1562.5 1144.07 1565.41 1151.82 1568.29 1158.48C1566.42 1156.19 1560.64 1144.13 1559.22 1140.25C1558.89 1139.33 1558.64 1138.44 1558.65 1137.92ZM366.758 994.666C365.11 993.755 309.342 952.297 339.937 977.347C341.75 979.141 371.987 1000.61 366.758 994.666ZM1185.72 1957.85C1187.29 1957.76 1189.1 1957.69 1191.2 1957.63C1189.11 1957.76 1187.3 1957.81 1185.72 1957.85ZM1331.95 1931.42C1331.04 1932.28 1333.19 1931.74 1336.59 1930.38C1339.93 1929.06 1344.56 1926.87 1346.57 1925.67C1347 1924.85 1343.01 1926.48 1339.21 1928.14C1335.36 1929.82 1332.05 1931.31 1331.95 1931.42ZM1570.16 1158.4C1572.75 1162.62 1575.51 1171.44 1577.86 1177.3C1576.42 1176.67 1569.91 1160.69 1570.16 1158.4ZM1340.12 967.366C1348.94 968.558 1358.47 969.578 1358.79 968.166C1358.91 968.417 1359.25 968.713 1359.81 969.05C1360.45 969.35 1368.28 970.082 1370.71 971.299C1377.94 974.959 1364.17 970.695 1345.74 968.944C1327.94 967.405 1315.24 965.282 1349.85 965.427C1346.65 966.014 1343.41 966.662 1340.12 967.366ZM863.254 1092.15C856.116 1091.6 836.468 1096.24 841.715 1096.27C845.485 1096.44 870.567 1092.85 863.254 1092.15ZM1112.25 1005.45C1111.04 1005.67 1097.19 1014.64 1096.83 1015.9C1106.99 1011.42 1119.16 1003.51 1112.25 1005.45ZM808.035 1096.02C803.467 1096.01 797.743 1099.02 798.278 1099.12C803.008 1100.03 815.838 1097.15 808.035 1096.02ZM1212.34 1960.16C1217.61 1960.06 1234.7 1955.78 1238.4 1953.75C1239.16 1953.86 1241.11 1953.83 1244.75 1953.54C1244.73 1953.54 1244.72 1953.54 1244.71 1953.54C1246.01 1953.45 1257.33 1951.42 1271.82 1948.65C1317.89 1940.77 1358.6 1931.62 1298.97 1941.78C1295.74 1942.28 1300.38 1942.61 1287.11 1944.82C1286.26 1944.96 1285.72 1944.09 1282.97 1944.56C1281.11 1944.88 1276.84 1945.61 1271.47 1946.6C1259.58 1948.8 1243.22 1951.86 1239.07 1953.14C1238.99 1952.98 1238.57 1952.89 1237.71 1952.89C1229.91 1953.12 1208.2 1960.4 1212.34 1960.16ZM1135.5 994.57C1135.15 994.632 1134.7 994.748 1134.18 994.911C1131.13 995.817 1125.81 998.681 1125.59 999.968C1127.68 999.37 1131.99 997.513 1134.68 996.193C1137.2 994.969 1138.34 994.1 1135.5 994.57ZM367.498 989.682C361.631 984.831 344.346 974.801 348.767 978.996C351.53 981.795 374.314 995.472 367.498 989.682ZM1038.71 1041.51C1080.04 1025.3 1048.46 1037.23 1053.97 1032.9C1049.04 1035.78 1043.73 1038.75 1038.71 1041.51ZM1046.68 1937.63C1052.97 1939.82 1044.87 1939.43 1038.14 1936.27C1036.02 1935.28 1043.17 1936.42 1046.68 1937.63ZM807.523 1810.91C810.251 1815.49 792.691 1797.22 800.395 1803.52C800.724 1803.83 807.28 1810.64 807.523 1810.91ZM964.514 1913.59C968.789 1913.93 971.25 1914.75 982.086 1918.63C965.845 1913.49 980.382 1919.62 964.514 1913.59ZM1358.74 967.924C1358.77 968.018 1358.81 968.088 1358.79 968.166C1358.74 968.079 1358.73 968.001 1358.74 967.924ZM764.349 1097.02C758.624 1095.13 743.067 1094.4 747.619 1096.43C748.03 1096.65 761.935 1098.3 764.349 1097.02ZM1238.4 1953.75C1237.73 1953.66 1238.03 1953.46 1239.07 1953.14C1239.14 1953.29 1238.89 1953.49 1238.4 1953.75ZM851.457 1090.9C851.174 1092.38 875.056 1089.18 875.924 1088.76C876.097 1088.7 876.262 1088.64 876.422 1088.58C881.012 1086.9 879.863 1086.66 876.149 1087.09C870.229 1087.8 857.565 1090.04 851.457 1090.9ZM248.994 887.551C248.084 886.77 251.172 894.482 255.435 897.121C258.704 899.141 252.324 890.415 248.994 887.551ZM928.219 1899.12C922.419 1896.45 914.131 1892.36 913 1890.86C916.899 1892.98 928.639 1898.66 928.219 1899.12ZM814.566 1818.89C821.004 1823.9 834.361 1836.71 842.77 1844.99C842.082 1845.95 820.245 1823.97 814.566 1818.89ZM1195.88 1961.45C1196.33 1961.56 1211.54 1960.27 1209.37 1959.36C1206.13 1958.22 1191.63 1961.27 1195.88 1961.45ZM273.799 914.656C280.671 919.665 268.612 904.029 260.613 899.35C256.399 896.999 272.593 913.92 273.799 914.656ZM716.554 1091.68C705.934 1091.73 731.938 1095.72 735.964 1094.17C730.942 1093.69 720.282 1091.68 716.554 1091.68ZM1084.93 1014.83C1076.79 1017.75 1071.05 1019.98 1067.72 1021.55C1061.96 1024.29 1065.27 1025.32 1069.34 1025.07C1072.14 1024.69 1075.21 1023.84 1076.88 1022.77C1077.87 1022.2 1085.89 1014.49 1084.93 1014.83ZM597.149 136.958C601.581 137.171 585.294 133.791 583.043 134.339C581.693 134.708 594.354 136.847 597.149 136.958ZM1467.45 1020.36C1466.54 1019.73 1465.62 1019.1 1464.7 1018.46C1465.43 1018.88 1466.35 1019.49 1467.45 1020.36ZM620.741 1072.73C642.802 1083.72 641.406 1077.84 643.39 1078.23C647.807 1079.01 657.9 1082.47 666.694 1083.27C656.617 1082.78 646.853 1082.1 637.175 1081.31C641.248 1082.23 661.79 1086.61 682.355 1089.19C697.45 1091.18 711.427 1092.75 712.094 1092.27C714.119 1090.82 694.012 1089.45 693.505 1089.24C692.708 1088.96 689.977 1084.14 688.189 1083.79C687.688 1083.69 685.792 1083.47 682.891 1083.14C666.322 1081.62 627.643 1075.04 620.741 1072.73ZM1018.76 1045.08C1023.65 1043.68 1025.72 1044.85 1027.75 1043.54C1028.46 1043.09 1027.89 1041.41 1030.33 1039.92C1026.39 1041.67 1022.56 1043.38 1018.76 1045.08ZM578.581 1070.91C572.492 1067.58 601.333 1074.25 602.248 1074.6C606.966 1076.96 583.481 1073.7 578.581 1070.91ZM839.154 1090.9C838.028 1091.05 813.022 1092.63 813.253 1093.65C820.089 1094.4 853.285 1090.84 839.154 1090.9ZM1033.56 1038.46C1041.12 1035.65 1056.71 1030.75 1053.84 1029.08C1053.83 1029.08 1053.82 1029.09 1053.8 1029.09C1047.26 1032.25 1040.07 1035.56 1033.56 1038.46ZM297.953 929.832C289.249 917.031 291.297 925.321 300.607 935.114C304.783 936.492 299.402 931.94 297.953 929.832ZM263.813 894.086C261.925 891.647 247.392 876.706 239.79 869.567C235.684 865.692 233.236 863.692 234.237 865.752C234.563 866.401 236.25 868.271 238.623 870.684C244.062 876.22 253.596 885.035 254.15 885.729C255.237 887.146 248.066 882.856 257.748 892.278C257.702 891.184 264.694 895.307 263.813 894.086ZM290.259 919.734C280.97 907.451 274.857 908.842 283.344 916.741C286.644 919.785 291.581 921.479 290.259 919.734ZM337.914 960.145C333.654 956.339 322.322 946.48 313.5 941.321C323.766 950.156 334.669 958.963 345.852 967.262C347.736 967.376 341.596 963.507 337.884 960.122C337.894 960.13 337.904 960.137 337.914 960.145ZM759.187 1763.79C763.307 1772.98 752.187 1752.23 751.991 1750.87C751.13 1747.83 757.297 1759.8 759.187 1763.79ZM682.593 175.551C685.625 176.601 687.41 178.009 694.268 179.373C687.694 176.787 681.012 174.38 674.186 172.218C668.456 172.782 679.295 174.36 682.593 175.551ZM706.647 188.522C705.696 188.29 710.058 192.162 698.504 186.953C691.119 183.346 730.649 194.863 740.78 200.756C741.37 201.058 741.868 201.337 742.259 201.578C741.766 201.384 741.242 201.178 740.69 200.966C731.557 197.34 714.332 190.545 706.647 188.522ZM768.716 234.312C769.11 234.614 757.389 223.618 755.825 222.621C748.664 215.883 768.17 231.196 768.716 234.312ZM726.587 206.167C733.935 209.429 717.173 203.438 712.185 201.628C711.857 200.973 725.475 205.602 726.587 206.167ZM803.455 1869.81C808.296 1877.59 816.536 1880.76 806.547 1871.25C806.067 1870.8 803.257 1869.47 803.455 1869.81ZM755.874 225.219C750.416 220.203 763.407 230.34 766.323 234.353C766.458 234.837 756.837 225.813 755.874 225.219ZM804.725 1877.36C811.891 1886.98 812.137 1880.88 811.259 1879.69C807.561 1874.74 792.039 1860.56 788.833 1857.69C810.701 1880.25 801.344 1872.83 804.725 1877.36ZM850.447 1914.76C858.554 1919.25 843.523 1909.26 835.181 1904.5C834.458 1904.11 832.668 1902.56 832.065 1902C830.7 1900.69 829.516 1899.64 828.712 1899.09C829.54 1899.95 830.568 1901.06 831.728 1902.33C832.348 1902.91 834.191 1904.5 834.935 1904.9C840.5 1908.52 848.245 1913.54 850.447 1914.76ZM908.999 1950.16C910.59 1951.04 913.125 1952.41 916.013 1953.89C922.835 1957.41 931.689 1961.55 933.894 1961.92C929.969 1960.26 922.112 1956.28 916.246 1953.39C912.761 1951.68 909.978 1950.34 908.999 1950.16ZM920.594 1958.49C928.801 1963.59 932.169 1961.73 921.799 1957.85C921.401 1957.7 920.302 1958.29 920.594 1958.49ZM970.043 1980.82C975.515 1984.24 983.204 1983.67 973.74 1980.13C970.922 1979.08 969.468 1980.45 970.043 1980.82ZM811.477 1891.54C817.025 1898.29 825.998 1905.21 813.548 1891.39C818.187 1896 822.794 1900.57 827.475 1905.2C811.707 1886.56 811.019 1889.67 806.38 1884.46C799.872 1877.15 801.907 1876.25 803.719 1877.23C799.644 1874.05 788.731 1862.67 777.872 1851.15L778.262 1851.54C771.527 1844.72 765.377 1837.98 760.438 1832.42C765.128 1838.13 770.93 1844.99 777.562 1852.25L777.153 1851.84C785.865 1861.91 795.045 1872.5 801.742 1880.1C804.971 1883.77 808.575 1886.82 811.352 1889.94C815.79 1894.93 811.16 1891.15 811.454 1891.52C811.462 1891.52 811.47 1891.53 811.477 1891.54ZM1034.6 2003.98C1050.87 2011.67 1041.28 2004.53 1031.72 2001.65C1031.29 2001.54 1034.21 2003.79 1034.6 2003.98ZM765.37 244.16C759.688 236.816 758.488 235.41 755.873 232.691C753.231 230.448 748.219 224.604 733.013 218.925C731.613 218.439 730.098 217.922 728.539 217.408C730.375 217.956 731.89 218.419 733.078 218.774C740.032 220.893 734.574 218.506 733.467 217.864C733.151 217.687 733.101 217.602 733.542 217.688C733.595 217.695 733.656 217.705 733.728 217.719C736.103 217.949 744.579 223.09 740.01 219.561C743.054 221.618 751.886 227.413 759 234.424C766.295 241.34 770.933 248.387 771.079 248.847C771.073 248.837 771.067 248.827 771.06 248.817C771.322 249.49 768.905 248.991 765.37 244.16ZM905.664 1957.14C907.599 1960.08 909.73 1960.73 912.475 1961.47C915.432 1962.24 919.058 1963.11 924.233 1967.33C931.689 1968.63 924.098 1964.96 913.32 1959.66C899.489 1952.91 882.032 1943.17 879.497 1939.43C936.484 1972.24 843.707 1914.74 880.745 1942.23C849.388 1921.43 869.841 1936.51 864.528 1934.14C858.853 1931.58 841.325 1919.71 841.609 1921.33C841.62 1921.33 841.63 1921.34 841.64 1921.35C852.6 1928.19 863.646 1934.9 874.913 1941.47C865.316 1932.55 887.707 1946.8 894.797 1953.26C898.388 1954.59 901.992 1955.88 905.664 1957.14ZM843.212 1917.49C844.211 1918.27 868.342 1932.63 867.105 1931.16C863.977 1929.05 830.007 1908.29 843.212 1917.49ZM753.369 1826.28C760.01 1834.41 770.356 1846.48 774.95 1849.94C767.768 1842.44 757.644 1830.17 753.369 1826.28ZM1226.51 2035.23C1239.83 2032.91 1198.33 2036.11 1210.46 2036.45C1211.1 2036.53 1225.9 2035.4 1226.51 2035.23ZM933.075 1969.85C944.979 1976.41 940.47 1970.51 931.065 1967.26C930.518 1967.07 932.536 1969.55 933.075 1969.85ZM753.958 233.035C753.418 232.973 740.657 222.677 732.573 219.955C728.773 218.425 725.631 217.242 724.205 216.726C725.137 216.875 728.499 217.925 732.774 219.484C741.268 221.875 754.998 232.985 753.958 233.035ZM739.827 1812.97C750.755 1832.49 771.742 1850.57 773.962 1852.94C776.071 1855.25 771.873 1852.47 772.37 1853.03C772.529 1853.21 773.256 1854 774.546 1855.34L774.051 1854.84C779.451 1860.8 794.264 1876.96 795.161 1877.84C795.934 1878.59 793.32 1873.29 798.023 1877.66C794.089 1873.97 784.767 1863.95 775.309 1853.63L775.77 1854.09C762.123 1839.99 749.702 1824.5 748.464 1823.02C746.863 1821.05 757.045 1837.11 739.85 1813C739.843 1812.99 739.835 1812.98 739.827 1812.97ZM778.365 1858.24C773.598 1852.03 788.358 1868.06 791.729 1872.12C799.217 1881.17 778.97 1859.03 778.365 1858.24ZM813.199 1897.38C814.096 1898.5 819.508 1904.57 824.222 1909.59C825.236 1910.54 828.249 1913.14 829.466 1913.8C833.974 1916.65 837.87 1918.93 838.729 1919.07C836.384 1917.23 833.301 1915.12 829.993 1912.94C828.821 1912.31 825.922 1909.8 824.945 1908.89C818.169 1901.41 810.633 1894.17 813.199 1897.38ZM1045.57 2015.36C1051.06 2017.34 1067.05 2023.75 1068.36 2023.15C1062.13 2021.34 1046.64 2014.85 1045.57 2015.36ZM654.198 205.448C663.261 207.019 641.997 204.923 635.604 204.162C635.338 203.63 653.497 205.268 654.198 205.448ZM932.218 1977.78C935.212 1980.5 998.726 2004.04 1011.55 2007.9C1012.19 2008.11 1012.72 2008.28 1013.13 2008.41C1012.73 2008.24 1012.22 2008.02 1011.6 2007.77C999.188 2003 936.675 1979.37 933.727 1977.28C932.806 1976.96 931.807 1977.55 932.218 1977.78ZM796.574 1886.08C791.535 1881.97 789.573 1878.01 789.035 1877.4C783.796 1871.37 772.549 1859.21 775.651 1861.28C784.808 1871.99 806.618 1894.24 796.574 1886.08ZM1048.52 2022.7C1072.24 2030.91 1027.74 2012.98 1033.45 2016.46C1033.74 2016.66 1046 2021.83 1048.52 2022.7ZM924.511 1974.56C923.071 1974.15 917.315 1971.55 909.572 1967.69C886.762 1956.48 852.524 1934.43 845.261 1929.8C854.829 1933.97 861.288 1939.43 873.368 1946.58C876.646 1948.51 876.101 1947.39 876.453 1947.59C882.142 1950.91 877.511 1949.1 881.017 1951.17C882.277 1951.9 897.009 1960.24 910.029 1966.71C919.871 1971.64 927.931 1975.52 924.511 1974.56ZM793.612 1883.82C791.696 1882.23 779.303 1868.78 770.114 1858.65L770.719 1859.26C764.463 1852.73 760.164 1847.77 759.68 1847.16C755.861 1842.02 762.109 1849.11 771.268 1858.7L770.679 1858.11C780.286 1868.67 792.449 1882.37 793.612 1883.82ZM930.119 1978.89C925.825 1978.1 914.792 1972.91 908.723 1969.51C903.564 1966.64 901.691 1965.16 909.179 1968.53C910.132 1968.95 911.235 1969.44 912.492 1970.01C914.674 1971.02 923.492 1976.33 930.119 1978.89ZM1045.35 2023.78C1046.14 2024.31 1071.69 2033.78 1072.65 2033.08C1068.16 2031.8 1032.42 2018.19 1045.35 2023.78ZM1032.3 2021.35C1032.88 2021.55 1027.82 2018.16 1038.74 2022.54C1039.75 2022.91 1040.57 2025.03 1055.61 2029.91C1058.68 2030.9 1063.83 2031.56 1063.5 2031.38C1047.29 2023.43 1004.55 2011.39 1032.3 2021.35ZM792.382 1883.89C793.606 1886 788.725 1882.77 785.825 1878.41C784.581 1876.54 787.966 1879 792.382 1883.89ZM1130.01 2046.82C1113.84 2045.87 1164.13 2052.91 1167.13 2051.96C1165.34 2051.43 1131.42 2047.25 1130.01 2046.82ZM631.544 210.534C631.555 210.534 631.566 210.535 631.577 210.536C619.853 209.452 627.217 209.211 626.673 209.145C601.749 206.268 608.246 208.635 604.323 208.604C601.598 208.62 599.927 208.414 598.431 208.132C595.042 207.521 592.458 206.59 582.352 206.662C607.216 206.606 584.629 206 584.003 205.141C582.874 203.555 589.671 204.184 598.679 205.213C608.508 206.345 621.171 208.376 627.513 208.503C629.157 208.526 617.238 206.664 621.445 206.676C635.277 206.662 676.133 215.277 631.544 210.534ZM783.08 1875.54C781.16 1873.96 774.7 1866.8 768.755 1859.97L769.397 1860.62C760.647 1851.11 753.818 1842.36 758.483 1847.17C759.073 1847.77 763.995 1853.29 770.193 1859.8L769.573 1859.18C777.755 1868.25 786.982 1878.75 783.08 1875.54ZM1386.12 822.721C1400.21 823.391 1368.45 816.018 1363.03 817.24C1360.18 817.543 1379.78 822.203 1386.12 822.721ZM1189.68 823.577C1179.7 825.997 1168.95 835.104 1182.46 831.485C1183.92 831.101 1191.1 824.302 1189.68 823.577ZM1808.63 1371.4C1808.67 1368.61 1808.51 1366.49 1808.26 1364.97C1807.8 1362.73 1806.18 1356.17 1805.4 1354.02C1803.98 1349.71 1802.47 1350.66 1803.12 1354.8C1803.88 1356.88 1805.45 1363.23 1805.89 1365.4C1805.9 1366.45 1806.01 1367.71 1806.26 1369.15C1806.83 1372.42 1808.62 1371.81 1808.63 1371.4ZM1551.65 898.404C1550.35 897.195 1536.72 888.076 1536.74 889.427C1540.84 892.906 1558.96 905.058 1551.65 898.404ZM1809.91 1375.29C1807.88 1367.96 1806.93 1381.4 1811.49 1389.98C1810.46 1385.38 1810.12 1376.05 1809.91 1375.29ZM954.128 1995.38C960.836 1997.07 978.413 2004.1 988.189 2007.48C988.94 2009.27 961.705 1998.36 954.128 1995.38ZM1249.51 817.006C1236.79 820.118 1264.51 818.709 1261.79 816.699C1261.4 816.585 1250 816.857 1249.51 817.006ZM1689.5 1818.76C1693.05 1814.95 1687.93 1818.35 1684.29 1820.94C1680.62 1823.57 1678.26 1825.74 1681.03 1824.83C1681.17 1824.77 1682.82 1823.66 1684.85 1822.22C1686.85 1820.81 1689.32 1818.97 1689.5 1818.76ZM1606.36 1895.62C1611.42 1891.54 1631.65 1872.47 1622.93 1879.03C1621.58 1880.07 1605.95 1894.54 1606.36 1895.62ZM603.556 209.435C604.939 210.042 602.103 210.145 598.266 210.082C592.828 209.965 585.628 209.447 583.986 209.234C583.143 209.119 591.877 208.334 598.39 208.619C600.554 208.707 602.456 208.954 603.556 209.435ZM1781.31 1281.29C1781.14 1280.84 1780.95 1280.32 1780.75 1279.76C1780.67 1279.55 1780.45 1278.88 1780.37 1278.67C1777.78 1271.69 1773.3 1257.44 1771.27 1255.2C1773.51 1261.06 1777.08 1274.59 1779.35 1279.03C1779.44 1279.24 1779.66 1279.9 1779.73 1280.11C1780.38 1281.41 1780.92 1281.94 1781.31 1281.29ZM1309.3 813.224C1297.45 810.54 1277.84 812.004 1282.91 815.378C1304.59 814.087 1279.9 811.945 1309.3 813.224ZM1819.64 1416.81C1818.97 1411.54 1815.11 1408.12 1815.06 1408.74C1814.58 1414.67 1819.26 1422.24 1819.64 1416.81ZM1663.24 1017.15C1664.29 1015.98 1652.93 1001.02 1653.62 1003.67C1653.86 1004.5 1662.43 1018.01 1663.24 1017.15ZM1185.36 2057.77C1194.48 2058.82 1166.64 2059.18 1158.65 2057.2C1154.74 2055.63 1184.17 2057.95 1185.36 2057.77ZM1816.76 1587.04C1818.69 1588.02 1821.77 1559.72 1818.5 1570.59C1817.71 1573.28 1816.19 1586.59 1816.76 1587.04ZM1669.95 1841.33C1681.66 1827.01 1624.78 1879.82 1641.34 1867.55C1642.53 1866.79 1668.88 1842.77 1669.95 1841.33ZM1577.52 1925.91C1579.98 1924 1582.91 1929.25 1571.71 1936.25C1570.25 1937.17 1575.1 1930.76 1573.82 1931.43C1573.06 1931.87 1551.67 1949.87 1550.73 1950.86C1549.76 1951.93 1552.28 1952.16 1551.35 1953.26C1550.71 1954.03 1544.04 1959.03 1537.64 1964.02C1534.59 1967.05 1524.46 1973.54 1520.63 1975.5C1517.13 1976.77 1513.52 1978.15 1510.85 1979.3C1495.41 1985.96 1494.39 1988.04 1493.12 1988.59C1489.44 1990.19 1482.78 1991.91 1475.3 1995.15C1454.36 2004.21 1427.4 2016.26 1402.24 2026.88C1401.91 2027.04 1400.91 2027.47 1400.58 2027.63C1390 2031.7 1379.79 2035.73 1366.44 2039.7C1352.55 2043.9 1338.13 2045.49 1330.8 2045.7C1340.62 2045.08 1358.05 2041.88 1370.03 2037.55C1382.05 2033.43 1390.74 2029.68 1399.82 2025.88C1400.14 2025.72 1401.11 2025.31 1401.43 2025.15C1410 2021.23 1418.67 2017.22 1427.47 2013.28C1421.02 2019.38 1465.39 1994.31 1439.59 2009.31C1446.68 2005.77 1486.06 1988.29 1519.7 1973.53C1523.41 1971.63 1533.21 1965.35 1536.16 1962.42C1556.62 1944.3 1574.06 1928.62 1577.5 1925.93C1577.5 1925.93 1577.51 1925.92 1577.52 1925.91ZM1142.33 830.31C1151.38 825.488 1103.54 837.057 1100.13 842.139C1106.67 839.937 1141.81 830.369 1142.33 830.31ZM1339.24 802.361C1343.79 802.24 1347.83 796.801 1372.7 802.078C1372.73 802.081 1372.75 802.084 1372.77 802.086C1380.16 803.761 1371.49 803.891 1372.81 804.498C1373.24 804.597 1396.33 810.576 1376.84 808.101C1348.05 805.402 1374.41 803.938 1359.25 802.382C1357.14 801.974 1329.69 803.391 1331.4 804.187C1331.54 804.244 1339.65 803.929 1341.01 804.254C1346.07 805.417 1343.51 806.863 1344.23 806.971C1345.96 806.667 1391.64 808.767 1399.41 813.703C1400.49 814.265 1380.46 810.664 1362.19 809.594C1343.76 808.29 1326.2 808.539 1324.86 808.318C1323.19 808.056 1323.93 803.731 1322.18 803.293C1321.16 802.922 1294.22 805.049 1290.9 804.96C1289.9 804.891 1289.13 804.804 1288.57 804.73C1292.6 805.801 1268.85 807.149 1269.55 805.669C1269.84 805.005 1286.23 804.282 1286.83 804.403C1287.09 804.433 1287.32 804.482 1287.53 804.513C1283.63 802.507 1341.07 801.997 1328.79 799.788C1346.06 798.917 1326.21 803.227 1339.24 802.361ZM1430.37 815.018C1428.66 814.952 1427.01 814.909 1425.34 814.866C1448.87 820.147 1495.15 841.195 1523.05 862.958C1523.29 863.134 1523.54 863.309 1523.78 863.484C1528.77 867.018 1524.51 860.63 1530.81 865.971C1535.91 870.263 1541.56 877.215 1537.83 875.359C1536.94 874.897 1528.04 867.251 1522.83 863.271C1521.76 862.485 1520.76 861.771 1519.84 861.153C1494.29 844.531 1498.48 850.95 1497.19 849.999C1495.61 848.964 1477.53 837.076 1466.88 832.837C1446.93 824.576 1436.43 822.451 1420.97 817.139C1413.54 814.719 1405.32 812.341 1396.2 810.056C1414.55 812.725 1410.95 809.529 1422.42 812.395C1424.3 812.875 1426.75 813.659 1430.37 815.018ZM1778.99 1713C1779.19 1713.36 1778.83 1714.55 1778.12 1716.26C1776.43 1720.49 1769.52 1731.37 1766.73 1734.96C1765.37 1736.71 1759.1 1743.59 1757.18 1746.34C1756.5 1745.4 1763.77 1737.19 1766.28 1734.6C1769.06 1731.03 1775.92 1720.23 1777.6 1716.04C1778.16 1714.85 1778.63 1713.84 1778.99 1713ZM235.226 591.571C232.738 587.139 235.483 618.492 236.255 610.113C236.345 608.275 235.407 594.971 235.226 591.571ZM272.812 708.2C275.763 711.426 266.988 696.326 265.781 697.253C265.301 697.51 272.372 707.764 272.812 708.2ZM1711.32 1077.22C1712.05 1078.49 1717.97 1093.8 1717.94 1094.2C1718.69 1099.48 1714.73 1090.2 1711.2 1081.55C1707.64 1072.87 1704.66 1064.88 1711.32 1077.22ZM399.595 832.786C386.831 824.828 422.052 852.357 412.312 842.701C411.854 842.326 400.244 833.268 399.595 832.786ZM450.492 867.007C447.136 865.151 434.14 856.185 433.685 856.635C432.673 857.359 447.737 867.625 450.492 867.007ZM1828.65 1418.8C1830.85 1416.38 1832.83 1440.56 1834.5 1448.79C1832.32 1451.22 1830.32 1427.03 1828.65 1418.8ZM1787.76 1257.37C1789.93 1263.31 1791.91 1268.8 1793.72 1273.86C1793.82 1274.12 1794.08 1274.91 1794.18 1275.17C1817.48 1343.91 1810.29 1333.67 1792.25 1275.83C1792.16 1275.57 1791.9 1274.81 1791.8 1274.55C1789.55 1267.71 1787.14 1260.2 1784.59 1252.07C1786.14 1251.38 1785.56 1251.33 1787.76 1257.37ZM1826.65 1396.74C1824.43 1393.39 1823.04 1381.89 1821.9 1374.16C1823.26 1375.34 1825.45 1391.24 1826.65 1396.74ZM235.995 549.819C237.906 555.782 237.227 582.881 236.252 578.107C235.97 576.969 234.899 547.538 235.995 549.819ZM1717.69 1086.04C1719.36 1082.72 1731.24 1115.75 1731.34 1118.26C1732.89 1128.97 1719.94 1089.05 1717.69 1086.04ZM1827.64 1589.72C1828.5 1595.99 1824.71 1612.53 1821.31 1626.35C1821.54 1619.25 1826.2 1598.67 1827.64 1589.72ZM1839.31 1514.91C1839.32 1515.52 1837.47 1529.77 1837.29 1530.44C1834.06 1541.96 1839.27 1501.59 1839.31 1514.91ZM646.461 221.124C646.047 221.108 636.181 220.298 635.821 220.247C627.127 218.637 656.72 221.127 646.461 221.124Z" fill="url(#paint0_linear_128_837)"/>
</g>
<defs>
<filter id="filter0_d_128_837" x="-25.658" y="-2.28882e-05" width="1978.06" height="2171.72" filterUnits="userSpaceOnUse" color-interpolation-filters="sRGB">
<feFlood flood-opacity="0" result="BackgroundImageFix"/>
<feColorMatrix in="SourceAlpha" type="matrix" values="0 0 0 0 0 0 0 0 0 0 0 0 0 0 0 0 0 0 127 0" result="hardAlpha"/>
<feOffset/>
<feGaussianBlur stdDeviation="56.55"/>
<feComposite in2="hardAlpha" operator="out"/>
<feColorMatrix type="matrix" values="0 0 0 0 0.327308 0 0 0 0 0 0 0 0 0 0.426923 0 0 0 0.75 0"/>
<feBlend mode="normal" in2="BackgroundImageFix" result="effect1_dropShadow_128_837"/>
<feBlend mode="normal" in="SourceGraphic" in2="effect1_dropShadow_128_837" result="shape"/>
</filter>
<linearGradient id="paint0_linear_128_837" x1="161.821" y1="163.572" x2="1727.57" y2="2027.34" gradientUnits="userSpaceOnUse">
<stop stop-color="#D84B36"/>
<stop offset="0.675727" stop-color="#2D305F"/>
</linearGradient>
</defs>
</svg>
