<svg width="62" height="95" viewBox="0 0 62 95" fill="none" xmlns="http://www.w3.org/2000/svg">
<path fill-rule="evenodd" clip-rule="evenodd" d="M62 64.2977C62 81.2541 48.1209 95 31 95C13.8791 95 0 81.2541 0 64.2977C0 47.8063 29.3231 2.51388 30.9313 0.0422713C30.9681 -0.0140908 31.0321 -0.0140903 31.0687 0.0422719C32.6769 2.51388 62 47.8063 62 64.2977ZM25.8324 85.157C10.1015 81.7352 12.7934 64.4118 12.7934 64.4118C12.7934 64.4118 17.089 74.8693 27.5132 78.2568C37.9372 81.6441 50.5346 76.6761 50.5346 76.6761C50.5346 76.6761 41.5633 88.5787 25.8324 85.157Z" fill="#5090D6"/>
</svg>
