<svg width="83" height="95" viewBox="0 0 83 95" fill="none" xmlns="http://www.w3.org/2000/svg">
<path fill-rule="evenodd" clip-rule="evenodd" d="M46.1045 47.2924C46.7478 46.8998 47.2935 46.077 47.7336 45.1627C53.5258 47.5321 57.5962 53.1312 57.5962 59.6607C57.5962 68.3351 50.4127 75.3671 41.5515 75.3671C37.914 75.3671 34.5592 74.182 31.868 72.185C30.9852 71.7666 30.2589 71.3647 29.6646 71.0357C28.7427 70.5256 28.1382 70.1911 27.7596 70.2434C26.6531 70.3961 26.9743 71.4151 27.2663 72.3408C27.4645 72.9697 27.6493 73.5554 27.3633 73.797C27.0641 74.0501 26.0949 73.1251 24.9624 72.0445C23.4208 70.5733 21.5766 68.8134 20.707 69.342C20.0194 69.7601 20.687 70.8939 21.5041 72.2818L21.5647 72.3848C21.9099 72.9715 22.31 73.569 22.675 74.1141C23.4171 75.222 24.0147 76.1149 23.7157 76.2659C23.3542 76.4485 20.8356 74.747 18.7132 72.3848C17.894 71.4732 17.1006 70.485 16.3632 69.5667V69.5665C14.7491 67.5563 13.4043 65.8818 12.6494 66.0801C11.7413 66.3187 12.4283 68.1935 13.4377 69.9976C13.9096 70.8412 14.4649 71.7003 14.9456 72.4442V72.4444C15.6932 73.6011 16.2606 74.4789 16.0549 74.5869C15.7772 74.7322 13.3337 72.3473 11.674 69.342C10.6883 67.5569 9.86055 65.5841 9.19044 63.9871C8.46373 62.2551 7.9224 60.965 7.56595 60.8351C6.3275 60.384 6.3275 62.9113 6.82421 66.559C6.889 67.0349 6.98549 67.534 7.1043 68.0423C11.9213 83.6417 26.7185 95 44.2257 95C65.6402 95 83 78.0061 83 57.043C83 37.0908 67.2744 20.7343 47.2943 19.203C47.3195 18.2631 47.8096 16.3992 47.8096 16.3992C47.8096 16.3992 51.3368 7.85739 51.5233 6.03211C51.5356 5.91097 51.5502 5.77932 51.566 5.63912C51.7856 3.66694 52.1944 0 49.0426 0C47.3593 0 46.5766 1.2533 45.6814 2.6867V2.68672C45.3378 3.23699 44.9774 3.81382 44.5432 4.35646C41.4162 8.26493 36.1581 13.1458 33.1766 15.7461C26.8748 21.2421 20.692 25.7591 17.086 28.3935L17.0858 28.3937C15.4457 29.5918 14.3388 30.4006 13.9962 30.7347C11.4146 33.2537 2.15816 49.9652 2.15816 49.9652C2.15816 49.9652 -0.835267 55.3267 0.228724 56.4142C1.29271 57.5015 3.85853 57.2523 3.85853 57.2523C3.85853 57.2523 38.3283 49.3375 41.4144 48.7133C42.2452 48.5452 42.8318 48.4481 43.2821 48.3737C44.5046 48.1717 44.7241 48.1353 46.1045 47.2924ZM21.7331 37.1213C19.8828 38.8815 16.8142 43.0832 16.8142 43.0832C16.8142 43.0832 22.5172 43.4349 25.6581 40.4466C28.7992 37.4582 28.0796 32.3655 28.0796 32.3655C28.0796 32.3655 23.5832 35.361 21.7331 37.1213Z" fill="#0B6DC3"/>
</svg>
