<svg width="94" height="95" viewBox="0 0 94 95" fill="none" xmlns="http://www.w3.org/2000/svg">
<path fill-rule="evenodd" clip-rule="evenodd" d="M18.8605 75.3304L33.9381 70.9121L46.9608 94.9766C46.9779 95.0078 47.0221 95.0078 47.039 94.9766L60.0618 70.9121L75.1395 75.3304C75.1733 75.3403 75.2047 75.3085 75.1946 75.2744L70.822 60.3379L93.9767 47.5394C94.0077 47.5224 94.0077 47.4776 93.9769 47.4606L70.6312 34.5565L75.1946 18.9682C75.2047 18.934 75.1733 18.9023 75.1395 18.9121L59.7082 23.4342L47.039 0.0234146C47.0221 -0.0078043 46.9779 -0.00780517 46.961 0.0234138L34.2919 23.4342L18.8605 18.9121C18.8267 18.9023 18.7953 18.934 18.8054 18.9682L23.3688 34.5565L0.0231681 47.4606C-0.00772215 47.4776 -0.00772301 47.5224 0.0231674 47.5394L23.1778 60.3379L18.8054 75.2744C18.7953 75.3085 18.8267 75.3403 18.8605 75.3304ZM30.5606 47.6641L41.2422 53.5682L47.0842 64.3633C47.1011 64.3947 47.1455 64.3947 47.1624 64.3633L53.0044 53.5682L63.6858 47.6641C63.7167 47.647 63.7167 47.6021 63.6858 47.5851L53.0044 41.681L47.1624 30.8859C47.1455 30.8545 47.1011 30.8545 47.0842 30.8859L41.2422 41.681L30.5606 47.5851C30.5297 47.6021 30.5297 47.647 30.5606 47.6641Z" fill="#EC8FE6"/>
</svg>
