<svg width="71" height="95" viewBox="0 0 71 95" fill="none" xmlns="http://www.w3.org/2000/svg">
<path fill-rule="evenodd" clip-rule="evenodd" d="M53.3452 73.3642C54.5159 69.0723 52.2435 60.2489 52.2435 60.2489C52.2435 60.2489 50.5954 67.4369 48.0201 70.0935C45.823 72.3596 43.1313 73.9314 39.271 74.3444C42.4272 72.8073 44.5978 69.6024 44.5978 65.8979C44.5978 60.6978 40.3206 56.4822 35.0446 56.4822C29.7685 56.4822 25.4912 60.6978 25.4912 65.8979C25.4912 67.3181 25.8104 68.665 26.3817 69.8725C23.0817 67.2366 22.5628 63.0106 22.5628 63.0106C22.5628 63.0106 18.8779 78.3498 29.0314 85.5653C39.1847 92.7809 59.0749 86.5788 59.0749 86.5788C59.0749 86.5788 30.6109 106.659 9.5188 84.8042C-8.6503 65.9775 4.77664 41.192 4.77664 41.192C4.77664 41.192 4.19677 43.4913 4.19677 46.1604C4.19677 48.8295 5.64011 50.8603 5.64011 50.8603C5.64011 50.8603 9.94555 41.7612 13.2963 38.0609C16.4675 34.5589 20.4427 31.7185 23.8763 29.2652C26.5194 27.3767 28.8415 25.7176 30.2284 24.1625C37.8671 15.5987 33.1834 0 33.1834 0C33.1834 0 41.7943 7.61114 44.1982 17.441C45.1146 21.188 44.525 25.4513 43.998 29.2637C43.1423 35.4528 42.4507 40.4539 48.6326 40.1294C58.6226 39.6048 49.9416 24.1625 49.9416 24.1625C49.9416 24.1625 72.6026 36.1043 70.9097 56.9898C69.2165 77.8754 46.14 82.6235 46.14 82.6235C46.14 82.6235 52.1743 77.656 53.3452 73.3642Z" fill="#FF9D55"/>
</svg>
