<svg width="92" height="81" viewBox="0 0 92 81" fill="none" xmlns="http://www.w3.org/2000/svg">
<path fill-rule="evenodd" clip-rule="evenodd" d="M69.7035 0L70 26.0802L47.2802 37L47 12.3753L69.7035 0Z" fill="#73CEC0"/>
<path fill-rule="evenodd" clip-rule="evenodd" d="M92 40.4999L70.0065 53L48 40.4802L69.9951 29L92 40.4999Z" fill="#73CEC0"/>
<path fill-rule="evenodd" clip-rule="evenodd" d="M44 40.4999L22.0066 53L0 40.4802L21.9952 29L44 40.4999Z" fill="#73CEC0"/>
<path fill-rule="evenodd" clip-rule="evenodd" d="M22 0L44 11.3236L43.4375 36L22.6654 25.3085L22 0Z" fill="#73CEC0"/>
<path fill-rule="evenodd" clip-rule="evenodd" d="M70 80L47 68.6765L47.5881 44L69.3044 54.6916L70 80Z" fill="#73CEC0"/>
<path fill-rule="evenodd" clip-rule="evenodd" d="M22.2967 81L22 55.6246L44.7198 45L45 68.959L22.2967 81Z" fill="#73CEC0"/>
</svg>
