<svg width="85" height="91" viewBox="0 0 85 91" fill="none" xmlns="http://www.w3.org/2000/svg">
<path fill-rule="evenodd" clip-rule="evenodd" d="M13.644 79.3828C13.3166 79.0778 12.9927 78.7669 12.6727 78.4499C-4.22423 61.7165 -4.22422 34.5863 12.6727 17.8529C29.5695 1.11945 83.4095 0 83.4095 0C83.4095 0 90.7586 61.7165 73.8618 78.4499C58.8551 93.3114 35.5677 94.9739 18.7084 83.4377L32.293 66.9282L54.0093 62.2851L36.2824 60.5301L47.5481 49.1704L60.3718 46.3884L50.2316 43.4144L60.3718 25.2986L45.9483 41.3204L40.3785 33.5367L42.3392 46.3884L32.293 57.6041L27.6362 43.4142V62.2851L13.644 79.3828Z" fill="#63BC5A"/>
</svg>
