<svg width="80" height="95" viewBox="0 0 80 95" fill="none" xmlns="http://www.w3.org/2000/svg">
<path fill-rule="evenodd" clip-rule="evenodd" d="M55.7899 0.0930122C55.8583 -0.00564755 55.9926 -0.0296245 56.0901 0.0394579L62.7575 4.76273C62.855 4.83181 62.8787 4.96778 62.8105 5.06644L53.5306 18.4747C58.0421 19.9329 61.1157 21.5058 61.1157 21.5058C61.1157 21.5058 53.6029 34.58 40.8604 34.58C28.118 34.58 19.0633 22.3946 19.0633 22.3946C19.0633 22.3946 22.2739 20.3216 27.0332 18.5437L16.8545 6.27114C16.778 6.17886 16.7899 6.04131 16.8811 5.9639L23.1161 0.670697C23.2074 0.593281 23.3433 0.605313 23.4198 0.697578L36.3077 16.2368C37.4112 16.1105 38.5355 16.0399 39.67 16.0399C41.3006 16.0399 42.9292 16.1653 44.5191 16.3782L55.7899 0.0930122ZM58.3109 35.1992C61.7113 32.7421 66.8568 26.3291 66.8568 26.3291C66.8568 26.3291 80 36.8665 80 59.2097C80 81.5527 57.2775 95 57.2775 95C57.2775 95 46.4211 83.9076 43.7559 69.8465C41.091 55.7854 47.6983 40.1721 47.6983 40.1721C47.6983 40.1721 54.9103 37.6562 58.3109 35.1992ZM21.6891 35.1992C18.2886 32.7421 13.1432 26.3291 13.1432 26.3291C13.1432 26.3291 0 36.8665 0 59.2097C0 81.5527 22.7225 95 22.7225 95C22.7225 95 33.5789 83.9076 36.2441 69.8465C38.909 55.7854 32.3017 40.1721 32.3017 40.1721C32.3017 40.1721 25.0897 37.6562 21.6891 35.1992Z" fill="#91C12F"/>
</svg>
