<svg width="88" height="95" viewBox="0 0 88 95" fill="none" xmlns="http://www.w3.org/2000/svg">
<path fill-rule="evenodd" clip-rule="evenodd" d="M13.1178 7.89791C14.2588 3.35866 18.3402 0 23.2 0C26.8453 0 30.0526 1.88974 31.9096 4.75H34.9505C36.8397 2.79649 39.4792 1.58333 42.4 1.58333C46.6823 1.58333 50.3601 4.19117 51.9545 7.91667H54.5004C56.0957 6.9132 57.9807 6.33333 59.9999 6.33333C64.2824 6.33333 67.9601 8.94117 69.5544 12.6667H76.4776C76.5367 12.6667 76.5922 12.6827 76.6399 12.7107C76.9561 12.6816 77.2763 12.6667 77.5998 12.6667C83.3437 12.6667 87.9998 17.3582 87.9998 23.1455V54.5667L88 54.625L87.9998 54.6833V55.1358C87.9998 55.3275 87.9947 55.5184 87.9843 55.7084C87.3586 77.5061 67.9057 95 43.9999 95C19.6994 95 0 76.9235 0 54.625C0 43.8616 4.58996 34.0818 12.0718 26.844C12.0531 37.3372 12.229 48.1854 13.0399 47.9993C15.2111 47.5006 13.5147 14.9995 13.1178 7.89791Z" fill="#CE416B"/>
</svg>
