<svg width="94" height="81" viewBox="0 0 94 81" fill="none" xmlns="http://www.w3.org/2000/svg">
<path fill-rule="evenodd" clip-rule="evenodd" d="M0.00938362 40.5574C-0.00312194 40.536 -0.00312822 40.5096 0.00936689 40.488L23.646 0.0338947C23.6583 0.0129105 23.6809 0 23.7051 0H70.5541C70.5785 0 70.6011 0.0130212 70.6134 0.0341894L93.9908 40.4884C94.0031 40.5096 94.0031 40.5359 93.9908 40.557L70.6134 80.9658C70.6011 80.9869 70.5785 81 70.5541 81H23.7051C23.6809 81 23.6583 80.9871 23.646 80.9662L0.00938362 40.5574ZM68.7774 40.5C68.7774 52.544 59.0306 62.3076 47.0074 62.3076C34.9842 62.3076 25.2374 52.544 25.2374 40.5C25.2374 28.4558 34.9842 18.6924 47.0074 18.6924C59.0306 18.6924 68.7774 28.4558 68.7774 40.5Z" fill="#5A8EA2"/>
</svg>
