<svg width="94" height="95" viewBox="0 0 94 95" fill="none" xmlns="http://www.w3.org/2000/svg">
<path fill-rule="evenodd" clip-rule="evenodd" d="M42.1757 84.0249C43.9615 84.3012 45.7905 84.4444 47.6528 84.4444C67.4813 84.4444 83.5555 68.1992 83.5555 48.1598C83.5555 28.1202 67.4813 11.875 47.6528 11.875C46.3225 11.875 45.0089 11.9481 43.7162 12.0906C53.5523 19.6218 60.0555 32.6678 60.0555 47.5C60.0555 63.0934 52.8676 76.7125 42.1757 84.0249ZM47 95C72.9574 95 94 73.7335 94 47.5C94 21.2665 72.9574 0 47 0C21.0426 0 0 21.2665 0 47.5C0 73.7335 21.0426 95 47 95Z" fill="#5A5465"/>
</svg>
