<svg width="95" height="75" viewBox="0 0 95 75" fill="none" xmlns="http://www.w3.org/2000/svg">
<path fill-rule="evenodd" clip-rule="evenodd" d="M73.3504 35.49C73.345 35.4826 73.3428 35.4733 73.3443 35.4642L79.3925 0.0282418C79.3952 0.0119254 79.4095 0 79.4258 0H81.34C81.3548 0 81.3678 0.00961885 81.3722 0.0237585L94.9984 43.3736C95.0027 43.387 94.9981 43.4019 94.987 43.4107L84.9402 51.2922C84.9252 51.3039 84.9035 51.301 84.8922 51.2855L73.3504 35.49ZM0 58.9814C0 58.9961 0.00940557 59.0091 0.0233104 59.0138L20.7337 65.8178C20.7437 65.8211 20.7548 65.8194 20.7635 65.8135L67.0561 33.7015C67.0639 33.6961 67.0691 33.6878 67.0704 33.6785L72.0346 0.209937C72.0378 0.189397 72.0218 0.170941 72.0013 0.170941H30.9975C30.9873 0.170941 30.9779 0.175444 30.9714 0.183239L0.00778169 37.7146C0.00275153 37.7207 0 37.7284 0 37.7364V58.9814ZM29.3638 67.5514L51.9895 74.9983C51.9997 75.0017 52.011 75 52.0197 74.9937L78.9571 55.579C78.9721 55.5684 78.9758 55.5477 78.9657 55.5325L68.8676 40.4337C68.857 40.4179 68.8359 40.4138 68.8204 40.4246L29.3638 67.5514Z" fill="#C5B78C"/>
</svg>
