<svg width="88" height="95" viewBox="0 0 88 95" fill="none" xmlns="http://www.w3.org/2000/svg">
<path fill-rule="evenodd" clip-rule="evenodd" d="M81.0582 78.9001C81.0582 78.9001 69.1084 88.5086 45.3287 84.5324C27.2874 81.5157 17.665 61.5772 17.665 50.86C17.665 25.4503 36.4237 19.6679 49.106 19.6679C61.788 19.6679 70.0612 32.0637 70.0612 41.6613C70.0612 51.2588 63.2904 59.6535 52.7535 59.6535C42.2167 59.6535 39.096 52.2373 39.096 45.419C39.096 38.6009 44.5983 36.1987 49.6165 36.1987C54.6346 36.1987 56.3528 40.4939 56.3528 44.1854C56.3528 47.877 53.4959 49.199 51.113 49.199C48.73 49.199 48.4944 47.9937 47.5824 46.7271C46.6703 45.4606 48.7456 40.6663 45.3287 40.6663C41.9118 40.6663 41.2749 46.1778 41.2749 46.1778C41.2749 46.1778 42.5206 56.8169 52.7535 56.6334C62.9865 56.4497 67.841 48.5185 66.4302 40.6663C65.0194 32.8138 57.4181 24.4698 44.0775 26.1559C30.7369 27.8419 25.29 41.3556 27.6909 55.7972C30.0918 70.239 47.3489 78.6065 60.9173 75.5961C74.486 72.5856 88 62.7376 88 37.769C88 12.8002 66.4302 -2.20828 40.7102 0.265201C14.9902 2.73867 -0.975644 25.282 0.0463078 52.3683C1.06826 79.4546 26.7047 94.2066 48.383 94.9669C70.0612 95.7273 83.351 83.1464 83.351 83.1464C83.351 83.1464 86.3397 80.4745 85.1678 78.3879C83.9962 76.3014 81.0582 78.9001 81.0582 78.9001Z" fill="#FA7179"/>
</svg>
