<svg width="94" height="69" viewBox="0 0 94 69" fill="none" xmlns="http://www.w3.org/2000/svg">
<path fill-rule="evenodd" clip-rule="evenodd" d="M20.7028 68.7314C20.6773 68.7314 20.6595 68.7059 20.668 68.6816L44.6665 0.024909C44.6718 0.00998248 44.6858 0 44.7014 0H70.3205C70.3361 0 70.3503 0.0100569 70.3554 0.0250763L93.998 68.6818C94.0062 68.7061 93.9884 68.7314 93.9631 68.7314H21.424H20.7028ZM0.0369587 69C0.0111831 69 -0.00666176 68.974 0.00237952 68.9496L17.8734 20.6435C17.8788 20.6289 17.8926 20.6192 17.908 20.6192H33.4358C33.4616 20.6192 33.4794 20.645 33.4706 20.6694L16.1898 68.9755C16.1845 68.9901 16.1706 69 16.1551 69H0.0369587Z" fill="#D97845"/>
</svg>
