<svg width="95" height="95" viewBox="0 0 95 95" fill="none" xmlns="http://www.w3.org/2000/svg">
<path fill-rule="evenodd" clip-rule="evenodd" d="M79.3809 73.0032C88.9742 65.3325 95 54.2495 95 41.9243C95 18.7701 73.7335 0 47.5 0C21.2665 0 0 18.7701 0 41.9243C0 53.8045 5.59863 64.5306 14.5942 72.1594C14.0491 74.0417 13.75 76.0892 13.75 78.2303C13.75 87.4918 19.3464 95 26.2501 95C30.7358 95 34.6698 91.8299 36.875 87.0686C39.0803 91.8299 43.0142 95 47.5 95C51.5891 95 55.2195 92.366 57.5 88.2938C59.7806 92.366 63.411 95 67.4999 95C74.4036 95 80 87.4918 80 78.2303C80 76.4052 79.7826 74.6481 79.3809 73.0032ZM75.0001 42.7558C75.0001 54.5109 62.4079 64.0404 46.8751 64.0404C31.342 64.0404 18.7501 54.5109 18.7501 42.7558C18.7501 31.0006 31.342 21.4711 46.8751 21.4711C62.4079 21.4711 75.0001 31.0006 75.0001 42.7558Z" fill="#B567CE"/>
</svg>
