<svg width="94" height="82" viewBox="0 0 94 82" fill="none" xmlns="http://www.w3.org/2000/svg">
<path fill-rule="evenodd" clip-rule="evenodd" d="M32.8105 82C46.5806 82 58.3695 74.2968 63.2364 63.3768C63.2959 63.2436 43.6967 68.5036 44.3216 66.6442C44.6007 65.8139 56.6151 61.3962 65.3683 56.2433C70.3993 53.2816 72.7161 47.0121 72.7161 47.0121C72.7161 47.0121 64.2401 51.1543 59.9552 52.205C51.3204 54.3228 43.7194 54.0947 43.7194 53.8741C43.7194 53.3969 56.3406 50.9831 73.8827 40.2234C82.1339 35.1624 84.3751 26.4448 84.3751 26.4448C84.3751 26.4448 75.3035 31.8837 69.8196 33.6794C56.8145 37.9377 44.9466 39.2209 44.9466 38.6447C44.9466 37.411 55.3907 34.5202 66.464 29.1196C72.2215 26.3116 77.2077 22.643 82.986 18.5633C92.4407 11.8883 94 0 94 0C94 0 84.6749 6.05393 80.1241 8.06438C61.3463 16.3602 44.7656 20.7117 32.8105 21.6538C14.7639 23.076 0 35.7499 0 52.205C0 68.6603 14.6897 82 32.8105 82Z" fill="#89AAE3"/>
</svg>
