<?xml version="1.0" standalone="no"?>
<!DOCTYPE svg PUBLIC "-//W3C//DTD SVG 20010904//EN"
 "http://www.w3.org/TR/2001/REC-SVG-20010904/DTD/svg10.dtd">
<svg version="1.0" xmlns="http://www.w3.org/2000/svg"
 width="90.000000pt" height="90.000000pt" viewBox="0 0 90.000000 90.000000"
 preserveAspectRatio="xMidYMid meet">

<g transform="translate(0.000000,90.000000) scale(0.100000,-0.100000)"
fill="#FFF" stroke="none">
<path d="M200 700 c-35 -35 -25 -58 72 -156 l92 -94 -92 -94 c-97 -99 -110
-127 -74 -159 36 -33 61 -21 158 75 l94 92 94 -92 c99 -97 127 -110 159 -74
33 36 21 61 -75 158 l-92 94 92 94 c97 98 107 121 72 156 -35 35 -58 25 -156
-72 l-94 -92 -94 92 c-98 97 -121 107 -156 72z"/>
</g>
</svg>
