<svg width="468" height="499" viewBox="0 0 468 499" fill="none" xmlns="http://www.w3.org/2000/svg">
<g clip-path="url(#clip0_221_77)">
<path d="M233.167 499C361.573 499 465.667 387.295 465.667 249.5C465.667 111.705 361.573 0 233.167 0C104.761 0 0.666992 111.705 0.666992 249.5C0.666992 387.295 104.761 499 233.167 499Z" fill="white"/>
<path d="M200.533 1.99997C129.867 13.0666 66.9333 58.6666 31.0667 124.667C10 163.467 0.133333 202.933 0 247.6C0 265.2 0.266666 266.933 2.8 269.467C6.53333 273.2 4.66666 273.467 73.3333 256.533C110.933 247.2 130.8 241.733 132.4 240.133C133.733 238.8 135.733 233.467 136.8 227.867C139.067 216.8 146.533 200 154.533 188.267C168.8 167.2 195.067 150 219.333 145.733C254.667 139.733 289.867 154.933 313.333 186.533C317.067 191.733 321.2 196 322.4 196.267C323.6 196.533 352.133 189.867 385.733 181.467C442 167.467 447.067 166 448.4 163.067C450.267 158.8 448.267 151.2 441.067 135.333C425.333 101.067 399.067 67.8666 370.4 46.4C357.867 36.9333 334.533 22.9333 326.133 19.7333C322.533 18.2666 317.867 16.2666 315.867 15.3333C309.6 12 285.2 5.46663 268.8 2.66663C250.533 -0.400037 218.267 -0.666693 200.533 1.99997Z" fill="url(#paint0_linear_221_77)"/>
<path d="M219.067 177.867C187.467 185.6 165.067 214.133 163.067 249.333C162.667 256.267 161.867 262.933 161.2 264.133C160 266.533 161.867 266 76.2666 287.2C37.0666 296.8 13.4666 303.333 11.8666 304.8C8.13325 308.133 8.66658 314.8 14.1332 332.133C38.6666 410.4 103.6 473.467 179.467 492.533C198.8 497.467 209.733 498.667 234.533 498.8C279.467 498.933 316 488.533 354.533 464.667C431.867 416.667 478 317.333 466.133 224.133C463.467 203.467 462.667 200.933 458.133 198C454.933 195.867 453.867 196 438.4 199.867C400.267 209.2 306.933 232 306.267 232C305.867 232 302.933 226.4 299.6 219.6C289.333 198.667 274.667 185.333 255.067 179.067C244 175.6 230.533 175.2 219.067 177.867ZM254.133 209.333C264.133 214.267 270.933 221.467 276.533 233.2C280.267 241.2 280.667 243.2 280.667 254.667C280.667 265.733 280.133 268.4 276.933 275.2C271.867 286 265.733 293.2 256.667 298.533C250 302.533 247.733 303.2 238 303.733C224 304.533 215.6 301.733 206.267 293.467C193.467 281.867 188.533 269.333 189.733 251.2C191.067 228 205.467 210.267 227.333 204.8C233.467 203.333 246.133 205.467 254.133 209.333ZM440.267 241.6C442.8 323.067 406 396.8 342 438.667C320.4 452.667 298.4 461.6 271.6 466.933C250.8 471.067 216.267 471.067 196.533 466.933C137.333 454.267 89.4666 419.067 57.5999 364.667C50.2666 352.267 39.4666 326.667 40.7999 325.333C41.4666 324.8 51.5999 322.133 63.3333 319.467C75.0666 316.667 102.133 310 123.333 304.667C144.667 299.2 163.867 294.4 166.133 293.867C169.867 293.2 170.667 293.733 176.933 302.4C215.467 355.067 292.267 335.867 307.6 269.6C309.867 260.267 310.133 259.867 314.667 258.8C317.2 258.133 337.6 253.333 360 248C382.4 242.8 408.533 236.533 418 234C427.6 231.6 436.4 229.467 437.6 229.467C439.6 229.333 440 231.067 440.267 241.6Z" fill="#7760AE"/>
</g>
<defs>
<linearGradient id="paint0_linear_221_77" x1="-0.333026" y1="272" x2="626.167" y2="-170" gradientUnits="userSpaceOnUse">
<stop stop-color="#7760AE"/>
<stop offset="1" stop-color="#7859C0"/>
</linearGradient>
<clipPath id="clip0_221_77">
<rect width="468" height="499" fill="white"/>
</clipPath>
</defs>
</svg>
