<svg width="47" height="51" viewBox="0 0 47 51" fill="none" xmlns="http://www.w3.org/2000/svg">
<path d="M16.0304 6.36381C11.0032 8.70755 7.10494 13.2037 5.22026 18.8233C4.56262 20.7969 4.14478 23.6563 4.19274 25.8749C4.21949 27.3187 4.53405 29.8182 4.68197 29.7752C4.71484 29.7656 5.0406 29.5055 5.39749 29.1904C8.32889 26.62 12.6687 23.7687 16.1143 22.1328C16.6841 21.8661 17.2127 21.6113 17.2972 21.5592C17.398 21.5023 17.469 21.3163 17.4978 21.0231C17.672 19.2728 18.8817 17.2213 20.3653 16.1652C23.1038 14.2021 26.7271 14.7013 28.7856 17.3092C29.322 17.9985 29.3302 17.9961 29.6893 17.956C33.7112 17.448 37.5309 17.4307 41.2978 17.9065C41.4432 17.9285 41.3796 17.653 40.9546 16.573C39.7343 13.4182 37.592 10.4855 35.1309 8.56427C31.0958 5.41022 26.4284 4.11214 21.5013 4.76385C19.9848 4.95672 17.4312 5.70843 16.0304 6.36381Z" fill="#FF0000"/>
<path d="M22.8107 18.2523C21.6428 18.7214 20.7733 19.7491 20.4389 21.0445C19.9732 22.7989 20.8076 24.6815 22.388 25.467C22.9149 25.7259 23.0059 25.7421 23.8685 25.7262C24.756 25.7098 24.7977 25.7001 25.4164 25.3574C26.4948 24.7735 27.2404 23.7123 27.4583 22.4459C27.7395 20.8292 26.9434 19.1608 25.5367 18.3989C25.0102 18.1222 24.911 18.0971 24.0985 18.0853C23.4186 18.0799 23.1361 18.1209 22.8107 18.2523Z" fill="white"/>
<path d="M17.4683 26.6577C13.7736 28.5142 10.1873 30.9922 7.20833 33.7441C6.73142 34.1863 6.33699 34.5678 6.32254 34.5812C6.31008 34.6032 6.48186 34.967 6.71267 35.3965C9.30178 40.2622 13.6425 43.6711 18.872 44.927C20.8418 45.4024 23.2367 45.5149 25.3902 45.2287C26.7863 45.0432 29.3594 44.2946 30.6106 43.7099C33.864 42.1841 36.6225 39.8826 38.7003 36.9514C40.8631 33.8944 42.2897 29.9295 42.5705 26.1693C42.6615 24.8921 42.6433 23.1041 42.5357 22.9423C42.4688 22.8422 40.7538 22.5963 39.0913 22.4638C36.8262 22.2675 34.3053 22.2927 31.8733 22.5129C31.0995 22.5816 30.4551 22.6404 30.4386 22.6452C30.4304 22.6475 30.3501 22.9836 30.2693 23.3933C29.9141 25.198 28.8051 26.8541 27.2637 27.8911C26.4517 28.44 25.0723 28.8873 24.1205 28.9067C22.2024 28.9589 20.4399 28.1658 19.1931 26.6801C18.9124 26.3387 18.6497 26.0748 18.6023 26.0978C18.5612 26.1098 18.0508 26.3686 17.4683 26.6577Z" fill="white"/>
</svg>
