<svg width="888" height="942" viewBox="0 0 888 942" fill="none" xmlns="http://www.w3.org/2000/svg">
<path d="M126.997 0.879153C103.263 2.34582 77.5299 10.7458 59.9299 22.8792C51.1299 29.0125 32.5965 47.0125 25.3965 56.4792C8.8632 78.6125 -2.07013 116.479 0.329871 143.946C2.4632 168.212 13.2632 197.412 26.8632 215.546C44.1965 238.612 71.3965 256.879 101.93 266.212C112.33 269.279 115.93 269.679 133.663 269.679C158.063 269.812 168.997 267.279 190.997 256.746C214.863 245.279 231.663 231.279 244.997 211.946C261.13 188.346 267.663 168.746 268.597 140.479C269.53 114.079 265.93 95.0125 256.063 75.4125C231.663 26.4792 181.797 -2.32085 126.997 0.879153ZM160.197 23.4125C170.73 25.5458 187.53 32.6125 197.53 38.8792C206.063 44.3458 219.53 57.0125 227.263 66.8792C247.13 92.6125 254.33 136.346 244.063 168.612C241.13 177.812 232.597 194.612 228.197 199.812L224.597 204.212L218.597 192.612C211.13 178.346 196.597 162.879 183.397 155.279C178.33 152.346 174.33 149.679 174.33 149.146C174.33 148.612 176.33 145.146 178.863 141.412C186.997 129.412 189.263 121.146 188.73 106.612C188.063 91.1458 184.463 82.0792 174.463 71.5458C147.663 43.1458 101.397 51.5458 84.5965 87.8125C80.9965 95.5458 80.4632 98.0792 80.4632 107.946C80.5965 121.146 83.3965 130.079 91.6632 142.212L96.7299 149.812L87.2632 155.012C71.9299 163.279 58.8632 177.412 50.0632 195.146L45.7965 203.946L42.8632 201.146C39.1299 197.546 27.2632 173.679 24.0632 163.279C22.1965 157.012 21.6632 150.746 21.6632 134.612C21.6632 114.746 21.9299 113.412 26.0632 101.279C36.9965 69.6792 58.1965 45.0125 84.9965 32.4792C109.663 21.0125 134.463 18.0792 160.197 23.4125ZM151.797 79.4125C167.397 87.2792 174.197 106.746 166.73 121.946C160.197 135.012 151.263 141.412 138.33 142.346C133.53 142.612 127.263 142.212 124.197 141.412C117.13 139.546 109.13 132.479 104.463 123.946C101.13 117.812 100.73 116.079 101.263 106.612C101.663 97.5458 102.197 95.4125 105.663 90.3458C109.93 84.3458 121.397 76.4792 127.53 75.5458C134.063 74.4792 145.663 76.3458 151.797 79.4125ZM151.797 164.612C156.997 165.812 164.063 167.812 167.397 169.279C182.197 175.812 195.663 190.612 202.597 207.679C207.53 219.679 207.397 223.012 202.063 227.146C193.93 233.279 180.463 240.212 168.33 244.346C156.863 248.346 155.397 248.612 135.663 248.479C120.197 248.479 112.73 247.812 106.33 246.079C88.3299 241.279 63.6632 226.879 63.6632 221.146C63.6632 217.012 69.6632 201.012 73.3965 195.012C78.0632 187.679 88.8632 177.412 97.3965 172.212C111.663 163.546 132.73 160.612 151.797 164.612Z" fill="#FFF"/>
<path d="M430.33 1.41216C408.464 3.81216 384.464 12.0788 368.864 22.6122C358.197 29.8122 340.464 47.6788 332.997 58.4788C319.53 78.3455 310.864 103.945 309.53 127.279C307.397 162.346 321.264 200.079 345.797 226.612C372.197 255.012 414.597 272.612 450.33 269.946C499.53 266.079 541.93 238.079 563.397 195.279C574.997 171.812 579.264 152.612 577.93 128.212C576.864 109.279 572.597 92.3455 564.464 75.2788C557.53 60.6122 549.664 50.0788 536.33 37.4122C519.664 21.6788 500.464 10.7455 478.997 4.87883C472.464 3.14549 443.53 -0.58784 440.997 0.0788271C440.597 0.21216 435.797 0.745494 430.33 1.41216ZM468.33 23.2788C490.464 27.9455 512.197 40.0788 526.33 55.5455C556.464 88.4788 565.93 131.546 551.53 171.012C547.664 181.679 540.464 195.679 535.93 201.279L533.397 204.479L527.664 192.879C520.597 178.746 508.864 166.079 494.064 156.746C488.33 153.146 483.664 149.546 483.664 148.746C483.664 147.946 486.064 143.679 488.997 139.412C504.864 116.079 501.397 87.4122 480.597 68.4788C469.264 58.2122 461.264 55.4122 443.664 55.4122C430.597 55.2788 428.997 55.5455 420.597 59.5455C393.53 72.4788 381.797 103.679 394.197 130.212C396.464 135.012 400.064 141.146 402.33 143.946L406.197 148.879L395.264 155.946C379.53 166.212 368.997 177.546 361.664 192.346C358.197 199.012 355.264 204.746 355.13 205.012C354.197 205.812 341.397 184.346 337.93 176.346C332.864 164.346 330.197 149.412 330.197 133.146C330.33 117.545 331.797 108.879 336.597 96.2122C343.264 78.2122 349.797 68.3455 364.197 53.9455C379.93 38.2122 402.464 25.9455 421.264 22.7455C432.73 20.8788 458.064 21.1455 468.33 23.2788ZM460.33 79.0122C472.997 85.4122 478.33 94.2122 478.33 108.212C478.33 118.345 475.264 125.546 468.33 132.612C461.264 139.546 454.064 142.612 443.93 142.612C430.064 142.612 417.53 134.346 411.93 121.412C408.73 114.079 409.264 100.612 412.997 92.8788C420.73 76.7455 442.997 70.0788 460.33 79.0122ZM460.73 164.746C476.33 167.946 485.93 173.146 495.797 183.546C509.397 198.079 518.864 219.146 514.197 224.746C511.53 227.946 491.93 239.146 483.13 242.479C452.197 254.079 418.597 251.412 389.397 235.146C377.264 228.346 372.997 224.479 372.997 219.812C372.997 210.346 382.33 193.812 394.597 181.546C410.197 165.812 435.264 159.546 460.73 164.746Z" fill="#FFF"/>
<path d="M742.33 1.41219C722.997 2.61219 701.93 9.27886 682.597 20.2122C669.93 27.4122 648.997 47.5455 640.73 60.6122C624.197 86.4789 617.264 111.946 618.73 140.612C620.464 174.346 635.264 207.812 658.33 230.479C674.464 246.479 699.397 260.346 723.397 266.879C738.597 271.012 767.93 271.012 783.664 266.746C814.597 258.612 849.264 234.612 864.33 211.279C872.33 198.746 880.464 180.346 883.797 167.279C886.33 157.279 886.864 151.812 886.864 134.612C886.864 116.212 886.464 112.479 883.264 100.612C878.597 83.9455 870.997 68.0789 860.997 54.8789C837.797 23.9455 799.797 3.27886 761.664 1.01219C758.064 0.745526 749.264 1.01219 742.33 1.41219ZM777.53 23.4122C783.397 24.6122 789.13 26.0789 790.197 26.7455C791.397 27.4122 796.33 29.6789 801.264 31.8122C849.397 52.8789 877.397 111.146 864.33 162.746C860.464 178.212 844.597 207.012 841.797 203.812C841.53 203.546 839.13 198.879 836.597 193.546C827.397 175.146 818.197 165.412 800.73 155.146C795.797 152.346 791.664 149.412 791.664 148.879C791.664 148.212 793.397 145.546 795.664 142.879C797.797 140.212 801.264 134.346 803.264 129.946C806.464 122.879 806.997 120.346 806.997 108.612C806.997 96.2122 806.73 94.6122 802.73 86.4789C791.53 63.9455 770.464 52.4789 745.797 55.4122C728.73 57.5455 716.197 65.1455 706.33 79.4122C694.33 96.4789 696.197 124.746 710.33 142.612C714.33 147.679 715.397 150.612 713.13 150.612C712.464 150.612 707.53 153.546 702.197 157.146C685.797 167.812 672.864 182.746 666.864 197.546C665.53 201.146 663.93 203.946 663.264 203.946C661.797 203.946 653.13 189.946 648.864 180.479C634.597 149.146 635.397 117.546 651.264 82.6122C658.464 67.0122 680.997 43.9455 697.797 35.0122C724.197 21.0122 747.797 17.6789 777.53 23.4122ZM765.13 76.6122C772.997 79.2789 780.33 85.5455 783.93 92.3455C787.797 99.8122 788.064 115.679 784.464 122.612C776.997 136.746 767.664 142.612 752.997 142.612C742.33 142.612 735.13 139.546 727.797 131.946C720.597 124.479 717.93 117.012 718.597 106.079C718.997 99.1455 719.93 96.2122 722.997 91.8122C733.53 76.8789 749.397 71.2789 765.13 76.6122ZM773.93 165.679C798.864 172.879 815.13 189.146 823.13 215.146L825.53 223.012L820.997 226.879C812.73 233.812 790.997 243.946 777.797 246.879C761.53 250.479 735.664 249.679 721.664 245.279C709.264 241.279 693.664 233.279 686.864 227.412C681.397 222.746 681.264 222.479 682.464 217.146C684.597 207.679 692.33 192.879 698.864 185.679C716.864 165.679 746.73 157.812 773.93 165.679Z" fill="#FFF"/>
<path d="M107.663 311.946C79.2634 318.079 56.8634 330.479 36.5968 351.279C-5.53657 394.479 -11.5366 464.212 22.1968 516.879C30.1968 529.412 50.0634 549.279 62.9968 557.412C84.9968 571.546 108.73 578.479 134.597 578.612C156.197 578.612 175.663 574.079 194.997 564.212C230.063 546.612 258.597 509.679 266.463 471.679C270.063 453.946 269.53 425.279 265.13 408.612C254.73 369.146 222.597 333.279 184.33 318.479C160.73 309.279 131.397 306.746 107.663 311.946ZM162.997 332.746C172.863 335.279 190.597 343.546 199.263 349.412C222.197 365.146 238.197 388.879 245.93 418.346C248.863 429.679 249.13 433.146 248.463 446.612C247.397 469.946 240.863 490.346 229.663 505.546C227.13 509.146 224.463 511.946 223.93 511.946C223.397 511.946 220.597 507.279 217.797 501.546C211.397 487.946 200.063 475.546 185.663 466.079C174.063 458.479 172.597 456.346 176.463 453.146C183.93 447.012 189.13 432.612 189.13 418.079C188.997 395.679 179.797 380.079 160.197 369.679C137.797 357.679 108.463 363.546 92.4634 383.012C75.5301 403.679 75.7968 431.546 92.9968 453.279C97.5301 459.012 97.7968 458.612 85.6634 465.279C73.1301 472.212 58.8634 487.679 51.7968 501.546C48.5968 508.079 45.7968 513.279 45.5301 513.279C44.4634 513.279 32.7301 494.346 30.0634 488.212C22.5968 471.546 19.3968 446.079 22.1968 426.612C28.1968 385.546 57.9301 350.079 98.3301 335.679C116.73 329.146 144.73 327.812 162.997 332.746ZM149.663 386.479C160.73 391.412 168.997 404.612 168.997 417.546C168.863 431.146 162.33 441.679 150.197 448.079C141.397 452.746 126.33 452.479 117.93 447.546C106.597 440.879 101.13 430.746 100.997 415.946C100.997 409.412 101.663 406.079 103.797 402.612C114.197 385.279 132.33 378.879 149.663 386.479ZM156.597 475.279C162.463 477.012 170.063 480.479 173.663 482.879C182.997 489.012 194.33 500.746 198.597 508.746C202.597 516.079 206.597 530.879 205.13 532.879C203.397 535.546 190.997 543.146 180.463 547.946C173.663 551.279 164.197 554.212 154.997 556.079C141.663 558.746 138.997 558.879 125.663 557.546C105.13 555.546 84.3301 547.679 69.1301 536.079C64.8634 532.879 64.7301 532.479 65.3968 525.812C67.3968 505.946 88.8634 482.612 112.063 475.146C125.797 470.746 142.463 470.746 156.597 475.279Z" fill="#FFF"/>
<path d="M420.064 311.279C368.864 320.612 326.064 360.346 312.597 411.279C308.864 425.279 308.597 458.212 312.064 472.612C318.864 500.079 331.397 521.412 353.664 543.146C368.997 558.079 389.397 569.146 412.197 574.746C427.93 578.612 452.064 579.546 466.73 576.746C496.73 571.012 519.397 558.479 541.264 535.412C565.13 510.346 576.73 482.612 577.664 448.612C578.33 428.746 576.33 414.479 570.997 399.812C554.73 354.612 519.397 323.012 473.13 312.479C456.997 308.879 436.197 308.346 420.064 311.279ZM474.997 333.946C490.864 338.612 510.064 349.146 520.997 359.546C536.597 374.212 548.864 395.012 554.464 416.079C558.464 431.279 558.464 454.612 554.597 469.946C550.597 484.879 537.264 511.946 533.664 511.946C532.997 511.946 529.664 506.746 526.33 500.346C518.864 486.079 505.797 472.212 492.064 464.212C482.464 458.612 480.997 457.012 483.797 455.146C487.397 452.879 495.397 438.212 496.997 430.746C499.53 418.612 498.197 403.412 493.797 394.479C488.73 383.946 478.33 374.079 466.33 368.212C456.864 363.546 455.53 363.279 443.664 363.279C432.33 363.412 430.064 363.812 422.33 367.412C410.197 373.146 399.397 383.412 394.064 394.346C389.93 402.746 389.664 404.079 389.664 417.279C389.664 432.879 391.53 438.612 400.33 450.612C402.864 454.079 404.997 457.279 404.997 457.679C404.997 458.079 400.597 461.146 395.264 464.479C378.864 474.612 367.664 487.012 359.797 503.679C357.264 509.012 354.73 513.279 354.33 513.279C352.864 513.279 341.13 492.746 337.53 483.946C332.33 471.146 330.33 459.679 330.33 442.479C330.33 423.412 333.264 410.746 341.53 393.946C355.797 365.146 374.997 348.212 406.597 336.346C427.264 328.479 453.264 327.679 474.997 333.946ZM453.797 384.612C462.197 387.146 470.064 393.812 474.33 402.079C478.73 410.746 478.997 424.746 474.73 432.612C468.864 443.812 458.864 450.479 446.464 451.546C435.93 452.479 428.997 450.212 421.13 443.146C408.597 431.946 405.797 415.946 413.797 401.146C418.064 393.279 423.397 388.879 432.597 385.279C440.464 382.212 445.264 382.079 453.797 384.612ZM464.997 474.612C488.597 481.546 508.73 501.946 514.464 524.746L516.064 531.146L511.13 535.412C508.33 537.812 501.53 542.212 495.93 545.012C460.73 563.279 422.33 562.612 388.997 543.146C373.53 534.079 372.597 533.012 373.53 526.212C375.53 512.879 386.864 495.412 399.664 486.079C418.997 471.812 441.797 467.812 464.997 474.612Z" fill="#FFF"/>
<path d="M724.997 311.813C687.663 320.079 658.197 341.279 637.13 375.013C625.13 394.346 619.93 412.479 618.73 438.613C617.93 458.346 619.53 470.079 625.797 488.213C637.663 523.279 668.33 555.013 704.197 569.279C722.463 576.613 736.463 579.013 756.997 578.213C795.13 576.746 824.33 563.546 850.997 535.813C874.597 511.146 887.663 478.479 887.663 443.946C887.663 380.879 848.063 330.213 785.663 313.279C770.197 309.013 740.597 308.346 724.997 311.813ZM780.997 333.146C785.797 334.479 792.997 337.013 796.997 338.613C828.73 351.146 854.863 381.279 863.797 415.546C868.73 434.746 867.13 463.679 859.797 484.613C856.33 494.346 844.597 513.279 841.797 513.279C841.397 513.279 838.73 508.213 835.93 502.079C829.13 487.813 815.663 473.146 801.53 465.013C796.063 461.813 791.663 458.746 791.663 458.079C791.663 457.413 793.93 453.813 796.863 450.079C804.73 439.679 806.997 432.213 806.997 416.613C806.997 404.346 806.597 402.613 802.73 394.613C792.33 373.279 767.263 359.813 745.263 363.946C728.197 367.013 710.997 378.879 704.463 391.946C698.863 403.013 696.597 416.879 698.597 427.946C700.063 436.346 702.997 442.479 709.53 451.146C714.33 457.413 715.397 459.946 713.13 459.946C712.33 459.946 708.063 462.079 703.397 464.879C690.73 472.079 677.263 486.746 670.463 500.479C667.397 506.746 664.33 512.213 663.663 512.613C660.197 514.746 646.597 487.813 642.063 469.813C637.797 452.746 637.797 429.679 642.063 415.946C649.397 392.479 657.263 378.613 670.73 364.879C688.33 347.013 713.263 334.346 737.663 330.613C749.13 328.879 770.863 330.213 780.997 333.146ZM766.597 385.813C772.863 388.879 780.33 396.213 784.063 403.279C786.197 407.146 786.863 410.879 786.863 417.413C786.863 438.613 770.863 453.413 750.33 451.546C741.13 450.746 734.063 447.679 728.197 441.679C721.663 435.279 719.397 429.813 718.597 419.679C717.93 410.079 720.063 403.946 727.263 395.279C736.997 383.679 753.797 379.679 766.597 385.813ZM772.997 474.079C789.797 478.746 810.73 495.546 817.53 509.813C819.53 514.079 821.93 520.879 822.73 524.879L824.33 532.346L819.397 536.479C808.863 545.679 785.93 554.613 765.663 557.546C744.33 560.613 716.863 554.746 697.397 543.146C680.063 532.746 679.13 529.279 688.33 510.879C696.997 493.679 710.063 482.346 728.597 475.813C743.13 470.613 757.93 470.079 772.997 474.079Z" fill="#FFF"/>
<path d="M125.93 618.879C123.13 622.079 118.863 627.279 116.597 630.612C114.33 633.945 102.463 649.812 90.1968 666.079C61.3968 704.212 60.7301 705.679 66.7301 712.745C69.7968 716.345 70.0635 716.345 85.9301 716.212C97.2635 716.079 102.463 716.479 103.397 717.679C104.063 718.612 104.597 739.812 104.597 771.012V822.745L107.663 825.945L110.73 829.279H173.797H236.863L239.53 825.812C242.063 822.479 242.33 820.479 242.33 798.612C242.33 777.279 242.063 774.612 239.797 771.812C237.263 768.612 237.13 768.612 201.397 767.945L165.663 767.279V741.945V716.612L182.73 715.945C198.997 715.279 199.93 715.145 202.33 711.945C205.93 707.279 205.663 704.612 200.863 696.745C196.063 689.012 171.93 655.545 161.663 642.612C157.93 637.812 152.597 630.479 149.797 626.212C140.197 611.679 134.463 609.812 125.93 618.879ZM144.33 654.212C148.73 660.479 157.263 671.945 163.397 679.679C169.397 687.412 174.197 693.812 174.063 694.079C173.797 694.212 168.863 694.745 162.997 695.279C151.53 696.345 148.463 697.412 146.463 701.012C145.13 703.545 144.33 732.212 144.73 763.012C144.997 781.945 145.13 782.879 148.33 785.945L151.53 789.279H186.33H220.997V798.612C220.997 806.612 220.597 807.945 218.73 808.079C209.663 808.612 127.263 807.812 126.33 807.279C125.663 806.879 125.13 783.412 125.263 755.012L125.397 703.412L121.13 699.679C117.397 696.345 115.93 695.945 107.93 695.945C102.997 695.945 98.1968 695.412 97.3968 694.879C96.1968 694.079 101.263 686.212 114.73 668.212C125.13 654.079 134.33 642.612 134.997 642.612C135.797 642.612 139.93 647.812 144.33 654.212Z" fill="#FFF"/>
<path d="M748.064 614.212C747.13 614.479 740.197 623.279 732.73 633.545C695.397 684.479 682.33 703.145 682.33 705.812C682.33 707.279 683.53 710.079 684.997 711.945C687.397 715.145 688.33 715.279 704.597 715.945L721.664 716.612V741.945V767.279L685.93 767.945L650.197 768.612L647.664 771.945C645.264 774.879 644.997 777.679 644.997 799.012C644.997 822.479 644.997 822.745 648.33 825.945L651.53 829.279H714.197H776.73L780.33 825.145L783.797 820.879L783.397 769.145C782.997 720.879 783.13 717.145 785.264 716.479C786.597 716.079 794.197 715.945 802.197 716.212C816.064 716.612 816.997 716.479 820.197 713.412C823.93 709.945 824.597 705.545 822.064 700.879C821.264 699.279 809.397 682.879 795.664 664.612C782.064 646.212 768.864 628.479 766.597 625.012C759.797 615.012 754.064 611.679 748.064 614.212ZM758.33 648.879C760.864 652.479 769.13 663.679 776.73 673.812C784.33 684.079 790.864 693.145 791.264 694.212C791.797 695.545 789.797 695.945 782.464 695.945C770.997 695.945 765.93 698.212 763.797 704.079C762.864 706.879 762.33 725.279 762.33 758.745V809.145L714.73 808.345C688.464 807.945 666.864 807.412 666.597 807.279C666.33 807.012 666.064 803.012 665.93 798.345L665.664 789.945L700.997 789.279C720.464 788.879 737.13 788.079 738.197 787.412C742.33 784.745 743.264 778.079 743.53 744.479C743.93 697.545 743.397 695.945 724.73 695.945C718.464 695.945 714.33 695.412 714.33 694.612C714.33 692.345 751.13 642.612 752.864 642.612C753.397 642.612 755.93 645.412 758.33 648.879Z" fill="#FFF"/>
<path d="M424.33 625.812C387.53 631.812 361.53 644.079 335.53 667.279C329.263 672.879 315.53 688.746 310.73 695.946C301.797 709.146 290.463 736.612 286.863 753.279C284.33 765.012 284.33 797.812 286.863 810.746C295.263 854.746 323.663 895.412 361.663 918.079C384.33 931.546 400.73 937.279 424.997 940.079C459.663 943.946 491.53 937.279 522.863 919.679C551.13 903.546 570.597 883.012 586.197 852.879C599.93 826.212 605.93 793.412 602.33 764.612C599.663 742.746 586.063 708.079 574.063 692.212C559.13 672.346 535.93 652.612 514.997 641.812C489.797 628.746 449.53 621.679 424.33 625.812ZM456.997 646.612C471.53 648.212 480.73 650.746 497.663 657.279C529.263 669.679 552.73 691.946 568.33 724.079C574.463 736.746 580.997 759.279 580.997 767.412V771.946H543.797H506.597L505.663 767.546C503.663 758.612 495.53 745.412 486.597 737.146C460.863 713.146 426.863 712.879 401.397 736.479C391.53 745.546 388.33 750.479 384.33 762.346L381.263 771.279L343.663 771.679L305.93 771.946L306.863 763.812C308.997 745.679 317.53 723.412 329.263 706.212C336.33 695.946 354.463 677.546 364.33 671.012C379.663 660.746 398.73 652.746 416.997 648.746C433.797 645.146 441.263 644.746 456.997 646.612ZM457.53 742.612C471.397 747.946 483.53 762.879 485.797 777.946C487.13 787.679 482.463 800.879 474.197 809.812C464.997 819.946 456.197 823.946 443.397 823.946C426.863 823.812 413.663 815.679 406.33 800.879C401.13 790.212 400.063 781.279 402.863 771.679C409.93 747.146 434.597 734.079 457.53 742.612ZM581.263 800.079C580.063 817.946 567.797 847.812 554.33 865.546C543.13 880.346 522.33 897.546 505.663 905.679C483.13 916.879 463.397 920.746 435.663 919.546C409.263 918.479 387.397 911.412 366.197 897.279C348.33 885.279 326.33 858.746 316.997 837.946C312.73 828.612 306.863 807.412 306.063 798.612L305.663 793.946L343.663 793.546L381.663 793.279L384.863 802.346C390.197 818.079 404.063 833.412 419.13 840.079C451.397 854.612 492.197 835.279 503.263 800.479L505.53 793.279L540.197 793.012C559.397 792.746 576.463 793.012 578.33 793.412C581.397 794.079 581.663 794.746 581.263 800.079Z" fill="#FFF"/>
<path d="M433.263 763.546C413.93 773.012 421.93 802.879 443.663 802.879C456.063 802.879 463.797 795.546 464.597 783.012C465.263 773.946 462.463 768.212 455.397 763.946C449.93 760.612 439.397 760.479 433.263 763.546Z" fill="#FFF"/>
</svg>
