<svg width="936" height="938" viewBox="0 0 936 938" fill="none" xmlns="http://www.w3.org/2000/svg">
<path d="M34 0.568058C29.2 0.968058 23.8667 2.03472 22 3.10139C14.8 6.83473 7.06667 14.3014 3.6 20.8347L0 27.7681V468.435V909.101L3.73333 916.568C8.13333 925.768 12.2667 930.035 20.4 934.035L26.6667 937.101H468H909.333L914.667 934.168C922 930.301 930.4 920.968 933.2 913.635C935.2 908.168 935.333 876.835 935.067 467.768L934.667 27.7681L931.067 21.1014C926.533 12.4347 918.933 5.36806 911.333 2.56806C905.867 0.568058 870.133 0.434725 474 0.0347249C236.8 -0.0986084 38.8 0.168058 34 0.568058ZM906.933 23.2347C914.533 27.3681 914 -4.89861 914 466.968C914 944.968 914.667 909.101 906.133 914.168C902.533 916.301 874.133 916.435 466.8 916.435H31.3333L26.6667 912.168L22 907.768L21.6 468.835L21.3333 29.9014L25.2 25.9014C27.3333 23.7681 30.5333 21.7681 32.5333 21.5014C34.4 21.2347 231.2 21.2347 469.733 21.2347C829.067 21.3681 904.133 21.7681 906.933 23.2347Z" fill="#FFF"/>
<path d="M101.6 55.1015C55.0667 55.7682 57.8667 55.2348 55.0667 63.7682C54.6667 65.2348 54.2667 248.435 54.1333 470.702L54 875.102L57.8667 879.368L61.7333 883.635L284.8 883.502C407.6 883.368 590.4 883.235 691.067 883.102H874.133L877.333 879.768L880.667 876.568V469.235V61.9015L877.733 58.4348L874.667 54.9682L509.333 54.7015C308.4 54.5682 124.933 54.7015 101.6 55.1015ZM856.4 75.9015L859.333 76.7015V469.235V861.768H467.733H76L76.1333 469.502V77.2348L79.4667 76.3015C83.4667 75.1015 852.133 74.8348 856.4 75.9015Z" fill="#FFF"/>
<path d="M142.666 134.435C138.266 138.701 138.4 141.368 144.133 160.035C148.666 174.568 156.8 203.101 161.466 220.435C162.533 224.435 164.8 232.301 166.533 237.768C168.266 243.235 172.266 256.168 175.333 266.435C178.4 276.701 181.6 287.235 182.533 289.768C183.733 293.235 194.4 304.168 223.333 331.635C244.933 352.035 273.466 378.968 286.666 391.635C299.866 404.301 314.933 418.435 320 423.101C336.533 438.168 360.666 461.901 360.666 463.235C360.666 463.901 349.466 476.835 335.733 491.901C321.866 506.968 303.866 526.835 295.6 536.168C287.333 545.501 279.866 553.235 278.933 553.501C278 553.635 268.933 545.368 258.8 535.101C242.933 518.968 239.733 516.435 236.133 516.435C232.533 516.435 229.2 519.235 211.066 537.501C182.533 566.168 181.866 561.101 218.133 596.701C233.6 611.901 246 624.968 245.733 625.635C244.8 628.301 167.066 705.768 165.333 705.768C164.266 705.768 163.066 705.101 162.533 704.301C160.533 700.968 153.2 699.235 147.866 700.568C132.4 704.835 119.333 733.635 123.2 755.235C127.066 777.635 143.6 797.635 164.8 805.501C185.2 812.968 208.4 809.101 223.2 795.635C233.066 786.701 234.933 780.035 229.733 770.968L226.8 765.635L240.666 751.368C248.4 743.501 266.4 725.235 280.666 710.701L306.666 684.435L334 712.435C369.733 749.101 364.933 748.835 396 715.768C418.4 691.635 418.533 694.035 394.4 669.635C384.266 659.368 375.866 650.568 375.6 649.901C375.333 649.235 390.666 634.168 409.6 616.301C428.533 598.435 449.066 578.835 455.2 572.835L466.533 561.768L471.2 566.035C479.333 573.501 496.4 589.635 520 611.901C532.533 623.768 546.4 636.835 551.066 641.101C555.6 645.368 559.333 649.368 559.333 650.168C559.333 650.968 550.8 660.168 540.533 670.701C516.4 694.968 516.266 692.168 541.466 718.168C561.466 738.835 563.333 740.301 569.333 740.435C572.8 740.435 577.066 736.701 600.933 712.568L628.533 684.835L648.4 704.968C659.2 716.035 677.2 734.301 688.266 745.635L708.266 766.168L705.6 772.435C701.866 781.368 703.2 786.701 711.066 794.301C718 801.101 725.066 804.835 736.266 807.768C750.133 811.368 763.466 809.368 778.666 801.635C789.333 796.035 792.933 793.101 799.333 784.568C814.933 763.768 816.8 740.701 804.4 717.501C798.4 706.301 791.466 700.435 784.266 700.435C781.066 700.435 776.8 701.501 774.266 703.101C771.866 704.568 769.066 705.768 768.133 705.768C767.2 705.768 763.466 702.568 760 698.701C756.4 694.968 738.933 676.968 720.933 658.701L688.266 625.768L715.2 598.968C730 584.168 743.066 570.301 744.133 568.168C745.466 565.501 745.733 563.235 745.066 561.101C744.533 559.235 734.8 548.568 723.466 537.101C705.733 519.368 702.266 516.435 698.8 516.435C695.2 516.435 691.866 519.235 676 535.101C665.733 545.368 657.066 553.768 656.533 553.768C655.866 553.768 635.6 531.901 588 479.901L572.266 462.701L579.466 456.035C583.466 452.301 596.266 440.168 608 429.101C619.733 418.035 646.133 393.101 666.666 373.768C733.2 311.235 750 294.835 751.866 291.235C752.933 289.368 754.933 283.501 756.4 278.435C757.866 273.235 761.866 259.501 765.333 247.768C768.8 236.035 774.133 217.101 777.333 205.768C780.4 194.435 785.866 175.501 789.2 163.768C795.866 140.968 796.133 136.701 790.667 133.235C785.733 130.035 792.4 128.435 727.333 147.901C713.733 151.901 695.2 157.635 686 160.435C676.8 163.235 660.666 168.168 650 171.368L630.666 177.101L609.866 198.435C598.4 210.168 578.4 231.501 565.333 245.768C552.133 260.035 536.8 276.568 531.2 282.435C519.466 294.701 511.333 303.635 489.333 327.768C480.8 337.235 472.266 346.435 470.666 348.168L467.733 351.368L460.533 343.635C456.533 339.501 452.8 335.368 452 334.568C449.733 331.901 431.333 312.435 419.333 299.768C413.066 293.101 390.933 269.501 370.4 247.101C349.733 224.701 326.4 199.768 318.4 191.635L304 176.968L287.333 172.035C235.6 156.835 216.8 151.235 186.533 141.635C168 135.901 151.333 131.101 149.466 131.101C147.466 131.101 144.4 132.568 142.666 134.435ZM762.8 179.901C759.6 190.835 753.466 211.768 749.333 226.435C745.2 241.101 739.866 259.768 737.333 267.768L732.8 282.568L717.066 296.968C708.4 304.968 695.6 316.968 688.666 323.635C681.733 330.301 667.866 343.235 658 352.435C648.133 361.501 631.333 377.368 620.666 387.768C594.8 412.968 560.8 444.835 558.666 446.168C557.333 446.835 552.4 442.301 542.666 431.635L528.4 416.035L536.266 407.901C549.6 393.901 612 330.701 644.4 298.301C678 264.701 678.666 263.768 672.533 255.901C670.533 253.368 668.533 252.435 664.933 252.435C660.133 252.435 657.2 255.235 586.666 325.901L513.466 399.501L498.4 383.901C490.133 375.368 483.333 367.901 483.333 367.235C483.333 366.701 484.4 365.101 485.733 363.635C487.066 362.301 492.266 356.301 497.2 350.435C502.266 344.568 512.533 333.501 520 325.768C527.333 318.035 536.266 308.435 539.6 304.435C542.933 300.435 552.533 289.901 560.8 280.968C569.2 272.168 587.333 252.568 601.333 237.635C639.6 196.568 638.533 197.368 652.266 193.101C658.666 191.235 676 185.768 690.666 181.101C705.333 176.435 726.933 169.901 738.666 166.435C750.4 162.968 761.466 159.768 763.333 159.235C765.2 158.568 767.2 158.568 767.733 159.101C768.4 159.635 766.133 168.968 762.8 179.901ZM177.2 161.235C188.666 164.168 216.666 172.568 248.666 182.568C263.733 187.368 280.133 192.435 285.066 194.035C293.733 196.701 294.933 197.635 309.2 212.301C317.466 220.835 331.333 235.501 340 245.101C355.066 261.635 375.733 283.901 400.666 310.435C406.933 317.101 419.466 330.568 428.666 340.435C437.866 350.301 446.266 359.235 447.333 360.435C448.4 361.635 451.733 365.235 454.533 368.435C457.333 371.768 464.933 379.768 471.333 386.435C481.466 397.101 529.466 448.435 546 466.435C549.466 470.035 561.733 483.368 573.466 495.768C585.066 508.301 597.6 521.768 601.333 525.768C604.933 529.768 614.4 540.035 622.266 548.568C643.866 571.635 643.2 567.768 628.533 582.568L616 595.101L445.066 423.635L274.133 252.035L268.666 252.835C265.6 253.235 262.266 254.568 261.333 256.035C259.2 258.701 258.8 265.501 260.533 268.168C261.066 269.101 337.466 346.168 430.133 439.368C522.8 532.568 598.666 609.501 598.666 610.301C598.666 611.235 593.333 616.968 586.933 623.101L575.2 634.168L565.6 624.968C543.6 604.035 530.4 591.635 502.666 565.768C486.533 550.701 466.8 532.168 458.666 524.435C450.533 516.701 439.466 506.301 434 501.235C428.533 496.168 417.466 485.635 409.333 477.901C401.333 470.035 385.333 454.968 374 444.435C362.666 433.901 341.733 414.168 327.466 400.568C313.333 386.835 300.133 374.301 298.133 372.568C292.8 367.768 278.666 354.568 265.333 341.768C258.8 335.501 243.733 321.368 232 310.435C204.133 284.301 201.2 281.235 200.266 277.635C198 268.168 190.8 242.168 187.333 231.101C177.6 199.635 167.333 163.901 167.333 161.635C167.333 158.568 166.933 158.568 177.2 161.235ZM392 491.101C399.333 497.635 405.333 503.901 405.333 504.968C405.333 507.768 320.533 593.901 318.266 593.501C317.2 593.235 311.466 587.901 305.733 581.501C295.866 570.835 295.2 569.768 296.933 567.235C299.866 562.968 327.333 532.301 350.533 507.235C362.4 494.568 372.933 482.968 374 481.635C375.066 480.301 376.666 479.101 377.333 479.101C378.133 479.101 384.666 484.568 392 491.101ZM435.466 532.035C442.133 538.568 448.133 543.901 448.8 544.168C451.6 545.235 449.466 548.568 439.733 557.768C434 563.101 422.666 573.901 414.666 581.635C406.533 589.368 395.466 599.901 390 604.968C384.533 610.035 375.466 618.701 369.866 624.168L359.6 634.035L347.333 621.901L334.933 609.901L352.133 592.168C361.6 582.435 378.266 565.235 389.333 554.035C400.266 542.835 412 530.701 415.333 527.101C418.666 523.368 421.866 520.435 422.4 520.435C423.066 520.435 428.933 525.635 435.466 532.035Z" fill="#FFF"/>
<path d="M236.8 549.368C240.667 554.301 244.667 556.435 244.667 553.635C244.667 552.968 244.133 552.701 243.333 553.101C242.667 553.501 242 553.368 242 552.568C242 550.835 238.133 547.101 236.4 547.101C235.6 547.101 235.733 548.035 236.8 549.368Z" fill="#FFF"/>
<path d="M234.4 554.701C232.134 555.501 232.134 557.368 234.4 558.168C235.467 558.568 236.134 557.768 236.134 556.301C236.134 554.835 236.134 553.768 236 553.901C236 553.901 235.2 554.301 234.4 554.701Z" fill="#FFF"/>
<path d="M223.333 560.435C222.133 561.235 222 561.768 222.933 561.768C223.733 561.768 224.933 561.101 225.333 560.435C226.4 558.835 225.867 558.835 223.333 560.435Z" fill="#FFF"/>
<path d="M248.4 560.035C249.2 560.301 249.733 561.235 249.2 561.901C248.8 562.568 249.466 563.101 250.8 563.101C252.533 563.101 252.666 562.701 251.333 561.101C250.4 560.035 248.933 559.101 248.133 559.235C247.2 559.235 247.333 559.501 248.4 560.035Z" fill="#FFF"/>
<path d="M219.333 563.101C219.333 563.901 220.266 564.435 221.333 564.435C222.4 564.435 223.333 564.168 223.333 563.901C223.333 563.635 222.4 563.101 221.333 562.568C220.266 562.168 219.333 562.435 219.333 563.101Z" fill="#FFF"/>
<path d="M240 572.435C239.6 573.235 240.133 573.368 241.2 572.968C243.6 572.035 244 571.101 242.133 571.101C241.333 571.101 240.4 571.635 240 572.435Z" fill="#FFF"/>
<path d="M269.2 593.101C270.267 594.168 271.467 595.101 271.867 595.101C272.267 595.101 272.267 594.168 271.867 593.101C271.333 592.035 270.133 591.101 269.067 591.101C267.467 591.101 267.467 591.368 269.2 593.101Z" fill="#FFF"/>
<path d="M280.667 616.168C277.333 617.768 277.6 621.901 281.333 625.768C284.933 629.501 288.667 629.768 288.667 626.301C288.667 624.035 290.267 623.901 292.133 625.768C293.2 626.835 294.133 626.568 295.333 625.235C296.667 623.501 296.533 622.968 294.8 622.301C293.6 621.901 292.933 620.968 293.333 620.435C293.733 619.901 292.133 619.101 289.867 618.835C287.733 618.435 285.6 618.701 285.2 619.368C284.8 619.901 285.467 620.435 286.533 620.435C287.733 620.435 288.667 621.368 288.667 622.435C288.667 623.501 288 624.435 287.2 624.435C286.533 624.435 286.267 625.101 286.8 625.901C287.2 626.701 286.133 626.301 284.133 625.101C280.133 622.435 280 622.168 282.667 619.635C286.133 616.035 285.067 614.168 280.667 616.168Z" fill="#FFF"/>
<path d="M274 617.635C274 618.301 274.667 619.368 275.333 619.768C276.133 620.168 276.667 620.035 276.667 619.235C276.667 618.568 276.133 617.501 275.333 617.101C274.667 616.701 274 616.835 274 617.635Z" fill="#FFF"/>
<path d="M304.4 624.168C303.067 624.435 302 625.235 302 625.902C302 626.702 302.933 626.702 304.4 625.902C306.133 624.968 307.467 625.102 308.4 626.035C309.467 627.102 310 627.235 310 626.168C310 624.302 307.467 623.368 304.4 624.168Z" fill="#FFF"/>
<path d="M305.6 629.368C305.067 629.768 304.667 630.835 304.667 631.635C304.667 632.435 305.333 632.301 306.267 631.368C307.067 630.568 307.467 629.501 307.2 629.101C306.8 628.701 306 628.835 305.6 629.368Z" fill="#FFF"/>
<path d="M708.8 557.368C712.533 561.901 715.6 564.701 716.267 563.901C716.667 563.501 715.067 561.368 712.667 559.101C708 554.701 706 553.768 708.8 557.368Z" fill="#FFF"/>
<path d="M668.667 592.568C668.667 593.235 669.333 593.501 670 593.101C670.8 592.701 671.333 592.035 671.333 591.635C671.333 591.368 670.8 591.101 670 591.101C669.333 591.101 668.667 591.768 668.667 592.568Z" fill="#FFF"/>
<path d="M665.333 599.101C664.933 599.768 665.2 600.435 665.866 600.435C666.666 600.435 667.333 599.768 667.333 599.101C667.333 598.301 667.066 597.768 666.8 597.768C666.4 597.768 665.733 598.301 665.333 599.101Z" fill="#FFF"/>
<path d="M670.4 601.501C669.333 602.168 669.2 603.235 670 604.435C670.933 606.035 671.6 606.035 674.533 604.435C678 602.701 679.2 600.435 676.666 600.435C676 600.435 675.333 600.968 675.333 601.635C675.333 602.301 674.4 603.101 673.466 603.501C672.133 604.035 671.733 603.635 672.266 602.301C673.066 600.168 672.666 600.035 670.4 601.501Z" fill="#FFF"/>
<path d="M667.333 609.768C667.333 610.435 668 611.101 668.666 611.101C669.466 611.101 670 610.435 670 609.768C670 608.968 669.466 608.435 668.666 608.435C668 608.435 667.333 608.968 667.333 609.768Z" fill="#FFF"/>
<path d="M612 632.435C610.666 633.901 609.866 635.368 610.266 635.768C610.666 636.168 611.733 635.635 612.666 634.435C614.933 631.768 616.8 631.901 615.733 634.701C615.2 636.568 615.333 636.701 616.533 635.635C618.133 634.168 617.2 629.768 615.333 629.768C614.8 629.768 613.333 630.968 612 632.435Z" fill="#FFF"/>
<path d="M631.733 633.235C629.333 634.435 627.733 636.035 628.266 636.701C628.666 637.501 629.466 637.235 630.266 635.901C630.933 634.701 633.2 633.768 635.466 633.768C637.866 633.768 639.2 633.235 638.666 632.435C637.6 630.701 636.8 630.835 631.733 633.235Z" fill="#FFF"/>
<path d="M576.667 678.435C575.2 680.168 575.333 680.301 577.2 679.635C578.4 679.235 579.333 678.301 579.333 677.635C579.333 675.901 578.533 676.168 576.667 678.435Z" fill="#FFF"/>
<path d="M262.667 649.768C262.267 650.435 262.4 651.101 263.2 651.101C263.867 651.101 264.933 650.435 265.333 649.768C265.733 648.968 265.6 648.435 264.8 648.435C264.133 648.435 263.067 648.968 262.667 649.768Z" fill="#FFF"/>
<path d="M694 667.768C694.933 668.835 696.267 669.768 696.933 669.768C697.733 669.768 697.6 668.835 696.667 667.768C695.733 666.701 694.4 665.768 693.733 665.768C692.933 665.768 693.067 666.701 694 667.768Z" fill="#FFF"/>
<path d="M686.133 679.368C686.8 680.701 687.866 681.768 688.266 681.768C688.666 681.768 688.666 681.368 688.266 680.835C687.733 680.435 688 679.235 688.8 678.301C689.866 676.968 689.6 676.568 687.6 676.835C685.466 676.968 685.066 677.501 686.133 679.368Z" fill="#FFF"/>
<path d="M682 680.568C682 681.235 682.667 681.501 683.333 681.101C684.133 680.701 684.667 680.035 684.667 679.635C684.667 679.368 684.133 679.101 683.333 679.101C682.667 679.101 682 679.768 682 680.568Z" fill="#FFF"/>
<path d="M688 684.435C688.266 684.968 687.733 686.435 686.8 687.901C684.666 690.701 685.466 693.901 688 692.968C689.066 692.568 689.466 691.368 689.066 690.301C688.666 689.235 689.066 688.435 689.866 688.435C690.666 688.435 691.333 687.368 691.333 686.035C691.333 684.701 690.4 683.501 689.333 683.501C688.266 683.501 687.733 683.901 688 684.435Z" fill="#FFF"/>
<path d="M691.333 689.768C691.333 690.435 692 691.101 692.666 691.101C693.466 691.101 694 690.435 694 689.768C694 688.968 693.466 688.435 692.666 688.435C692 688.435 691.333 688.968 691.333 689.768Z" fill="#FFF"/>
<path d="M704.133 691.768C704.667 692.835 705.2 693.768 705.467 693.768C705.733 693.768 706 692.835 706 691.768C706 690.701 705.467 689.768 704.667 689.768C704 689.768 703.733 690.701 704.133 691.768Z" fill="#FFF"/>
<path d="M678.666 701.768C679.066 702.435 680.666 703.768 682.133 704.568C684.666 705.901 684.8 705.768 683.333 703.235C682.533 701.635 680.933 700.435 679.866 700.435C678.8 700.435 678.266 700.968 678.666 701.768Z" fill="#FFF"/>
<path d="M706 706.435C706 707.101 706.667 708.701 707.333 709.768C708 710.835 708.667 711.101 708.667 710.435C708.667 709.635 708 708.168 707.333 707.101C706.667 706.035 706 705.635 706 706.435Z" fill="#FFF"/>
<path d="M689.467 711.635C689.867 712.835 691.2 713.768 692.4 713.768C693.467 713.768 694.133 713.635 693.867 713.368C693.6 713.235 692.267 712.168 690.933 711.235C688.933 709.635 688.667 709.635 689.467 711.635Z" fill="#FFF"/>
<path d="M710 710.968C710 711.768 710.667 712.701 711.333 713.101C712.133 713.501 712.667 712.968 712.667 711.901C712.667 710.701 712.133 709.768 711.333 709.768C710.667 709.768 710 710.301 710 710.968Z" fill="#FFF"/>
<path d="M722 725.635C722 726.301 722.667 727.368 723.333 727.768C724.133 728.168 724.667 728.035 724.667 727.235C724.667 726.568 724.133 725.501 723.333 725.101C722.667 724.701 722 724.835 722 725.635Z" fill="#FFF"/>
<path d="M739.333 725.768C739.333 726.435 740 727.101 740.666 727.101C741.466 727.101 742 726.435 742 725.768C742 724.968 741.466 724.435 740.666 724.435C740 724.435 739.333 724.968 739.333 725.768Z" fill="#FFF"/>
<path d="M340.266 651.901C339.466 652.701 348.133 660.435 349.733 660.435C350.133 660.435 348.533 658.301 346 655.768C340.933 650.435 341.333 650.835 340.266 651.901Z" fill="#FFF"/>
<path d="M355.333 666.301C355.333 666.568 356.4 667.635 357.733 668.568C359.733 670.301 359.866 670.168 358.133 668.035C356.4 665.901 355.333 665.235 355.333 666.301Z" fill="#FFF"/>
<path d="M198 709.235C198 709.635 198.8 710.835 199.867 711.901C201.6 713.501 201.867 713.501 201.6 711.101C201.467 708.835 198 706.968 198 709.235Z" fill="#FFF"/>
<path d="M242.8 711.368C243.2 711.901 244 712.435 244.8 712.435C245.466 712.435 246 711.901 246 711.368C246 710.701 245.066 710.168 244 710.168C242.933 710.168 242.4 710.701 242.8 711.368Z" fill="#FFF"/>
<path d="M220.4 713.368C221.333 713.768 222.533 713.635 222.933 713.235C223.467 712.835 222.667 712.435 221.2 712.568C219.733 712.568 219.333 712.968 220.4 713.368Z" fill="#FFF"/>
<path d="M751.466 758.301C750.266 759.635 750.399 760.301 751.733 760.835C752.799 761.235 753.466 760.435 753.466 758.968C753.466 755.901 753.466 755.901 751.466 758.301Z" fill="#FFF"/>
<path d="M175.333 767.101C175.333 767.768 174.667 768.435 173.867 768.435C173.067 768.435 171.467 769.368 170.267 770.568C168.267 772.568 168.4 772.701 170.933 771.901C174.4 770.835 176.133 773.101 174 775.768C172.667 777.368 172.8 777.768 174.533 777.768C175.733 777.768 176.667 776.968 176.667 775.901C176.667 774.835 177.6 773.768 178.667 773.235C179.733 772.835 180.667 773.101 180.667 773.635C180.667 774.301 179.867 775.101 179.067 775.368C178 775.768 178.533 776.568 180.4 777.635C182.533 778.835 183.333 778.835 183.333 777.635C183.333 776.835 184.533 776.435 186 776.835C187.733 777.235 188.667 776.835 188.667 775.635C188.667 774.701 189.867 773.235 191.333 772.435C193.6 771.235 194.667 771.635 197.467 774.435C201.867 778.968 203.467 777.501 199.2 772.968C194.933 768.435 191.067 766.301 192.133 769.101C192.8 770.568 192 771.101 189.2 771.235C181.067 771.635 179.467 770.835 182.133 767.501C183.867 765.235 183.867 765.235 181.467 767.101C179.467 768.568 178.8 768.701 178.4 767.368C177.733 765.501 175.333 765.235 175.333 767.101Z" fill="#FFF"/>
<path d="M169.333 775.235C167.867 777.502 169.067 777.635 171.867 775.635C174.133 774.035 174.133 773.768 172.4 773.768C171.2 773.768 169.733 774.435 169.333 775.235Z" fill="#FFF"/>
<path d="M171.333 782.035C171.333 783.368 176 784.435 184.266 784.968C192.4 785.368 194.933 784.301 191.333 782.035C189.733 781.101 188.533 780.968 188 781.768C187.466 782.568 186.533 782.701 185.733 782.168C183.6 780.968 171.333 780.835 171.333 782.035Z" fill="#FFF"/>
<path d="M195.333 783.101C195.333 783.768 196 784.435 196.666 784.435C197.466 784.435 198 783.768 198 783.101C198 782.301 197.466 781.768 196.666 781.768C196 781.768 195.333 782.301 195.333 783.101Z" fill="#FFF"/>
</svg>
