<svg width="848" height="944" viewBox="0 0 848 944" fill="none" xmlns="http://www.w3.org/2000/svg">
<path d="M47.3333 1.49744C24.6667 6.9641 5.06667 28.0308 1.33333 51.0974C0.533333 56.0308 0 213.231 0 472.164C0 843.631 0.266667 886.031 2.13333 893.364C5.2 905.097 10 913.764 18.4 922.564C26.4 930.964 33.4667 935.631 45.0667 940.031L52.6667 942.964L391.333 943.364C727.067 943.631 730 943.631 740.533 940.964C755.6 937.231 765.2 930.164 773.6 916.964C782.533 902.964 781.867 920.297 782 666.964V437.631L800 436.964C814.4 436.431 819.2 435.764 824.133 433.497C833.2 429.231 840 422.564 844.267 413.631L848 405.631V353.631V301.631L844.8 294.964C840.933 286.831 835.067 280.564 827.6 276.564C822.8 274.031 819.333 273.497 802 272.964L782 272.297V256.297V240.297L801.333 239.631C819.867 238.964 820.933 238.831 828 234.831C832 232.564 837.333 228.164 839.6 225.097C847.733 214.564 848.133 210.964 847.733 154.031L847.333 102.964L843.6 95.3641C841.333 90.8308 837.467 85.7641 834.267 83.0974C825.6 76.0308 818.533 74.2974 798.667 74.2974H781.333V59.2308C781.333 50.1641 780.533 41.0974 779.333 36.4308C775.867 22.9641 764.933 10.4308 751.333 4.03077L743.333 0.297436L398.667 0.0307691C131.067 -0.102564 52.5333 0.164102 47.3333 1.49744ZM83.6 404.964C83.8667 616.564 83.6 794.564 83.0667 800.564L82.2667 811.631H68.6667C51.8667 811.631 41.2 814.564 30.1333 822.297C25.8667 825.364 22.1333 827.497 21.8667 827.231C21.6 826.964 21.3333 653.231 21.3333 441.231C21.3333 61.6308 21.3333 55.6308 23.8667 48.8308C27.7333 38.8308 32.4 32.4308 39.4667 27.4974C48.6667 21.2308 54.8 19.7641 70 20.0308L83.3333 20.2974L83.6 404.964ZM740.533 21.7641C747.333 24.1641 754.533 30.2974 758.267 37.3641C760.533 41.3641 760.667 60.4308 760.667 412.964V784.297L757.733 789.764C753.2 798.297 748.267 803.497 740.8 807.364L734 810.964H419.333H104.667L104.267 416.031L104 21.0974L106.933 20.5641C108.667 20.2974 250.4 19.8974 422.133 19.7641C707.067 19.6308 734.8 19.7641 740.533 21.7641ZM817.867 97.6308C821.6 99.3641 823.733 101.631 825.6 105.897C828 111.364 828.133 114.697 827.733 158.697L827.333 205.897L824 210.697C822.267 213.364 819.333 216.164 817.6 216.964C815.867 217.764 807.2 218.697 798.533 219.231L782.667 220.031V196.164C782.667 182.964 782.667 155.231 782.533 134.297C782.533 113.364 782.533 95.7641 782.533 95.0974C782.667 94.5641 789.467 94.2974 797.733 94.5641C808.8 94.9641 814 95.7641 817.867 97.6308ZM818.133 295.097C826.8 299.231 826.8 299.764 826.933 354.431C827.067 408.831 827.2 407.764 818.267 412.564C813.6 415.097 786 416.831 784 414.831C782.667 413.497 782.133 384.031 782.533 330.564L782.667 292.964H798.133C809.733 292.964 814.8 293.497 818.133 295.097ZM760.8 857.097C760.933 896.297 760.133 902.297 753.333 910.564C751.067 913.231 746 916.964 742 918.831L734.8 922.297L394.4 922.031L54 921.631L46.4 917.897C32.6667 911.097 22.9333 896.831 21.7333 881.764C20.1333 861.764 31.8667 842.564 49.7333 835.764C57.0667 833.097 57.7333 833.097 381.733 832.831C560.267 832.697 706.933 832.964 707.733 833.497C708.933 834.164 709.2 860.431 708.133 866.697C708.133 867.231 569.6 867.631 400.4 867.497C231.067 867.364 91.3333 867.364 89.6 867.497C85.0667 867.764 81.3333 872.297 81.3333 877.631C81.3333 884.031 85.2 887.631 92.4 887.764C95.4667 887.897 237.2 887.764 407.333 887.631C694.667 887.497 716.933 887.231 720.533 885.231C728.8 880.431 729.333 878.297 729.733 854.431L730 832.564L737.6 830.831C745.6 828.964 755.2 824.697 756.667 822.297C757.2 821.497 758.267 821.097 759.067 821.364C760.267 821.764 760.667 831.631 760.8 857.097Z" fill="#FFF"/>
<path d="M615.867 64.0306C602.8 68.964 595.867 76.0306 592.8 88.0306C590.667 96.4306 591.6 107.097 595.2 113.897C598 119.231 606.533 127.097 612.133 129.364C621.6 133.231 627.6 133.497 637.467 130.297C653.2 125.231 661.333 113.497 661.333 95.764C661.333 83.6306 653.467 71.8973 641.2 65.4973C635.333 62.564 622 61.764 615.867 64.0306ZM632.667 84.164C637.333 86.164 641.333 92.0306 641.333 96.964C641.333 100.831 637.867 107.097 634.4 109.497C630.933 111.897 622.4 112.297 618.533 110.297C612.533 106.964 610 94.964 614.133 89.0973C616.267 86.164 622.933 82.4306 626.4 82.2973C627.333 82.2973 630.133 83.0973 632.667 84.164Z" fill="#FFF"/>
<path d="M202.133 66.5639C195.733 71.3639 194.667 76.0306 194.667 99.6306V120.964H171.067H147.6L142.4 126.297L137.333 131.764L137.067 150.697C136.533 189.497 136.533 189.897 139.467 193.764C145.867 202.431 147.2 202.831 170.8 202.564C183.6 202.431 193.067 202.831 194 203.631C195.067 204.564 195.333 210.164 194.933 224.164C194.267 245.897 195.333 251.097 201.6 256.297L205.733 259.764L235.867 259.364C276.8 258.831 275.867 259.631 276.667 225.897C276.933 214.431 277.467 204.431 277.867 203.764C278.4 203.097 288.533 202.431 300.667 202.297C312.8 202.297 324.133 201.631 325.733 200.831C327.333 200.031 330 197.497 331.733 195.097C334.533 190.964 334.667 189.631 334.667 161.631C334.667 133.631 334.533 132.297 331.733 128.031C330 125.631 327.733 123.231 326.667 122.697C325.6 122.164 313.867 121.364 300.667 120.964L276.667 120.297L276 96.1639C275.067 62.2973 276.667 63.6306 235.067 63.6306C207.467 63.7639 205.867 63.8973 202.133 66.5639ZM256 108.831C256 142.831 253.333 140.164 287.6 140.964L314 141.631L313.867 159.764C313.867 169.764 313.333 178.831 312.933 180.031C312.133 182.031 309.2 182.297 288 182.297H263.733L259.867 186.164L256 190.031V214.831V239.631H236H216V216.831C216 198.564 215.6 193.097 213.867 189.497C212.667 186.964 210.933 184.431 210.133 183.897C209.333 183.364 197.333 182.697 183.333 182.297L158 181.631V161.631V141.631L182 141.231C207.733 140.964 212.8 139.897 214.8 134.697C215.467 132.964 216 121.097 216 108.431C216 95.7639 216.4 85.0973 216.8 84.6973C217.2 84.2973 226.133 83.8973 236.8 83.7639L256 83.6306V108.831Z" fill="#FFF"/>
<path d="M545.6 129.764C536.933 134.031 530.4 141.631 527.6 150.431C524.267 160.431 524.8 167.097 529.2 176.564C537.467 194.031 559.2 201.897 576.4 193.631C598.8 182.964 602.8 152.031 584 135.231C576.533 128.297 571.2 126.297 560.933 126.297C554.533 126.297 550.8 127.097 545.6 129.764ZM569.467 149.097C577.2 154.564 577.333 166.964 569.6 172.964C560 180.697 543.6 171.097 545.867 159.097C547.867 148.564 560.933 142.964 569.467 149.097Z" fill="#FFF"/>
<path d="M677.867 128.831C664.667 134.831 656.4 149.231 657.6 164.164C658.667 177.097 665.333 187.364 676.667 193.364C684.267 197.497 701.067 197.497 708.933 193.364C716.8 189.097 723.6 181.364 726.133 173.764C728.933 165.497 728.133 152.964 724.267 145.497C721.067 139.097 712.133 130.831 705.867 128.164C699.467 125.497 684.533 125.764 677.867 128.831ZM699.2 147.897C702.533 149.364 708 158.431 708 162.431C708 166.164 702.533 173.097 698.133 174.964C688.533 178.964 677.333 171.231 677.333 160.697C677.333 156.431 678.267 154.431 681.867 150.831C686.8 145.897 692.8 144.831 699.2 147.897Z" fill="#FFF"/>
<path d="M617.333 191.497C611.2 193.497 605.866 196.697 601.466 201.231C587.2 215.364 588.666 241.764 604.266 252.964C628.666 270.697 661.2 254.964 661.333 225.631C661.333 207.097 647.466 192.564 628.4 190.964C624.133 190.697 619.2 190.831 617.333 191.497ZM635.866 214.164C639.066 217.364 641.733 226.431 640.533 229.764C637.466 238.297 627.466 242.831 620.266 239.097C614.533 236.164 612 231.897 612 225.231C612 220.564 612.8 218.697 615.866 215.497C619.2 212.297 620.8 211.631 626.533 211.631C631.466 211.631 634 212.297 635.866 214.164Z" fill="#FFF"/>
<path d="M396.666 245.097C344.4 255.764 304.666 281.097 272.266 323.897C242.533 363.364 229.066 414.164 234.8 466.031C242 532.697 287.733 594.964 350.4 623.764C377.2 636.164 402.4 641.497 433.333 641.497C467.866 641.497 490.667 636.297 519.2 622.164C541.067 611.231 557.333 599.497 576.133 580.964C600 557.764 619.733 520.164 628.267 482.164C630.933 470.164 631.333 464.697 631.333 441.631C631.333 418.697 630.8 412.964 628.267 401.097C620.267 365.231 605.6 335.764 582.533 309.631C553.6 276.564 511.467 252.831 468.133 244.964C447.866 241.364 414.266 241.364 396.666 245.097ZM467.733 266.297C499.733 272.697 531.2 289.231 555.867 312.431C568.4 324.164 576.133 334.164 586.267 351.497C599.2 373.497 609.2 402.964 609.733 420.831L610 430.164L582.667 430.564C567.6 430.697 545.067 430.831 532.533 430.564L509.733 430.297L507.467 421.897C503.733 407.764 497.467 397.231 486.933 386.697C448.933 348.697 388.133 359.097 363.333 407.631C361.2 411.631 358.533 418.297 357.333 422.297L355.2 429.631L304.933 430.031L254.8 430.297L255.466 423.364C256.533 412.697 262.533 388.031 266.266 378.964C279.733 346.564 292.4 327.631 312.266 310.297C345.6 281.364 374.533 268.431 418.666 263.097C428.4 261.897 454.533 263.631 467.733 266.297ZM456.133 389.897C473.867 398.697 485.2 414.297 488 433.897C490 448.564 488 458.564 480.667 470.964C466 495.631 435.333 504.964 409.333 492.831C399.066 488.031 392.266 481.897 385.2 471.097C378.666 461.231 377.2 455.764 377.2 441.631C377.2 421.231 383.333 408.164 398.4 396.697C410 387.897 420 384.831 435.466 385.364C446 385.631 448.8 386.297 456.133 389.897ZM356.8 455.497C360.133 471.097 368 485.764 378.266 496.031C394.133 511.764 406.4 516.964 428.666 517.897C454 518.964 471.2 512.564 488 495.764C496.4 487.364 498.933 483.764 502.4 475.364C504.8 469.764 507.333 462.164 508.267 458.431L509.733 451.764L560.533 452.031L611.333 452.297L610.933 458.964C610 472.564 602 501.631 594.533 518.031C588.667 530.964 574.133 551.764 561.6 565.097C536.4 591.897 503.333 610.297 467.333 617.764C449.466 621.364 414.533 621.231 397.2 617.364C379.6 613.364 369.6 609.897 354 602.031C315.466 582.831 283.066 547.897 268 509.364C262 494.031 256.266 472.297 255.066 459.897L254.266 451.364L305.2 451.764L356.133 452.164L356.8 455.497Z" fill="#FFF"/>
<path d="M424 411.897C403.467 417.631 395.467 443.231 408.667 461.097C415.2 470.031 422.933 473.497 434.667 472.697C446.8 471.764 454.133 467.497 459.067 458.697C466.8 444.431 465.067 431.231 454.133 420.297C445.067 411.231 435.6 408.564 424 411.897Z" fill="#FFF"/>
<path d="M241.867 696.164C235.067 699.097 233.867 706.964 239.333 712.297L242.533 715.631H433.333H624.133L627.467 712.031C631.467 707.764 631.067 702.164 626.533 697.631C624 694.964 622.133 694.964 434.933 694.697C278.8 694.431 245.333 694.697 241.867 696.164Z" fill="#FFF"/>
<path d="M311.867 750.164C309.733 752.297 308 755.097 308 756.297C308 759.497 311.6 765.897 314 766.831C315.2 767.231 368.933 767.631 433.333 767.631H550.4L553.867 763.497C558.133 758.431 558.267 755.497 554.133 750.697L550.933 746.964L433.333 746.564L315.867 746.297L311.867 750.164Z" fill="#FFF"/>
</svg>
