<svg width="1014" height="490" viewBox="0 0 1014 490" fill="none" xmlns="http://www.w3.org/2000/svg">
<path d="M366.853 19.8187C355.793 30.4613 341.395 42.7733 334.507 46.9468L322.405 54.6679L323.03 41.7298L323.866 28.7918L316.561 26.2877C299.868 20.4447 300.911 20.4447 287.764 31.5047C279.835 37.9737 269.609 49.8683 260.427 63.2237C252.289 75.1184 237.89 94.3164 228.291 106.211C213.474 124.366 210.136 130.001 207.005 141.478C203.458 154.416 196.363 169.441 189.268 179.04C187.598 181.335 180.712 186.761 174.034 190.934C167.357 195.316 161.096 200.742 160.053 203.246C159.009 205.75 151.08 224.115 142.316 243.939C123.117 287.761 120.405 297.777 122.7 313.219C123.534 319.48 124.995 329.914 125.83 336.592L127.291 348.277L119.152 352.451C104.545 359.964 103.501 362.468 103.084 387.3L102.667 409.629L110.805 416.723C115.397 420.689 120.613 427.575 122.7 432.375C131.673 452.2 140.229 458.25 145.028 447.817C148.158 440.931 151.289 441.14 152.958 448.234C155.045 457.625 166.105 476.823 170.696 479.744C174.452 482.04 175.495 481.623 180.712 476.198C184.051 472.65 189.894 463.259 193.65 455.121C200.536 440.93 200.954 440.513 208.466 440.513C215.77 440.513 216.397 441.14 222.03 452.408C225.37 459.086 229.543 464.719 231.63 465.138C236.221 465.972 247.907 453.66 252.915 442.808C255.21 437.8 258.966 433.627 263.349 431.54C274.409 426.323 276.913 420.48 278.374 397.108L279.625 376.032L270.861 367.267C266.27 362.468 262.306 357.877 262.306 356.833C262.306 355.999 265.227 350.573 268.774 344.73C273.783 336.592 275.87 330.331 277.33 316.976C279.416 300.281 279.835 299.447 284.843 299.656C289.016 299.656 291.103 297.777 295.068 289.639C300.702 278.37 304.876 277.327 311.553 285.466C317.188 292.561 321.361 290.891 327.204 279.414C329.708 274.406 332.003 270.232 332.212 269.814C332.421 269.606 334.925 270.232 337.847 271.484C340.976 272.945 345.359 278.788 348.698 285.675C356.837 302.16 371.652 324.071 377.078 327.41C381.043 329.706 383.13 329.288 394.607 323.028C403.372 318.228 408.588 316.35 410.884 317.602C419.439 322.401 451.993 329.914 473.905 332.001C508.337 335.339 561.758 329.497 572.609 321.15C574.279 319.689 579.078 321.567 587.217 326.575C593.895 330.748 600.781 334.088 602.659 334.088C608.501 334.088 623.735 313.846 635.63 290.683C638.343 285.257 642.933 280.875 648.36 277.953C658.584 272.736 658.793 272.736 658.793 277.119C659.002 279.206 662.132 286.092 665.889 292.352C673.192 304.872 679.244 307.168 682.791 299.03C685.921 291.725 693.433 292.978 696.356 301.534C697.607 305.29 700.946 310.507 703.659 313.219C708.667 318.019 708.876 318.019 713.258 314.263C718.057 309.881 717.223 309.254 727.031 325.323L732.456 334.505L723.275 342.435L714.093 350.364L714.302 369.771C714.719 393.769 716.806 399.195 727.448 406.082C732.874 409.42 737.464 414.637 739.968 420.063C744.769 430.288 753.533 440.513 757.915 440.513C761.045 440.513 767.097 432.584 771.062 423.193C772.939 418.602 774.818 417.559 780.452 417.559C786.713 417.559 787.547 418.393 792.973 430.705C798.607 443.644 809.667 459.294 813.215 459.294C818.223 459.294 831.578 439.261 836.169 424.445C839.925 412.968 841.595 412.133 844.308 420.271C849.942 437.175 856.829 434.462 868.514 411.298C872.271 403.786 877.905 395.439 881.035 392.935L886.669 387.926L885.835 363.928C884.791 337.426 884.374 336.383 867.889 327.619L861.628 324.071L860.793 298.404L859.958 272.528L844.516 236.217C831.578 205.75 828.031 199.281 821.771 194.482C801.946 179.874 788.382 160.05 785.043 141.061C782.956 129.583 775.235 116.854 763.966 106.211C758.75 101.203 743.516 81.3786 730.161 61.763C693.851 8.96746 692.599 8.13275 671.939 17.9406C660.254 23.3663 658.584 27.1225 662.758 38.1823C663.802 40.8951 665.262 50.077 666.097 58.6327L667.557 74.075L641.891 47.3642C627.7 32.548 613.093 19.1927 609.337 17.7319C594.52 11.4716 575.322 15.8538 575.322 25.6617C575.322 27.9571 579.078 34.0088 583.46 39.2258C596.607 54.0418 603.076 79.918 595.355 87.4303C592.851 89.9344 591.391 89.5171 584.295 84.7175C562.175 70.1101 525.03 63.641 474.113 65.5192C439.681 66.7712 426.952 69.2754 410.258 77.4138C401.076 82.0047 400.45 82.0047 395.233 78.4572C388.138 73.8663 388.138 68.6493 394.816 59.8848C397.528 56.3373 401.702 47.5729 403.789 40.4779C406.084 33.3827 409.841 24.827 412.345 21.2794C418.397 12.9323 417.353 8.34142 408.38 3.95919C393.355 -3.34453 388.972 -1.88379 366.853 19.8187ZM441.559 163.806L492.268 202.203L523.987 180.709C541.308 169.023 565.306 152.746 577.409 144.608L599.32 129.792L608.293 138.557C613.302 143.356 618.727 149.825 620.188 152.746L623.109 158.381L594.52 177.579C544.437 211.594 527.326 223.697 527.326 225.575C527.326 227.87 532.126 231.627 567.601 257.711C604.537 285.048 612.675 289.848 619.144 287.97C631.456 284.422 631.874 285.257 624.362 298.821C613.927 316.976 605.997 327.827 602.659 327.827C598.068 327.827 575.113 311.55 531.917 277.744L491.642 246.443L484.964 251.034C481.208 253.538 461.175 268.146 440.099 283.588C394.816 316.35 386.886 321.567 381.669 321.567C379.582 321.567 374.991 317.602 371.443 312.594C361.845 299.238 351.619 281.501 353.08 280.248C353.497 279.623 356.418 280.248 359.341 281.501C369.565 286.3 374.574 284.422 400.659 265.85C440.725 237.47 456.376 225.575 456.376 223.697C456.376 222.654 436.343 206.168 412.136 186.97C387.721 167.98 367.27 151.285 367.061 150.242C366.227 147.947 385.634 125.619 388.764 125.619C390.016 125.41 413.806 142.73 441.559 163.806Z" fill="white"/>
<path d="M12.731 310.614H42.8367L92.535 418.612H93.0128L142.95 310.614H173.056V477.868H141.755V376.082H141.278L102.809 454.452H82.7387L44.5092 376.082H44.0313V477.868H12.731V310.614ZM200.481 453.496V383.728L225.091 358.878H292.232L317.081 383.728V428.886H232.02V444.178L239.666 452.063H278.612L285.78 444.656V438.444H316.842V453.974L293.187 477.868H224.613L200.481 453.496ZM285.541 406.904V393.046L277.418 384.683H240.144L232.02 393.046V406.904H285.541ZM352.923 453.496V385.4H331.419V358.878H353.401V320.171H384.462V358.878H420.78V385.639H384.462V443.222L392.586 451.107H420.78V477.868H377.533L352.923 453.496ZM437.52 455.886V428.647L459.502 406.665H519.953V391.612L512.546 384.206H476.706L469.538 391.612V398.303H438.476V384.683L464.042 358.878H525.448L551.014 384.683V477.868H522.581V460.903L504.9 477.868H459.502L437.52 455.886ZM502.749 453.496L519.953 437.01V429.125H475.033L468.582 435.576V447.523L474.555 453.496H502.749ZM579.733 310.614H686.775L715.447 339.286V449.196L686.775 477.868H579.733V310.614ZM670.767 450.151L682.952 437.966V350.516L670.767 338.33H612.228V450.151H670.767ZM740.649 453.496V383.728L765.26 358.878H832.4L857.249 383.728V428.886H772.189V444.178L779.835 452.063H818.781L825.949 444.656V438.444H857.01V453.974L833.356 477.868H764.782L740.649 453.496ZM825.71 406.904V393.046L817.586 384.683H780.312L772.189 393.046V406.904H825.71ZM953.861 477.868L927.582 441.55L901.299 477.868H865.698L910.14 417.417L866.892 358.878H902.494L927.582 393.763L952.666 358.878H988.273L945.265 417.895L989.468 477.868H953.861Z" fill="white"/>
<mask id="mask0_188_21" style="mask-type:luminance" maskUnits="userSpaceOnUse" x="0" y="297" width="1014" height="193">
<path d="M1013.6 297.733H0V490H1013.6V297.733Z" fill="white"/>
<path d="M12.731 310.614H42.8367L92.535 418.612H93.0128L142.95 310.614H173.056V477.868H141.755V376.082H141.278L102.809 454.452H82.7387L44.5092 376.082H44.0313V477.868H12.731V310.614ZM200.481 453.496V383.728L225.091 358.878H292.232L317.081 383.728V428.886H232.02V444.178L239.666 452.063H278.612L285.78 444.656V438.444H316.842V453.974L293.187 477.868H224.613L200.481 453.496ZM285.541 406.904V393.046L277.418 384.683H240.144L232.02 393.046V406.904H285.541ZM352.923 453.496V385.4H331.419V358.878H353.401V320.171H384.462V358.878H420.78V385.639H384.462V443.222L392.586 451.107H420.78V477.868H377.533L352.923 453.496ZM437.52 455.886V428.647L459.502 406.665H519.953V391.612L512.546 384.206H476.706L469.538 391.612V398.303H438.476V384.683L464.042 358.878H525.448L551.014 384.683V477.868H522.581V460.903L504.9 477.868H459.502L437.52 455.886ZM502.749 453.496L519.953 437.01V429.125H475.033L468.582 435.576V447.523L474.555 453.496H502.749ZM579.733 310.614H686.775L715.447 339.286V449.196L686.775 477.868H579.733V310.614ZM670.767 450.151L682.952 437.966V350.516L670.767 338.33H612.228V450.151H670.767ZM740.649 453.496V383.728L765.26 358.878H832.4L857.249 383.728V428.886H772.189V444.178L779.835 452.063H818.781L825.949 444.656V438.444H857.01V453.974L833.356 477.868H764.782L740.649 453.496ZM825.71 406.904V393.046L817.586 384.683H780.312L772.189 393.046V406.904H825.71ZM953.861 477.868L927.582 441.55L901.299 477.868H865.698L910.14 417.417L866.892 358.878H902.494L927.582 393.763L952.666 358.878H988.273L945.265 417.895L989.468 477.868H953.861Z" fill="black"/>
</mask>
<g mask="url(#mask0_188_21)">
<path d="M12.7313 310.613V298.479H0.5979V310.613H12.7313ZM42.837 310.613L53.8593 305.541L50.6099 298.479H42.837V310.613ZM92.5353 418.611L81.5129 423.684L84.7623 430.744H92.5353V418.611ZM93.0131 418.611V430.744H100.77L104.026 423.703L93.0131 418.611ZM142.95 310.613V298.479H135.193L131.937 305.521L142.95 310.613ZM173.056 310.613H185.189V298.479H173.056V310.613ZM173.056 477.867V490H185.189V477.867H173.056ZM141.756 477.867H129.622V490H141.756V477.867ZM141.756 376.081H153.889V363.947H141.756V376.081ZM141.278 376.081V363.947H133.717L130.386 370.735L141.278 376.081ZM102.809 454.451V466.585H110.37L113.701 459.797L102.809 454.451ZM82.739 454.451L71.8339 459.771L75.1577 466.585H82.739V454.451ZM44.5095 376.081L55.4146 370.762L52.0908 363.947H44.5095V376.081ZM44.0316 376.081V363.947H31.8983V376.081H44.0316ZM44.0316 477.867V490H56.165V477.867H44.0316ZM12.7313 477.867H0.5979V490H12.7313V477.867ZM12.7313 310.613V322.746H42.837V310.613V298.479H12.7313V310.613ZM42.837 310.613L31.8146 315.686L81.5129 423.684L92.5353 418.611L103.558 413.539L53.8593 305.541L42.837 310.613ZM92.5353 418.611V430.744H93.0131V418.611V406.478H92.5353V418.611ZM93.0131 418.611L104.026 423.703L153.964 315.705L142.95 310.613L131.937 305.521L82.0001 413.519L93.0131 418.611ZM142.95 310.613V322.746H173.056V310.613V298.479H142.95V310.613ZM173.056 310.613H160.923V477.867H173.056H185.189V310.613H173.056ZM173.056 477.867V465.733H141.756V477.867V490H173.056V477.867ZM141.756 477.867H153.889V376.081H141.756H129.622V477.867H141.756ZM141.756 376.081V363.947H141.278V376.081V388.214H141.756V376.081ZM141.278 376.081L130.386 370.735L91.9174 449.105L102.809 454.451L113.701 459.797L152.17 381.427L141.278 376.081ZM102.809 454.451V442.318H82.739V454.451V466.585H102.809V454.451ZM82.739 454.451L93.6441 449.132L55.4146 370.762L44.5095 376.081L33.6044 381.401L71.8339 459.771L82.739 454.451ZM44.5095 376.081V363.947H44.0316V376.081V388.214H44.5095V376.081ZM44.0316 376.081H31.8983V477.867H44.0316H56.165V376.081H44.0316ZM44.0316 477.867V465.733H12.7313V477.867V490H44.0316V477.867ZM12.7313 477.867H24.8646V310.613H12.7313H0.5979V477.867H12.7313ZM200.481 453.495H188.348V458.486L191.859 462.033L200.481 453.495ZM200.481 383.727L191.86 375.189L188.348 378.735V383.727H200.481ZM225.091 358.878V346.744H220.031L216.47 350.339L225.091 358.878ZM292.232 358.878L300.811 350.298L297.258 346.744H292.232V358.878ZM317.081 383.727H329.214V378.701L325.66 375.147L317.081 383.727ZM317.081 428.885V441.019H329.214V428.885H317.081ZM232.021 428.885V416.752H219.887V428.885H232.021ZM232.021 444.177H219.887V449.094L223.31 452.624L232.021 444.177ZM239.666 452.062L230.956 460.509L234.531 464.195H239.666V452.062ZM278.613 452.062V464.195H283.755L287.332 460.5L278.613 452.062ZM285.781 444.655L294.5 453.093L297.914 449.564V444.655H285.781ZM285.781 438.443V426.309H273.647V438.443H285.781ZM316.842 438.443H328.975V426.309H316.842V438.443ZM316.842 453.973L325.464 462.51L328.975 458.964V453.973H316.842ZM293.188 477.867V490H298.249L301.81 486.403L293.188 477.867ZM224.614 477.867L215.991 486.404L219.553 490H224.614V477.867ZM285.542 406.903V419.037H297.675V406.903H285.542ZM285.542 393.045H297.675V388.122L294.245 384.591L285.542 393.045ZM277.418 384.682L286.121 376.228L282.547 372.549H277.418V384.682ZM240.144 384.682V372.549H235.016L231.441 376.228L240.144 384.682ZM232.021 393.045L223.317 384.591L219.887 388.122V393.045H232.021ZM232.021 406.903H219.887V419.037H232.021V406.903ZM200.481 453.495H212.615V383.727H200.481H188.348V453.495H200.481ZM200.481 383.727L209.102 392.265L233.713 367.416L225.091 358.878L216.47 350.339L191.86 375.189L200.481 383.727ZM225.091 358.878V371.011H292.232V358.878V346.744H225.091V358.878ZM292.232 358.878L283.653 367.457L308.502 392.306L317.081 383.727L325.66 375.147L300.811 350.298L292.232 358.878ZM317.081 383.727H304.948V428.885H317.081H329.214V383.727H317.081ZM317.081 428.885V416.752H232.021V428.885V441.019H317.081V428.885ZM232.021 428.885H219.887V444.177H232.021H244.154V428.885H232.021ZM232.021 444.177L223.31 452.624L230.956 460.509L239.666 452.062L248.377 443.615L240.731 435.73L232.021 444.177ZM239.666 452.062V464.195H278.613V452.062V439.928H239.666V452.062ZM278.613 452.062L287.332 460.5L294.5 453.093L285.781 444.655L277.061 436.218L269.893 443.625L278.613 452.062ZM285.781 444.655H297.914V438.443H285.781H273.647V444.655H285.781ZM285.781 438.443V450.576H316.842V438.443V426.309H285.781V438.443ZM316.842 438.443H304.709V453.973H316.842H328.975V438.443H316.842ZM316.842 453.973L308.22 445.437L284.565 469.33L293.188 477.867L301.81 486.403L325.464 462.51L316.842 453.973ZM293.188 477.867V465.733H224.614V477.867V490H293.188V477.867ZM224.614 477.867L233.236 469.33L209.103 444.958L200.481 453.495L191.859 462.033L215.991 486.404L224.614 477.867ZM285.542 406.903H297.675V393.045H285.542H273.408V406.903H285.542ZM285.542 393.045L294.245 384.591L286.121 376.228L277.418 384.682L268.715 393.137L276.838 401.499L285.542 393.045ZM277.418 384.682V372.549H240.144V384.682V396.816H277.418V384.682ZM240.144 384.682L231.441 376.228L223.317 384.591L232.021 393.045L240.724 401.499L248.848 393.137L240.144 384.682ZM232.021 393.045H219.887V406.903H232.021H244.154V393.045H232.021ZM232.021 406.903V419.037H285.542V406.903V394.77H232.021V406.903ZM352.923 453.495H340.79V458.556L344.386 462.117L352.923 453.495ZM352.923 385.399H365.056V373.266H352.923V385.399ZM331.419 385.399H319.286V397.533H331.419V385.399ZM331.419 358.878V346.744H319.286V358.878H331.419ZM353.401 358.878V371.011H365.534V358.878H353.401ZM353.401 320.17V308.037H341.268V320.17H353.401ZM384.462 320.17H396.596V308.037H384.462V320.17ZM384.462 358.878H372.329V371.011H384.462V358.878ZM420.78 358.878H432.914V346.744H420.78V358.878ZM420.78 385.638V397.772H432.914V385.638H420.78ZM384.462 385.638V373.505H372.329V385.638H384.462ZM384.462 443.221H372.329V448.354L376.012 451.928L384.462 443.221ZM392.586 451.106L384.136 459.813L387.666 463.24H392.586V451.106ZM420.78 451.106H432.914V438.973H420.78V451.106ZM420.78 477.867V490H432.914V477.867H420.78ZM377.533 477.867L368.996 486.488L372.542 490H377.533V477.867ZM352.923 453.495H365.056V385.399H352.923H340.79V453.495H352.923ZM352.923 385.399V373.266H331.419V385.399V397.533H352.923V385.399ZM331.419 385.399H343.552V358.878H331.419H319.286V385.399H331.419ZM331.419 358.878V371.011H353.401V358.878V346.744H331.419V358.878ZM353.401 358.878H365.534V320.17H353.401H341.268V358.878H353.401ZM353.401 320.17V332.304H384.462V320.17V308.037H353.401V320.17ZM384.462 320.17H372.329V358.878H384.462H396.596V320.17H384.462ZM384.462 358.878V371.011H420.78V358.878V346.744H384.462V358.878ZM420.78 358.878H408.647V385.638H420.78H432.914V358.878H420.78ZM420.78 385.638V373.505H384.462V385.638V397.772H420.78V385.638ZM384.462 385.638H372.329V443.221H384.462H396.596V385.638H384.462ZM384.462 443.221L376.012 451.928L384.136 459.813L392.586 451.106L401.036 442.399L392.913 434.514L384.462 443.221ZM392.586 451.106V463.24H420.78V451.106V438.973H392.586V451.106ZM420.78 451.106H408.647V477.867H420.78H432.914V451.106H420.78ZM420.78 477.867V465.733H377.533V477.867V490H420.78V477.867ZM377.533 477.867L386.07 469.246L361.46 444.874L352.923 453.495L344.386 462.117L368.996 486.488L377.533 477.867ZM437.521 455.885H425.387V460.911L428.941 464.464L437.521 455.885ZM437.521 428.646L428.941 420.067L425.387 423.62V428.646H437.521ZM459.503 406.664V394.531H454.477L450.923 398.085L459.503 406.664ZM519.953 406.664V418.798H532.086V406.664H519.953ZM519.953 391.612H532.086V386.586L528.532 383.032L519.953 391.612ZM512.546 384.205L521.125 375.625L517.572 372.071H512.546V384.205ZM476.706 384.205V372.071H471.563L467.987 375.767L476.706 384.205ZM469.538 391.612L460.819 383.174L457.404 386.702V391.612H469.538ZM469.538 398.302V410.435H481.671V398.302H469.538ZM438.476 398.302H426.343V410.435H438.476V398.302ZM438.476 384.682L429.857 376.142L426.343 379.69V384.682H438.476ZM464.042 358.878V346.744H458.984L455.423 350.338L464.042 358.878ZM525.448 358.878L534.068 350.338L530.507 346.744H525.448V358.878ZM551.014 384.682H563.148V379.69L559.634 376.142L551.014 384.682ZM551.014 477.867V490H563.148V477.867H551.014ZM522.581 477.867H510.448V490H522.581V477.867ZM522.581 460.902H534.715V432.446L514.181 452.147L522.581 460.902ZM504.9 477.867V490H509.78L513.3 486.622L504.9 477.867ZM459.503 477.867L450.923 486.446L454.477 490H459.503V477.867ZM502.75 453.495V465.629H507.624L511.145 462.256L502.75 453.495ZM519.953 437.009L528.348 445.769L532.086 442.187V437.009H519.953ZM519.953 429.124H532.086V416.991H519.953V429.124ZM475.033 429.124V416.991H470.007L466.454 420.545L475.033 429.124ZM468.582 435.575L460.003 426.996L456.449 430.549V435.575H468.582ZM468.582 447.522H456.449V452.548L460.003 456.101L468.582 447.522ZM474.555 453.495L465.976 462.075L469.529 465.629H474.555V453.495ZM437.521 455.885H449.654V428.646H437.521H425.387V455.885H437.521ZM437.521 428.646L446.1 437.226L468.082 415.244L459.503 406.664L450.923 398.085L428.941 420.067L437.521 428.646ZM459.503 406.664V418.798H519.953V406.664V394.531H459.503V406.664ZM519.953 406.664H532.086V391.612H519.953H507.82V406.664H519.953ZM519.953 391.612L528.532 383.032L521.125 375.625L512.546 384.205L503.967 392.784L511.374 400.191L519.953 391.612ZM512.546 384.205V372.071H476.706V384.205V396.338H512.546V384.205ZM476.706 384.205L467.987 375.767L460.819 383.174L469.538 391.612L478.257 400.05L485.425 392.643L476.706 384.205ZM469.538 391.612H457.404V398.302H469.538H481.671V391.612H469.538ZM469.538 398.302V386.168H438.476V398.302V410.435H469.538V398.302ZM438.476 398.302H450.61V384.682H438.476H426.343V398.302H438.476ZM438.476 384.682L447.096 393.222L472.662 367.418L464.042 358.878L455.423 350.338L429.857 376.142L438.476 384.682ZM464.042 358.878V371.011H525.448V358.878V346.744H464.042V358.878ZM525.448 358.878L516.829 367.418L542.395 393.222L551.014 384.682L559.634 376.142L534.068 350.338L525.448 358.878ZM551.014 384.682H538.881V477.867H551.014H563.148V384.682H551.014ZM551.014 477.867V465.733H522.581V477.867V490H551.014V477.867ZM522.581 477.867H534.715V460.902H522.581H510.448V477.867H522.581ZM522.581 460.902L514.181 452.147L496.5 469.111L504.9 477.867L513.3 486.622L530.981 469.658L522.581 460.902ZM504.9 477.867V465.733H459.503V477.867V490H504.9V477.867ZM459.503 477.867L468.082 469.288L446.1 447.306L437.521 455.885L428.941 464.464L450.923 486.446L459.503 477.867ZM502.75 453.495L511.145 462.256L528.348 445.769L519.953 437.009L511.557 428.249L494.354 444.735L502.75 453.495ZM519.953 437.009H532.086V429.124H519.953H507.82V437.009H519.953ZM519.953 429.124V416.991H475.033V429.124V441.258H519.953V429.124ZM475.033 429.124L466.454 420.545L460.003 426.996L468.582 435.575L477.161 444.155L483.612 437.703L475.033 429.124ZM468.582 435.575H456.449V447.522H468.582H480.715V435.575H468.582ZM468.582 447.522L460.003 456.101L465.976 462.075L474.555 453.495L483.135 444.916L477.161 438.943L468.582 447.522ZM474.555 453.495V465.629H502.75V453.495V441.362H474.555V453.495ZM579.733 310.613V298.479H567.6V310.613H579.733ZM686.776 310.613L695.355 302.034L691.802 298.479H686.776V310.613ZM715.448 339.285H727.581V334.259L724.027 330.706L715.448 339.285ZM715.448 449.195L724.027 457.774L727.581 454.221V449.195H715.448ZM686.776 477.867V490H691.802L695.355 486.446L686.776 477.867ZM579.733 477.867H567.6V490H579.733V477.867ZM670.767 450.15V462.284H675.793L679.346 458.73L670.767 450.15ZM682.953 437.965L691.532 446.544L695.086 442.991V437.965H682.953ZM682.953 350.515H695.086V345.489L691.532 341.936L682.953 350.515ZM670.767 338.329L679.346 329.75L675.793 326.196H670.767V338.329ZM612.228 338.329V326.196H600.095V338.329H612.228ZM612.228 450.15H600.095V462.284H612.228V450.15ZM579.733 310.613V322.746H686.776V310.613V298.479H579.733V310.613ZM686.776 310.613L678.196 319.192L706.868 347.864L715.448 339.285L724.027 330.706L695.355 302.034L686.776 310.613ZM715.448 339.285H703.314V449.195H715.448H727.581V339.285H715.448ZM715.448 449.195L706.868 440.615L678.196 469.288L686.776 477.867L695.355 486.446L724.027 457.774L715.448 449.195ZM686.776 477.867V465.733H579.733V477.867V490H686.776V477.867ZM579.733 477.867H591.866V310.613H579.733H567.6V477.867H579.733ZM670.767 450.15L679.346 458.73L691.532 446.544L682.953 437.965L674.373 429.386L662.188 441.571L670.767 450.15ZM682.953 437.965H695.086V350.515H682.953H670.819V437.965H682.953ZM682.953 350.515L691.532 341.936L679.346 329.75L670.767 338.329L662.188 346.908L674.373 359.094L682.953 350.515ZM670.767 338.329V326.196H612.228V338.329V350.463H670.767V338.329ZM612.228 338.329H600.095V450.15H612.228H624.361V338.329H612.228ZM612.228 450.15V462.284H670.767V450.15V438.017H612.228V450.15ZM740.65 453.495H728.516V458.486L732.027 462.033L740.65 453.495ZM740.65 383.727L732.028 375.189L728.516 378.735V383.727H740.65ZM765.26 358.878V346.744H760.199L756.639 350.339L765.26 358.878ZM832.4 358.878L840.98 350.298L837.426 346.744H832.4V358.878ZM857.249 383.727H869.383V378.701L865.829 375.147L857.249 383.727ZM857.249 428.885V441.019H869.383V428.885H857.249ZM772.189 428.885V416.752H760.055V428.885H772.189ZM772.189 444.177H760.055V449.094L763.478 452.624L772.189 444.177ZM779.835 452.062L771.124 460.509L774.7 464.195H779.835V452.062ZM818.781 452.062V464.195H823.924L827.5 460.5L818.781 452.062ZM825.949 444.655L834.668 453.093L838.082 449.564V444.655H825.949ZM825.949 438.443V426.309H813.816V438.443H825.949ZM857.01 438.443H869.144V426.309H857.01V438.443ZM857.01 453.973L865.633 462.51L869.144 458.964V453.973H857.01ZM833.356 477.867V490H838.418L841.978 486.403L833.356 477.867ZM764.782 477.867L756.16 486.404L759.721 490H764.782V477.867ZM825.71 406.903V419.037H837.843V406.903H825.71ZM825.71 393.045H837.843V388.122L834.413 384.591L825.71 393.045ZM817.586 384.682L826.29 376.228L822.715 372.549H817.586V384.682ZM780.313 384.682V372.549H775.184L771.609 376.228L780.313 384.682ZM772.189 393.045L763.486 384.591L760.055 388.122V393.045H772.189ZM772.189 406.903H760.055V419.037H772.189V406.903ZM740.65 453.495H752.783V383.727H740.65H728.516V453.495H740.65ZM740.65 383.727L749.271 392.265L773.881 367.416L765.26 358.878L756.639 350.339L732.028 375.189L740.65 383.727ZM765.26 358.878V371.011H832.4V358.878V346.744H765.26V358.878ZM832.4 358.878L823.821 367.457L848.67 392.306L857.249 383.727L865.829 375.147L840.98 350.298L832.4 358.878ZM857.249 383.727H845.116V428.885H857.249H869.383V383.727H857.249ZM857.249 428.885V416.752H772.189V428.885V441.019H857.249V428.885ZM772.189 428.885H760.055V444.177H772.189H784.322V428.885H772.189ZM772.189 444.177L763.478 452.624L771.124 460.509L779.835 452.062L788.546 443.615L780.9 435.73L772.189 444.177ZM779.835 452.062V464.195H818.781V452.062V439.928H779.835V452.062ZM818.781 452.062L827.5 460.5L834.668 453.093L825.949 444.655L817.23 436.218L810.062 443.625L818.781 452.062ZM825.949 444.655H838.082V438.443H825.949H813.816V444.655H825.949ZM825.949 438.443V450.576H857.01V438.443V426.309H825.949V438.443ZM857.01 438.443H844.877V453.973H857.01H869.144V438.443H857.01ZM857.01 453.973L848.388 445.437L824.734 469.33L833.356 477.867L841.978 486.403L865.633 462.51L857.01 453.973ZM833.356 477.867V465.733H764.782V477.867V490H833.356V477.867ZM764.782 477.867L773.404 469.33L749.272 444.958L740.65 453.495L732.027 462.033L756.16 486.404L764.782 477.867ZM825.71 406.903H837.843V393.045H825.71H813.577V406.903H825.71ZM825.71 393.045L834.413 384.591L826.29 376.228L817.586 384.682L808.883 393.137L817.007 401.499L825.71 393.045ZM817.586 384.682V372.549H780.313V384.682V396.816H817.586V384.682ZM780.313 384.682L771.609 376.228L763.486 384.591L772.189 393.045L780.892 401.499L789.016 393.137L780.313 384.682ZM772.189 393.045H760.055V406.903H772.189H784.322V393.045H772.189ZM772.189 406.903V419.037H825.71V406.903V394.77H772.189V406.903ZM953.861 477.867L944.033 484.981L947.664 490H953.861V477.867ZM927.582 441.549L937.416 434.436L927.582 420.853L917.752 434.436L927.582 441.549ZM901.299 477.867V490H907.496L911.129 484.981L901.299 477.867ZM865.698 477.867L855.922 470.68L841.719 490H865.698V477.867ZM910.14 417.416L919.915 424.603L925.212 417.399L919.899 410.206L910.14 417.416ZM866.893 358.878V346.744H842.843L857.134 366.088L866.893 358.878ZM902.494 358.878L912.344 351.794L908.713 346.744H902.494V358.878ZM927.582 393.762L917.732 400.846L927.582 414.543L937.434 400.846L927.582 393.762ZM952.666 358.878V346.744H946.45L942.82 351.794L952.666 358.878ZM988.273 358.878L998.073 366.023L1012.13 346.744H988.273V358.878ZM945.265 417.894L935.456 410.749L930.22 417.935L935.493 425.093L945.265 417.894ZM989.468 477.867V490H1013.48L999.23 470.668L989.468 477.867ZM953.861 477.867L963.698 470.754L937.416 434.436L927.582 441.549L917.752 448.663L944.033 484.981L953.861 477.867ZM927.582 441.549L917.752 434.436L891.469 470.754L901.299 477.867L911.129 484.981L937.416 448.663L927.582 441.549ZM901.299 477.867V465.733H865.698V477.867V490H901.299V477.867ZM865.698 477.867L875.474 485.053L919.915 424.603L910.14 417.416L900.364 410.23L855.922 470.68L865.698 477.867ZM910.14 417.416L919.899 410.206L876.652 351.668L866.893 358.878L857.134 366.088L900.381 424.626L910.14 417.416ZM866.893 358.878V371.011H902.494V358.878V346.744H866.893V358.878ZM902.494 358.878L892.643 365.962L917.732 400.846L927.582 393.762L937.434 386.678L912.344 351.794L902.494 358.878ZM927.582 393.762L937.434 400.846L962.522 365.962L952.666 358.878L942.82 351.794L917.732 386.678L927.582 393.762ZM952.666 358.878V371.011H988.273V358.878V346.744H952.666V358.878ZM988.273 358.878L978.464 351.732L935.456 410.749L945.265 417.894L955.065 425.04L998.073 366.023L988.273 358.878ZM945.265 417.894L935.493 425.093L979.696 485.066L989.468 477.867L999.23 470.668L955.028 410.695L945.265 417.894ZM989.468 477.867V465.733H953.861V477.867V490H989.468V477.867Z" fill="#212121"/>
</g>
</svg>
