<svg class="Svg-Logo" width="1025" height="681" viewBox="0 0 1025 681" fill="#fff" xmlns="http://www.w3.org/2000/svg">
<path d="M345.396 28.017C330.936 43.0619 312.111 60.4669 303.107 66.3668L287.284 77.2819L288.102 58.9918L289.194 40.7019L279.644 37.1619C257.819 28.9019 259.183 28.9019 241.995 44.5369C231.628 53.6819 218.259 70.4969 206.254 89.3769C195.615 106.192 176.791 133.331 164.24 150.146C144.869 175.811 140.504 183.777 136.412 200.002C131.774 218.292 122.498 239.532 113.222 253.102C111.039 256.346 102.036 264.016 93.3055 269.917C84.5759 276.111 76.3906 283.781 75.0263 287.321C73.6621 290.861 63.295 316.822 51.8369 344.846C26.7366 406.796 23.1906 420.956 26.1912 442.786C27.2821 451.636 29.1917 466.386 30.2839 475.827L32.1935 492.346L21.5531 498.246C2.45511 508.866 1.09089 512.406 0.545445 547.511L0 579.077L10.6405 589.106C16.6428 594.712 23.4627 604.446 26.1912 611.231C37.9226 639.257 49.1085 647.81 55.3829 633.061C59.4756 623.326 63.5683 623.622 65.7501 633.65C68.4785 646.926 82.9384 674.066 88.9407 678.195C93.851 681.441 95.2152 680.851 102.036 673.182C106.401 668.167 114.041 654.89 118.951 643.386C127.954 623.326 128.5 622.736 138.321 622.736C147.871 622.736 148.69 623.622 156.055 639.551C160.421 648.991 165.877 656.955 168.605 657.546C174.608 658.726 189.886 641.322 196.434 625.981C199.435 618.901 204.345 613.002 210.075 610.051C224.535 602.676 227.809 594.416 229.718 561.377L231.355 531.581L219.897 519.191C213.894 512.406 208.711 505.916 208.711 504.441C208.711 503.261 212.53 495.592 217.168 487.331C223.716 475.827 226.444 466.976 228.354 448.096C231.081 424.496 231.628 423.316 238.176 423.612C243.632 423.612 246.36 420.956 251.544 409.452C258.91 393.521 264.367 392.046 273.097 403.551C280.463 413.582 285.92 411.221 293.559 394.996C296.833 387.916 299.833 382.016 300.107 381.426C300.379 381.132 303.653 382.016 307.473 383.786C311.565 385.851 317.295 394.111 321.66 403.847C332.3 427.152 351.67 458.127 358.763 462.846C363.947 466.092 366.675 465.501 381.681 456.652C393.14 449.866 399.96 447.211 402.962 448.982C414.146 455.766 456.707 466.386 485.355 469.336C530.37 474.056 600.213 465.796 614.4 453.997C616.583 451.932 622.857 454.587 633.498 461.667C642.228 467.566 651.231 472.287 653.686 472.287C661.325 472.287 681.242 443.671 696.793 410.927C700.34 403.256 706.341 397.061 713.435 392.931C726.803 385.556 727.076 385.556 727.076 391.752C727.349 394.702 731.441 404.437 736.353 413.286C745.901 430.986 753.813 434.232 758.451 422.727C762.543 412.401 772.364 414.171 776.185 426.267C777.821 431.576 782.186 438.951 785.733 442.786C792.281 449.571 792.554 449.572 798.283 444.261C804.558 438.066 803.467 437.181 816.289 459.896L823.382 472.876L811.379 484.086L799.374 495.296L799.648 522.731C800.193 556.656 802.922 564.327 816.835 574.061C823.929 578.781 829.93 586.157 833.204 593.826C839.48 608.281 850.938 622.736 856.667 622.736C860.76 622.736 868.672 611.526 873.855 598.252C876.31 591.762 878.767 590.286 886.132 590.286C894.317 590.286 895.408 591.466 902.502 608.87C909.868 627.162 924.328 649.286 928.966 649.286C935.514 649.286 952.974 620.966 958.977 600.021C963.887 583.796 966.07 582.617 969.617 594.121C976.982 618.017 985.987 614.181 1001.26 581.436C1006.18 570.816 1013.54 559.016 1017.63 555.476L1025 548.396L1023.91 514.471C1022.54 477.006 1022 475.531 1000.45 463.142L992.261 458.127L991.17 421.841L990.078 385.262L969.889 333.931C952.974 290.861 948.336 281.716 940.152 274.932C914.233 254.281 896.5 226.257 892.134 199.412C889.406 183.187 879.312 165.191 864.579 150.146C857.759 143.066 837.842 115.042 820.382 87.3119C772.911 12.6769 771.273 11.4969 744.263 25.3619C728.986 33.0319 726.803 38.342 732.26 53.9768C733.624 57.8119 735.534 70.7919 736.625 82.8868L738.534 104.717L704.978 66.9569C686.425 46.0119 667.327 27.1319 662.417 25.0669C643.046 16.217 617.947 22.4119 617.947 36.2769C617.947 39.5219 622.857 48.0769 628.586 55.4519C645.774 76.3968 654.232 112.977 644.138 123.597C640.864 127.137 638.954 126.547 629.678 119.762C600.759 99.1118 552.196 89.9668 485.627 92.6219C440.611 94.3919 423.968 97.9319 402.143 109.437C390.138 115.927 389.319 115.927 382.5 110.912C373.223 104.422 373.223 97.0468 381.954 84.6568C385.5 79.6418 390.957 67.2519 393.685 57.2219C396.686 47.1918 401.597 35.097 404.871 30.0819C412.783 18.2819 411.419 11.7919 399.688 5.59696C380.044 -4.72803 374.314 -2.66304 345.396 28.017ZM443.066 231.566L509.363 285.846L550.831 255.461C573.477 238.942 604.851 215.931 620.675 204.427L649.322 183.481L661.053 195.872C667.601 202.656 674.694 211.801 676.604 215.931L680.423 223.896L643.046 251.037C577.568 299.122 555.197 316.232 555.197 318.887C555.197 322.131 561.472 327.442 607.852 364.316C656.142 402.962 666.782 409.746 675.239 407.091C691.336 402.076 691.882 403.256 682.061 422.431C668.418 448.096 658.051 463.436 653.686 463.436C647.684 463.436 617.674 440.427 561.198 392.636L508.544 348.386L499.813 354.877C494.903 358.417 468.712 379.067 441.156 400.897C381.954 447.211 371.587 454.587 364.766 454.587C362.037 454.587 356.035 448.982 351.397 441.902C338.848 423.021 325.479 397.947 327.389 396.176C327.934 395.292 331.753 396.176 335.574 397.947C348.942 404.731 355.49 402.076 389.593 375.821C441.975 335.702 462.437 318.887 462.437 316.232C462.437 314.757 436.246 291.452 404.598 264.312C372.678 237.467 345.941 213.866 345.668 212.391C344.577 209.147 369.949 177.582 374.042 177.582C375.678 177.287 406.781 201.771 443.066 231.566Z"/>
</svg>
